<svg xmlns="http://www.w3.org/2000/svg" version="1.1" xmlns:xlink="http://www.w3.org/1999/xlink" xmlns:svgjs="http://svgjs.com/svgjs" width="512" height="512" x="0" y="0" viewBox="0 0 480.011 480" style="enable-background:new 0 0 512 512" xml:space="preserve" class=""><g><path fill="#e0e0de" d="M368.012 187.813c0 99.414-80.59 180-180 180-99.414 0-180-80.586-180-180 0-99.41 80.586-180 180-180 99.41 0 180 80.59 180 180zm0 0" data-original="#e0e0de"></path><path fill="#ffeaa7" d="M328.012 187.813c0 77.32-62.68 140-140 140s-140-62.68-140-140 62.68-140 140-140 140 62.68 140 140zm0 0" data-original="#60d1e0" class="" opacity="1"></path><path fill="#4db7e5" d="M418.898 197.2a63.953 63.953 0 0 0-52-29.274c11.067 98.664-59.93 187.625-158.59 198.719 1.403 14.257 13.376 25.136 27.704 25.168h60c-.004 33.972 20.242 64.68 51.472 78.058l4.528 1.941h120v-192zm0 0" data-original="#4db7e5" class=""></path><path fill="#e0e0de" d="M368.012 187.813a181.836 181.836 0 0 0-1.121-19.887c-.61 0-1.207-.113-1.825-.113H326.41c11.352 74.175-38.328 143.93-112.137 157.457a27.863 27.863 0 0 0 21.739 10.543c-15.465 0-28 12.535-28 28 .047.949.14 1.894.285 2.832C299.27 356.328 368 279.367 368.012 187.812zm0 0" data-original="#e0e0de"></path><path fill="#4eb9c7" d="M208.012 195.813c0 15.464 12.535 28 28 28-15.465 0-28 12.535-28 28s12.535 28 28 28a27.861 27.861 0 0 0-25.278 15.84 27.865 27.865 0 0 0 3.54 29.617c73.808-13.528 123.488-83.282 112.136-157.458h-90.398c-15.465 0-28 12.536-28 28zm0 0" data-original="#4eb9c7" class=""></path><path fill="#fff3e4" d="M176.012 143.813c0 13.253-10.746 24-24 24s-24-10.747-24-24 10.746-24 24-24 24 10.746 24 24zm0 0" data-original="#f98500" class="" opacity="1"></path><path fill="#f3c144" d="M248.012 183.813c0 13.253-10.746 24-24 24s-24-10.747-24-24 10.746-24 24-24 24 10.746 24 24zm0 0" data-original="#f35244" class="" opacity="1"></path><path fill="#ffeaa7" d="M128.012 151.813c0 8.835-7.164 16-16 16s-16-7.165-16-16 7.164-16 16-16 16 7.164 16 16zm0 0" data-original="#ffb531" class="" opacity="1"></path><path fill="#f3c144" d="M240.012 111.813c0 8.835-7.164 16-16 16s-16-7.165-16-16 7.164-16 16-16 16 7.164 16 16zm0 0" data-original="#f35244" class="" opacity="1"></path><path fill="#fff3e4" d="M136.012 239.813c0 8.835-7.164 16-16 16s-16-7.165-16-16 7.164-16 16-16 16 7.164 16 16zm0 0" data-original="#f98500" class="" opacity="1"></path><path fill="#ffeaa7" d="M176.012 251.813c0 11.046-8.957 20-20 20-11.047 0-20-8.954-20-20 0-11.043 8.953-20 20-20 11.043 0 20 8.957 20 20zm0 0" data-original="#ffb531" class="" opacity="1"></path><path fill="#d6d6d4" d="M323.14 68.965a261.524 261.524 0 0 1-16.683 44.45c36.824 58.476 25.422 135.085-26.836 180.3-52.262 45.219-129.71 45.496-182.289.652-14.664 6.399-28.504 11.848-40.8 16.278 67.14 71.777 179.452 76.41 252.277 10.406 72.824-66.008 79.222-178.23 14.37-252.086zm0 0" data-original="#d6d6d4" class=""></path><path fill="#4db7e5" d="m394.7 336.047-62.688-60.235c-11.098-10.742-28.758-10.597-39.68.325-10.918 10.918-11.062 28.582-.32 39.676l55.261 55.265 4.739 4.735c-4.914 34.406 9.754 68.68 38.031 88.882l9.969 7.118h72v-61.489zm0 0" data-original="#4db7e5" class=""></path><path fill="#419bc2" d="M400.012 479.813a7.94 7.94 0 0 1-4.64-1.497l-9.97-7.109c-29.59-21.043-45.562-56.383-41.8-92.496l-57.239-57.242c-14.168-14.168-14.168-37.14 0-51.313 14.168-14.168 37.14-14.168 51.313 0l60 60a8 8 0 0 1-11.313 11.313l-60-60c-7.957-7.711-20.629-7.61-28.465.226-7.835 7.832-7.933 20.504-.222 28.461l60 60a7.998 7.998 0 0 1 2.262 6.793c-4.563 31.461 8.851 62.832 34.753 81.266l9.97 7.117a7.999 7.999 0 0 1-4.648 14.48zm0 0" data-original="#419bc2"></path><path d="M188.012 375.813c4.742 0 9.398-.247 13.976-.614a35.05 35.05 0 0 0 8.559 13.98 35.43 35.43 0 0 0 25.465 10.634h52.336c2.965 34.167 24.484 63.93 56 77.457l4.55 1.918a7.957 7.957 0 0 0 3.114.625h120a8 8 0 0 0 8-8v-192a7.992 7.992 0 0 0-1.274-4.329l-53.129-82.632a71.406 71.406 0 0 0-51.816-32.375C359.164 61.328 269.289-8.887 169.543.907 69.801 10.698-4.703 97.05.227 197.151c4.933 100.106 87.558 178.72 187.785 178.66zm48-32h24.32a169.784 169.784 0 0 1-43.129 13.457 19.952 19.952 0 0 1 18.809-13.457zm123.511-168c.29 4.058.489 8.09.489 12a171.55 171.55 0 0 1-21.528 83.199l-.8-.797a35.894 35.894 0 0 0-20.602-10.137 145.998 145.998 0 0 0 12.074-28.265h14.856v-16h-10.68a147.39 147.39 0 0 0 2.68-28c0-4.047-.2-8.047-.52-12zM217.961 316.276a19.717 19.717 0 0 1-1.95-8.465c0-11.042 8.954-20 20-20h37.895a130.733 130.733 0 0 1-55.945 28.465zm68.394-46.12c-.511.511-.87 1.12-1.351 1.656h-48.992c-11.016-.07-19.93-8.985-20-20 0-11.043 8.953-20 20-20h76.39a131.657 131.657 0 0 1-16.246 31.535 35.866 35.866 0 0 0-9.8 6.808zm-78.343-86.344c0-8.836 7.164-16 16-16s16 7.164 16 16-7.164 16-16 16-16-7.165-16-16zm112 4c0 9.417-1.024 18.804-3.051 28h-80.95a19.73 19.73 0 0 1-5.183-.801c14.676-3.2 25.152-16.176 25.184-31.2a31.672 31.672 0 0 0-1.137-8h64.527c.36 3.946.61 7.938.61 12zm-75.059-28c-13.035-11.368-32.758-10.274-44.457 2.468-11.7 12.742-11.11 32.489 1.332 44.508a34.71 34.71 0 0 0 8.719 14.399 35.793 35.793 0 0 0 3.137 2.617 35.786 35.786 0 0 0-13.672 28.007 35.363 35.363 0 0 0 10.535 25.368 35.794 35.794 0 0 0 3.137 2.617 35.801 35.801 0 0 0-13.672 28.015 35.103 35.103 0 0 0 1.87 11.2c-70.667 7.531-134.609-42.239-144.66-112.594-10.046-70.352 37.41-136.031 107.36-148.586 69.95-12.555 137.281 32.523 152.324 101.98zm-8.941 168a146.647 146.647 0 0 0 41.285-22.16 35.808 35.808 0 0 0 9.09 15.816l4.32 4.32c-.93.68-1.879 1.352-2.832 2.024zm114.64 134.738c-28.289-12.137-46.632-39.957-46.64-70.738a8 8 0 0 0-8-8h-60a19.67 19.67 0 0 1-14.16-5.942 19.527 19.527 0 0 1-3.395-4.625 186.28 186.28 0 0 0 74.355-29.433h15.918l34.895 34.898a100.614 100.614 0 0 0 32.648 85.101H353.61zM412.195 201.5l51.817 80.664v181.649H402.57l-7.879-5.598c-25.902-18.434-39.324-49.805-34.761-81.266a7.998 7.998 0 0 0-2.262-6.793l-60-60c-7.711-7.957-7.613-20.629.223-28.46 7.836-7.837 20.507-7.938 28.464-.227l60 60 11.313-11.313-47.418-47.414a187.257 187.257 0 0 0 25.762-94.93c0-3.558-.13-7.199-.344-10.863a55.591 55.591 0 0 1 36.496 24.551zM188.012 15.813c84.187-.106 156.004 60.906 169.511 144H333.18C318.367 83.176 246.559 31.234 169.137 41.156S35.324 119.446 40.312 197.34c4.993 77.898 69.645 138.512 147.7 138.473a143.914 143.914 0 0 0 23.312-1.985c.742.715 1.598 1.32 2.36 1.969a35.777 35.777 0 0 0-13.215 23.48c-4.098.32-8.242.536-12.457.536-94.992 0-172-77.008-172-172s77.008-172 172-172zm0 0" fill="#000000" data-original="#000000" class=""></path><path d="M152.012 111.813a32.007 32.007 0 0 0-29.059 18.769 23.66 23.66 0 0 0-10.941-2.77c-11.153-.07-20.887 7.551-23.489 18.395-2.605 10.844 2.602 22.055 12.57 27.055a23.992 23.992 0 0 0 29.204-6.09c10.492 9.75 26.187 11.324 38.41 3.86 12.219-7.47 17.98-22.153 14.094-35.938-3.887-13.781-16.469-23.297-30.79-23.281zm-40 48a8 8 0 1 1 0-16.001 8 8 0 0 1 0 16zm40 0c-8.836 0-16-7.165-16-16s7.164-16 16-16 16 7.164 16 16-7.164 16-16 16zM224.012 87.813c-13.254 0-24 10.746-24 24s10.746 24 24 24 24-10.747 24-24-10.746-24-24-24zm0 32a8 8 0 1 1 0-16.001 8 8 0 0 1 0 16zM156.012 223.813a27.818 27.818 0 0 0-15.082 4.48c-6.258-11.434-20.496-15.785-32.075-9.797-11.578 5.984-16.261 20.117-10.55 31.836 5.71 11.715 19.73 16.73 31.578 11.297 4.972 13.285 19.097 20.754 32.875 17.383 13.781-3.371 22.863-16.516 21.14-30.598-1.722-14.078-13.703-24.648-27.886-24.601zm-36 24a8 8 0 1 1 0-16.001 8 8 0 0 1 0 16zm36 16c-6.63 0-12-5.372-12-12 0-6.625 5.37-12 12-12 6.625 0 12 5.375 12 12 0 6.628-5.375 12-12 12zm0 0" fill="#000000" data-original="#000000" class=""></path></g></svg>