<svg xmlns="http://www.w3.org/2000/svg" version="1.1" xmlns:xlink="http://www.w3.org/1999/xlink" xmlns:svgjs="http://svgjs.com/svgjs" width="512" height="512" x="0" y="0" viewBox="0 0 512 512" style="enable-background:new 0 0 512 512" xml:space="preserve" class=""><g><path fill="#ffffff" d="M182.566 502h132.97c28.155 0 47.312-28.566 36.628-54.613L243.894 183.48a130.92 130.92 0 0 1-9.8-49.703V64.023a38.14 38.14 0 0 1 11.168-26.96 24.288 24.288 0 0 0 7.117-17.18V10H112.758v9.883a24.288 24.288 0 0 0 7.117 17.18 38.135 38.135 0 0 1 11.164 26.96v69.754c0 17.047-3.328 33.934-9.797 49.703L12.972 447.387C2.286 473.434 21.443 502 49.599 502zm0 0" data-original="#ffffff" class=""></path><path fill="#ffeaa7" d="M274.875 259H154.488L75.973 450.387C67.355 471.39 78.145 494.02 97.406 502h218.13c28.155 0 47.312-28.566 36.628-54.613zm0 0" data-original="#a7c5ff" class=""></path><path d="m361.414 443.59-108.27-263.902a120.42 120.42 0 0 1-9.05-45.91V64.02c0-7.512 2.926-14.575 8.238-19.887 6.477-6.477 10.047-15.09 10.047-24.25V10c0-5.523-4.48-10-10-10H112.758c-5.524 0-10 4.477-10 10v9.883c0 9.16 3.566 17.773 10.043 24.25 5.312 5.312 8.238 12.375 8.238 19.89v69.754c0 15.825-3.043 31.27-9.05 45.91l-29.75 72.516-.036.082L3.72 443.59a49.507 49.507 0 0 0 4.695 46.441A49.503 49.503 0 0 0 49.598 512h265.937a49.51 49.51 0 0 0 41.188-21.969 49.518 49.518 0 0 0 4.691-46.441zM130.492 187.277c7-17.058 10.547-35.058 10.547-53.5V64.02c0-12.852-5.004-24.938-14.094-34.028A14.211 14.211 0 0 1 122.758 20h119.62a14.206 14.206 0 0 1-4.19 9.992c-9.086 9.09-14.094 21.172-14.094 34.028v69.753c0 18.442 3.55 36.442 10.547 53.5l24.144 58.852H106.348zM340.11 478.891C334.523 487.223 325.566 492 315.535 492H49.598c-10.028 0-18.985-4.777-24.575-13.11-4.214-6.285-5.824-13.574-4.73-20.761H36.77c5.52 0 10-4.48 10-10 0-5.524-4.48-10-10-10h-9.188l11.484-28h16.868c5.523 0 10-4.48 10-10 0-5.524-4.477-10-10-10h-8.66l11.484-28h17.344c5.523 0 10-4.48 10-10 0-5.524-4.477-10-10-10h-9.137l11.488-28h17.813c5.523 0 10-4.48 10-10 0-5.524-4.477-10-10-10h-9.61l11.489-28h168.843l75.922 185.055c3.805 9.277 2.785 19.379-2.8 27.707zm0 0" fill="#000000" data-original="#000000" class=""></path><path d="M312.031 444.215a10.001 10.001 0 0 0-18.511 7.574l.054.125a10.002 10.002 0 0 0 13.043 5.469c5.11-2.094 7.559-7.934 5.465-13.043zM297.898 409.762l-35.812-87.29c-2.094-5.109-7.934-7.554-13.047-5.456-5.11 2.093-7.55 7.937-5.457 13.047l35.813 87.289c1.585 3.87 5.316 6.207 9.257 6.207a9.925 9.925 0 0 0 3.79-.75c5.109-2.094 7.554-7.938 5.456-13.047zm0 0" fill="#000000" data-original="#000000" class=""></path></g></svg>