<svg xmlns="http://www.w3.org/2000/svg" version="1.1" xmlns:xlink="http://www.w3.org/1999/xlink" xmlns:svgjs="http://svgjs.com/svgjs" width="512" height="512" x="0" y="0" viewBox="0 0 62.281 62" style="enable-background:new 0 0 512 512" xml:space="preserve" class=""><g><path fill="#96af28" d="M8.7 56.86c.46-1.9 1.09-3.76 1.9-5.53.68-1.5 1.48-2.95 2.4-4.33 1.05 1.58 1.95 3.25 2.68 4.98.19.43.36.88.53 1.32.83 2.2 1.39 4.5 1.68 6.86L18 61H8l.11-.84c.14-1.11.33-2.22.59-3.3z" data-original="#b4dd7f" class="" opacity="1"></path><path fill="#4e971e" d="M10.6 51.33c-.81 1.77-1.44 3.63-1.9 5.53-.26 1.08-.45 2.19-.59 3.3L8 61H3c.66-4.65.71-9.36.12-14.02L3 46c3.17.63 5.92 2.57 7.6 5.33zM30 44a38.655 38.655 0 0 0-5.56 13.04l-.25 1.11c-1.7.37-3.21 1.38-4.19 2.85h-2l-.11-.84c-.29-2.36-.85-4.66-1.68-6.86-.17-.44-.34-.89-.53-1.32h.01c.96-1.34 2.07-2.53 3.31-3.56a18.64 18.64 0 0 1 4-2.56c1.99-.96 4.15-1.57 6.39-1.8z" data-original="#a0d468" class="" opacity="1"></path><path fill="#96af28" d="M61 61H20a6.758 6.758 0 0 1 4.19-2.85c.46-.1.94-.15 1.42-.15H26l1.36-1.81c.74-1 1.79-1.69 2.97-2l.18-.48C31.41 51.47 33.58 50 36 50l.66-1.32a4.843 4.843 0 0 1 7.76-1.26L45 48h1.53c.86 0 1.69.15 2.47.44 1.71.62 3.15 1.88 4 3.56a9.305 9.305 0 0 1 7.48 6.9zM49 40c-1.63-.6-3.13-1.42-4.46-2.44s-2.49-2.23-3.45-3.58l1.11-.28c.82-.2 1.52-.68 2.02-1.31.49-.63.78-1.43.78-2.27 0-.73-.22-1.44-.62-2.05L43 26v-1c0-2.21-1.79-4-4-4h-.79A25.41 25.41 0 0 1 44 7.9L49 2l5 5.9c3.87 4.59 6 10.39 6 16.4 0 3.51-1.1 6.84-3.02 9.58A16.72 16.72 0 0 1 49 40zM23 33V18.97a3.41 3.41 0 0 1-2-.97c-.54.54-1.25.88-2 .97V29.5c0-.96-.38-1.88-1.06-2.56L17 26v-.76a4.242 4.242 0 0 0-7.24-3L9 23l-1-1.5c-.65-.98-1-2.13-1-3.31 0-.99.25-1.96.71-2.81.45-.85 1.12-1.6 1.95-2.15L10 13l-.42-.83A5.61 5.61 0 0 1 9 9.69c0-1.35.49-2.61 1.31-3.58.83-.97 1.99-1.66 3.32-1.88L15 4l1.23-1.23C17.36 1.64 18.9 1 20.5 1s3.14.64 4.27 1.77L25 3l1.65-1.1c.88-.59 1.92-.9 2.98-.9 1.48 0 2.82.6 3.79 1.58A5.31 5.31 0 0 1 35 6.37V8l.74.55A8.17 8.17 0 0 1 39 15.08c0 1.26-.29 2.51-.86 3.64L37 21l-.76-.76a4.242 4.242 0 0 0-7.24 3V24l-.94.94a3.618 3.618 0 0 0 0 5.12l.51.51z" data-original="#b4dd7f" class="" opacity="1"></path><path fill="#4e971e" d="m29 31-.43-.43-.51-.51a3.618 3.618 0 0 1 0-5.12L29 24v-.76a4.242 4.242 0 0 1 7.24-3L37 21h2c2.21 0 4 1.79 4 4v1l1.38 2.07c.4.61.62 1.32.62 2.05 0 .84-.29 1.64-.78 2.27-.5.63-1.2 1.11-2.02 1.31l-1.11.28L41 34l-.44.65A5.248 5.248 0 0 1 36.18 37c-1.4 0-2.73-.55-3.72-1.54L32 35l-.15-.05A4.172 4.172 0 0 1 29 31zM17.59 32.41 17 33c0 1.79-1.15 3.38-2.85 3.95L14 37l-.46.46c-.99.99-2.32 1.54-3.72 1.54-1.76 0-3.41-.88-4.38-2.35L5 36l-1.2-.3c-.82-.2-1.52-.68-2.02-1.31-.49-.63-.78-1.43-.78-2.27 0-.73.22-1.44.62-2.05L3 28v-1c0-2.21 1.79-4 4-4h2l.76-.76a4.242 4.242 0 0 1 7.24 3V26l.94.94a3.618 3.618 0 0 1 0 5.12z" data-original="#a0d468" class="" opacity="1"></path><path fill="#d3a06c" d="M23 45.85v.01a18.64 18.64 0 0 0-4 2.56V18.97a3.41 3.41 0 0 0 2-.97c.54.54 1.25.88 2 .97V33z" data-original="#d3a06c" class=""></path><path d="M61.445 58.659a10.273 10.273 0 0 0-7.791-7.552 8.174 8.174 0 0 0-3.655-3.331V40.67c6.604-2.709 11-9.194 11-16.375 0-6.229-2.216-12.28-6.241-17.036L49 .452l-5.759 6.807a26.392 26.392 0 0 0-3.559 5.481 9.183 9.183 0 0 0-3.343-4.984L36 7.5V6.373A6.38 6.38 0 0 0 29.627 0c-1.262 0-2.484.37-3.535 1.07l-.979.652A6.986 6.986 0 0 0 20.5 0a6.986 6.986 0 0 0-4.975 2.061L14.52 3.066l-1.056.176A6.519 6.519 0 0 0 8 9.692c0 1.01.239 2.021.69 2.925l.027.055A6.953 6.953 0 0 0 7.137 22H7c-2.757 0-5 2.243-5 5v.697L.788 29.515A4.675 4.675 0 0 0 0 32.118a4.685 4.685 0 0 0 3.554 4.551l.829.207.222.334A6.251 6.251 0 0 0 9.818 40a6.223 6.223 0 0 0 4.431-1.836l.292-.292a5.146 5.146 0 0 0 3.407-4.227l.052.022v14.296a20.16 20.16 0 0 0-2.093 2.121 31.412 31.412 0 0 0-2.075-3.639L13 45.197l-.832 1.248a31.203 31.203 0 0 0-1.734 2.95 12.557 12.557 0 0 0-7.238-4.376l-1.361-.272.295 2.36A51.746 51.746 0 0 1 2.118 60H0v2h62.281zM46.528 47h-1.114l-.288-.288A5.804 5.804 0 0 0 40.994 45a5.813 5.813 0 0 0-5.227 3.23l-.399.798a6.869 6.869 0 0 0-5.781 4.313l-.015.036a6.48 6.48 0 0 0-3.012 2.21L25.5 57l-.026.002a37.457 37.457 0 0 1 5.358-12.448l1.174-1.761-2.719.272a20.229 20.229 0 0 0-5.288 1.265V33.654l4.086-1.788a5.143 5.143 0 0 0 3.372 4.007l.292.291A6.23 6.23 0 0 0 36.182 38c1.93 0 3.724-.888 4.907-2.386A17.594 17.594 0 0 0 48 40.672v6.475A8.244 8.244 0 0 0 46.528 47zm-17.76-17.646C28.28 28.866 28 28.19 28 27.5s.28-1.366.768-1.854L30 24.414v-1.172A3.246 3.246 0 0 1 33.243 20c.866 0 1.68.337 2.292.949L36.585 22H39c1.654 0 3 1.346 3 3v1.303l1.548 2.322c.296.443.452.96.452 1.493a2.687 2.687 0 0 1-2.039 2.611l-1.579.395-.651.977A4.258 4.258 0 0 1 36.182 36a4.242 4.242 0 0 1-3.018-1.25l-.623-.623-.379-.127a3.158 3.158 0 0 1-2.16-2.972l4.703-2.057 3.848 1.924.895-1.789-2.357-1.179 2.311-1.011-.802-1.832-2.6 1.137V24h-2v3.096l-5.21 2.28zm16-20.804L49 3.548l4.232 5.002A24.404 24.404 0 0 1 59 24.295c0 6.094-3.564 11.628-9 14.201V26.5l3.181-2.385 2.503.834.633-1.896-2.051-.685.684-2.051-1.897-.633-.901 2.704L50 24v-4.586l3.707-3.707-1.414-1.414L49 17.586l-3.293-3.293-1.414 1.414L48 19.414V38.5a15.584 15.584 0 0 1-5.188-3.956 4.673 4.673 0 0 0 2.4-7.029L44 25.697V25c0-2.624-2.038-4.758-4.611-4.961A24.303 24.303 0 0 1 44.768 8.55zm-34.556 5.511 1.077-.718-.81-1.62A4.57 4.57 0 0 1 10 9.692a4.526 4.526 0 0 1 3.793-4.478l1.688-.281 1.459-1.459A5 5 0 0 1 20.5 2c1.345 0 2.609.523 3.561 1.475l.812.813 2.329-1.553A4.352 4.352 0 0 1 29.627 2 4.378 4.378 0 0 1 34 6.373V8.5l1.139.854A7.186 7.186 0 0 1 38 15.076a7.18 7.18 0 0 1-.755 3.197l-.533 1.066A5.198 5.198 0 0 0 33.243 18 5.249 5.249 0 0 0 28 23.242v.344l-.646.646A4.65 4.65 0 0 0 26 27.5c0 .973.327 1.921.893 2.705L24 31.471V19.96a4.365 4.365 0 0 0 2.708-1.253l-1.415-1.414a2.398 2.398 0 0 1-1.707.707h-.172a2.398 2.398 0 0 1-1.707-.707L21 16.585l-.708.708a2.394 2.394 0 0 1-1.706.707h-.172a2.398 2.398 0 0 1-1.707-.707l-1.415 1.414A4.366 4.366 0 0 0 18 19.96v5.283A5.249 5.249 0 0 0 12.757 20a5.2 5.2 0 0 0-3.594 1.442l-.329-.494A4.952 4.952 0 0 1 8 18.193c0-1.665.827-3.21 2.212-4.132zM16 33a3.158 3.158 0 0 1-2.165 3l-.376.127-.624.623A4.236 4.236 0 0 1 9.818 38c-1.43 0-2.757-.71-3.55-1.899l-.651-.977-1.579-.395A2.687 2.687 0 0 1 2 32.118c0-.533.156-1.05.452-1.493L4 28.303V27c0-1.654 1.346-3 3-3h2.415l1.049-1.05a3.223 3.223 0 0 1 2.293-.95A3.246 3.246 0 0 1 16 25.242v1.172l1.232 1.232A2.64 2.64 0 0 1 18 29.5c0 .634-.245 1.25-.662 1.724L12 29v-3h-2v2.167l-2.615-1.09-.77 1.846 2.347.978-2.409 1.205.895 1.789 3.955-1.977L16 32.833zm4-13.239a4.295 4.295 0 0 0 1-.478c.311.204.649.359 1 .478v25.474a20.26 20.26 0 0 0-2 1.19zm8.025 25.502a39.438 39.438 0 0 0-4.566 11.56l-.117.528a7.695 7.695 0 0 0-3.836 2.65h-.316c.744-3.89 2.668-7.514 5.508-10.284l-1.396-1.432c-2.29 2.232-4.033 4.974-5.134 7.959a31.86 31.86 0 0 0-1.344-4.094 18.216 18.216 0 0 1 11.201-6.887zM13 48.879A29.712 29.712 0 0 1 16.86 60H14v-6h-2v6H9.14A29.712 29.712 0 0 1 13 48.879zm-8.825-1.525a10.55 10.55 0 0 1 5.291 4.081 31.636 31.636 0 0 0-.862 2.248 21.783 21.783 0 0 0-1.772-3.237l-1.664 1.109a19.78 19.78 0 0 1 2.506 5.369A31.17 31.17 0 0 0 7.118 60H4.116c.508-4.199.545-8.444.059-12.646zM22.375 60c.939-.641 2.058-1 3.231-1h.894l1.659-2.213A4.491 4.491 0 0 1 31.734 55a4.44 4.44 0 0 1 3.16 1.309L36 57.415l1.708-1.708A2.394 2.394 0 0 1 39.414 55h.172c.645 0 1.251.251 1.707.707l1.415-1.414A4.385 4.385 0 0 0 39.586 53h-.172a4.38 4.38 0 0 0-3.121 1.293l-.303.303c-1.102-.965-2.484-1.5-3.951-1.568A4.87 4.87 0 0 1 36 51h.618l.938-1.875A3.821 3.821 0 0 1 40.994 47c1.026 0 1.992.4 2.718 1.126l.874.874h1.942a6.203 6.203 0 0 1 5.578 3.447l.228.455.502.084a8.273 8.273 0 0 1 6.669 6.157l.214.857z" fill="#000000" data-original="#000000"></path><path d="M49.204 56c-.798 0-1.56.238-2.204.68a3.881 3.881 0 0 0-2.204-.68 3.885 3.885 0 0 0-3.494 2.159l-.197.394 1.789.895.197-.394A1.894 1.894 0 0 1 44.796 58c.501 0 .993.204 1.349.56l.855.852.856-.854A1.923 1.923 0 0 1 49.204 58c.727 0 1.38.403 1.705 1.054l.197.394 1.789-.895-.197-.394A3.885 3.885 0 0 0 49.204 56zM45 53.414c.533-.535 1.465-.535 2 0l.293.293 1.414-1.414-.292-.293c-1.289-1.289-3.541-1.289-4.829 0l-.293.293 1.414 1.414zM15.294 15.708l1.412-1.416-.148-.147A1.896 1.896 0 0 1 16 12.796c0-.727.404-1.38 1.053-1.705l.947-.472V10c0-1.103.897-2 2-2V6a4.007 4.007 0 0 0-3.949 3.357A3.89 3.89 0 0 0 14 12.796c0 1.044.406 2.025 1.145 2.764zM25.586 14c.871 0 1.703-.25 2.414-.717a4.378 4.378 0 0 0 2.414.717h.172c1.18 0 2.288-.459 3.122-1.293l-1.415-1.414a2.398 2.398 0 0 1-1.707.707h-.172a2.398 2.398 0 0 1-1.707-.707L28 10.585l-.708.708a2.394 2.394 0 0 1-1.706.707h-.172a2.398 2.398 0 0 1-1.707-.707l-1.415 1.414A4.385 4.385 0 0 0 25.414 14z" fill="#000000" data-original="#000000"></path></g></svg>