<svg xmlns="http://www.w3.org/2000/svg" version="1.1" xmlns:xlink="http://www.w3.org/1999/xlink" xmlns:svgjs="http://svgjs.com/svgjs" width="512" height="512" x="0" y="0" viewBox="0 0 410.5 410" style="enable-background:new 0 0 512 512" xml:space="preserve" class=""><g><path fill="#19b994" d="M204.242 206.496c-20.398-20.402-20.398-53.476 0-73.879L316.344 20.52c20.402-20.403 53.476-20.403 73.875 0 20.402 20.398 20.402 53.472 0 73.875L278.12 206.496c-20.402 20.399-53.476 20.399-73.879 0zm0 0" data-original="#74c7c5" class=""></path><path fill="#0a6f58" d="M393.766 16.984c-22.371-22.312-58.582-22.312-80.95 0l-99.03 99.047a4.994 4.994 0 0 0 .07 7.008 4.998 4.998 0 0 0 7.007.05l99.02-99.034c18.527-17.98 48.05-17.758 66.305.496 18.253 18.254 18.476 47.777.496 66.304L274.598 202.957c-18.528 17.98-48.051 17.762-66.305-.492-18.254-18.254-18.477-47.781-.496-66.305a5.003 5.003 0 0 0-7.074-7.074c-19.094 19.152-22.211 49.043-7.47 71.719-54.612-2.586-83.663 8.648-90.8 34.902a181.822 181.822 0 0 0-87.043 39.922 5.006 5.006 0 0 0-.496 6.965 4.997 4.997 0 0 0 6.95.672 172.098 172.098 0 0 1 84.402-38.047c.074 0 .152.02.222.02a4.912 4.912 0 0 0 1.575-.282c1.796-.266 3.582-.55 5.425-.773a245.273 245.273 0 0 0 64.176-15.524c-13.316 16.875-27.754 39.512-29.566 60.082a37.135 37.135 0 0 1-20.285 30.145c-.461.246-.977.398-1.45.64-1.8-7.402-3.945-14.879-6.082-22.297a258.491 258.491 0 0 1-9.015-37.894 5 5 0 0 0-5.582-4.344 5 5 0 0 0-4.344 5.578 269.918 269.918 0 0 0 9.32 39.434c2.207 7.672 4.426 15.402 6.223 22.992a63.747 63.747 0 0 1-45.617-6.164 5.007 5.007 0 0 0-6.801 2 5.006 5.006 0 0 0 2 6.797 75.548 75.548 0 0 0 36 9.336 66.785 66.785 0 0 0 16.5-2.05c3.078 17.077 2.84 32.8-6.254 44.456a5.003 5.003 0 0 0 7.887 6.156c11.691-14.972 11.77-33.906 7.937-53.902a57.884 57.884 0 0 0 3.969-1.914 46.829 46.829 0 0 0 25.559-38.082c2.578-29.23 35.804-65.395 46.402-76.23 22.723 19.03 56.219 17.57 77.2-3.368L393.761 97.934c22.316-22.368 22.32-58.579.004-80.95zM113.484 234.078c5.524-12.855 22.29-25.703 77.391-23.375-11.543 7.3-34.973 18.078-77.39 23.375zM4.031 286.328c-1.957 2.082-2.926 3.3-2.926 3.3a5.001 5.001 0 0 0 .762 7.032 4.997 4.997 0 0 0 7.028-.762c.07-.082.878-1.07 2.425-2.722a5 5 0 1 0-7.29-6.848zm0 0" data-original="#2f2754" class=""></path><g fill="#fff"><path d="M364.836 84.207a4.998 4.998 0 0 0 7.07 0 37.5 37.5 0 0 0 10.223-34.238 5.011 5.011 0 0 0-3.313-3.844 5.013 5.013 0 0 0-4.968 1.031 5.012 5.012 0 0 0-1.508 4.848 27.515 27.515 0 0 1-7.5 25.133 4.998 4.998 0 0 0-.004 7.07zM366.406 39.855a5.003 5.003 0 0 0 7.008.563 4.997 4.997 0 0 0 .649-6.996c-.68-.8-1.403-1.598-2.16-2.348-1.95-1.953-5.118-1.953-7.071 0s-1.953 5.121 0 7.07a24.806 24.806 0 0 1 1.574 1.711zm0 0" fill="#ffffff" data-original="#ffffff"></path></g></g></svg>