<svg xmlns="http://www.w3.org/2000/svg" version="1.1" xmlns:xlink="http://www.w3.org/1999/xlink" xmlns:svgjs="http://svgjs.com/svgjs" width="512" height="512" x="0" y="0" viewBox="0 0 467.398 467.398" style="enable-background:new 0 0 512 512" xml:space="preserve" class=""><g><path d="m417.52 150.393-51.514-32.41a26.589 26.589 0 0 0-14.189-4.081H26.112C11.689 113.902 0 125.263 0 139.28v209.575c0 14.006 11.689 25.379 26.112 25.379h112.705v11.246a6.972 6.972 0 0 0 6.973 6.973h.887l-28.816 50.578 10.426 5.941 32.201-56.52h114.73l32.805 57.576 10.426-5.939-29.432-51.656c3.658-.215 6.563-3.24 6.563-6.953v-11.246h107.74c14.422 0 26.111-11.373 26.111-25.379V171.691c-.001-8.602-4.477-16.618-11.911-21.298z" style="" fill="#d0d6e3" data-original="#d0d6e3" class=""></path><path d="M233.903 80.874h26.147l-.045-.181-7.496-33.857-4.158-18.771a5.993 5.993 0 0 0-5.852-4.697H117.003a5.995 5.995 0 0 0-5.812 4.528L97.83 80.874h136.073z" style="" fill="#cfd5e3" data-original="#cfd5e3"></path><path d="m449.487 117.366-51.516-32.41c-4.221-2.668-9.152-4.081-14.189-4.081h-72.031V40.947h-59.846v5.399l6.561 34.528h-25.248l-2.734-19.902a11.215 11.215 0 0 0-11.109-9.688h-81.108a11.213 11.213 0 0 0-11.117 9.744l-2.625 19.846H58.076c-14.422 0-26.111 11.361-26.111 25.379v209.575c0 14.006 11.689 25.377 26.111 25.377h377.208c14.424 0 26.113-11.371 26.113-25.377V138.663c0-8.603-4.478-16.618-11.91-21.297z" style="" fill="#9bb1be" data-original="#9bb1be" class=""></path><path d="M311.748 56.596h72.06v22.843h-72.06z" style="" fill="#ffdba5" data-original="#ffdba5" class=""></path><path d="M415.751 313.668h-62.098V198.697c0-9.219 7.473-16.693 16.693-16.693a16.692 16.692 0 0 1 16.4 13.587l3.773 19.929a16.693 16.693 0 0 0 12.035 13.006l23.178 6.282a16.694 16.694 0 0 1 12.326 16.111v40.438c.001 12.323-9.987 22.311-22.307 22.311z" style="" fill="#f2f2f2" data-original="#f2f2f2"></path><path d="M373.248 272.819h29.77v21.1h-29.77z" style="" fill="#ffc34b" data-original="#e8805c" class=""></path><path d="M204.152 100.36h-50.425a2.798 2.798 0 0 1-2.798-2.798V74.019a2.798 2.798 0 0 1 2.798-2.798h50.425a2.798 2.798 0 0 1 2.798 2.798v23.542a2.799 2.799 0 0 1-2.798 2.799zM167.108 341.21h156.76v29.441h-156.76z" style="" fill="#00ab84" data-original="#637985" class=""></path><circle cx="413.518" cy="192.789" r="15.867" style="" fill="#00ab84" data-original="#637985" class=""></circle><circle cx="361.658" cy="142.009" r="15.866" style="" fill="#00ab84" data-original="#637985" class=""></circle><circle cx="366.218" cy="149.219" r="11.304" style="" fill="#ffdba5" data-original="#ffdba5" class=""></circle><circle cx="418.078" cy="199.529" r="11.305" style="" fill="#ffdba5" data-original="#ffdba5" class=""></circle><path d="M373.933 122.697h58.542v12h-58.542z" style="" transform="scale(-1) rotate(30.776 467.597 -1464.971)" fill="#d0d6e3" data-original="#d0d6e3" class=""></path><path d="M338.905 169.364h-12v-45.366h-67.457v-12h79.457zM326.908 182.009h12v35.04h-12zM56.108 111.999h41.957v12H56.108z" style="" fill="#d0d6e3" data-original="#d0d6e3" class=""></path><path d="M62.108 137.889h249.65v175.75H62.108z" style="" fill="#ffffff" data-original="#ffffff" class=""></path><path d="M257.458 198.438 200.68 245.41l-31.468-27.65-33.177 27.45-35.39-31.1-38.543 31.889v72.728h249.651v-72.581z" style="" fill="#ffdba5" data-original="#ffdba5" class=""></path><circle cx="140.308" cy="182.259" r="18.4" style="" fill="#ffc34b" data-original="#e8805c" class=""></circle><path d="M307.739 266.789c-13.441 0-13.441-9.043-26.885-9.043-13.441 0-13.441 9.043-26.885 9.043-13.441 0-13.441-9.043-26.881-9.043-13.439 0-13.439 9.043-26.88 9.043-13.439 0-13.439-9.043-26.88-9.043-13.439 0-13.439 9.043-26.88 9.043-13.438 0-13.438-9.043-26.877-9.043-13.438 0-13.438 9.043-26.876 9.043-13.436 0-13.436-9.043-26.873-9.043v58.025h242.209l-.292-48.982z" style="" fill="#00ab84" data-original="#637985" class=""></path><path d="M366.468 244.069h13.564v13.564h-13.564zM389.068 244.069h13.566v13.564h-13.566zM204.152 106.36h-50.425c-4.852 0-8.798-3.947-8.798-8.798V74.019c0-4.852 3.946-8.798 8.798-8.798h50.425c4.852 0 8.799 3.947 8.799 8.798v23.542c-.001 4.852-3.948 8.799-8.799 8.799zm-47.223-12h44.021V77.22h-44.021v17.14z" style="" fill="#1b2a2b" data-original="#1b2a2b" class=""></path><path d="M415.751 319.668h-68.098V198.697c0-12.513 10.18-22.692 22.693-22.692 10.893 0 20.27 7.768 22.297 18.471l3.773 19.929a10.751 10.751 0 0 0 7.707 8.331l23.18 6.282c9.865 2.675 16.756 11.681 16.756 21.904v40.436c0 15.611-12.699 28.31-28.308 28.31zm-56.098-12h56.098c8.992 0 16.309-7.316 16.309-16.311v-40.436c0-4.816-3.246-9.061-7.895-10.322l-23.18-6.281c-8.332-2.258-14.754-9.199-16.359-17.681l-3.773-19.929a10.701 10.701 0 0 0-10.506-8.703c-5.896 0-10.693 4.796-10.693 10.692l-.001 108.971zM366.219 166.526c-9.541 0-17.303-7.763-17.303-17.304 0-9.542 7.762-17.305 17.303-17.305 9.543 0 17.305 7.763 17.305 17.305 0 9.541-7.762 17.304-17.305 17.304zm0-22.609c-2.924 0-5.303 2.38-5.303 5.305s2.379 5.304 5.303 5.304a5.31 5.31 0 0 0 5.305-5.304 5.31 5.31 0 0 0-5.305-5.305z" style="" fill="#1b2a2b" data-original="#1b2a2b" class=""></path><path d="M418.081 216.831c-9.543 0-17.305-7.763-17.305-17.305s7.762-17.304 17.305-17.304c9.541 0 17.305 7.763 17.305 17.304 0 9.542-7.764 17.305-17.305 17.305zm0-22.609a5.31 5.31 0 0 0-5.305 5.304 5.31 5.31 0 0 0 5.305 5.305c2.924 0 5.305-2.38 5.305-5.305s-2.381-5.304-5.305-5.304z" style="" fill="#1b2a2b" data-original="#1b2a2b" class=""></path><path d="M379.713 112.983h58.542v12h-58.542z" style="" transform="scale(-1) rotate(30.776 432.304 -1485.971)" fill="#1b2a2b" data-original="#1b2a2b" class=""></path><path d="M409.016 299.921h-41.77v-33.102h41.77v33.102zm-29.769-12h17.77v-9.102h-17.77v9.102zM140.178 206.795c-13.526 0-24.531-11.004-24.531-24.531s11.005-24.531 24.531-24.531 24.531 11.005 24.531 24.531-11.005 24.531-24.531 24.531zm0-37.062c-6.91 0-12.531 5.622-12.531 12.531 0 6.909 5.621 12.531 12.531 12.531s12.531-5.621 12.531-12.531-5.621-12.531-12.531-12.531z" style="" fill="#1b2a2b" data-original="#1b2a2b" class=""></path><path d="M56.104 131.917v187.751h261.647V131.917H56.104zm249.647 12v89.434l-48.17-44.878-56.778 49.804-31.467-29.316-33.178 29.104-35.391-32.974-32.664 28.652v-89.826h237.648zm-98.247 117.005c-1.74.852-3.689 1.373-6.6 1.373-4.89 0-7.071-1.467-10.091-3.5-3.671-2.469-8.239-5.543-16.79-5.543s-13.118 3.074-16.789 5.545c-3.02 2.031-5.201 3.498-10.09 3.498s-7.069-1.467-10.089-3.498c-1.117-.752-2.319-1.561-3.69-2.32l35.729-31.341 38.41 35.786zm-88.698-7.637c-7.618.328-11.87 3.186-15.325 5.512-3.02 2.031-5.2 3.498-10.089 3.498-4.887 0-7.068-1.467-10.086-3.498-3.437-2.313-7.66-5.154-15.202-5.508v-3.582l32.422-28.441 26.566 24.752-8.286 7.267zM68.104 265.31c3.813.289 5.832 1.645 8.501 3.441 3.67 2.469 8.237 5.543 16.787 5.543s13.118-3.074 16.788-5.543c3.02-2.031 5.2-3.5 10.088-3.5 4.889 0 7.069 1.469 10.089 3.5 3.67 2.471 8.238 5.543 16.788 5.543 8.551 0 13.118-3.072 16.789-5.543 3.02-2.031 5.201-3.5 10.09-3.5 4.89 0 7.071 1.469 10.091 3.5 3.671 2.471 8.239 5.543 16.79 5.543s13.118-3.072 16.789-5.543c3.02-2.031 5.201-3.5 10.091-3.5s7.072 1.469 10.091 3.5c3.67 2.471 8.238 5.543 16.789 5.543 8.553 0 13.121-3.072 16.793-5.543 3.02-2.031 5.201-3.5 10.092-3.5s7.074 1.469 10.094 3.5c3.266 2.197 7.25 4.867 14.107 5.43v13.182c-3.129-.447-5.006-1.703-7.408-3.32-3.672-2.471-8.24-5.545-16.793-5.545-8.551 0-13.119 3.074-16.791 5.545-3.02 2.031-5.203 3.5-10.094 3.5-4.889 0-7.07-1.469-10.09-3.5-3.672-2.471-8.24-5.545-16.791-5.545s-13.119 3.074-16.79 5.545c-3.02 2.031-5.201 3.5-10.09 3.5-4.89 0-7.071-1.469-10.091-3.5-3.671-2.471-8.239-5.545-16.79-5.545s-13.119 3.074-16.789 5.545c-3.02 2.031-5.201 3.5-10.09 3.5s-7.069-1.469-10.089-3.5c-3.67-2.471-8.238-5.545-16.788-5.545s-13.117 3.074-16.787 5.545c-3.02 2.031-5.2 3.5-10.089 3.5-4.887 0-7.068-1.469-10.086-3.5-3.437-2.313-7.66-5.154-15.202-5.508l.001-13.225zm230.239-6.514c-3.672-2.469-8.24-5.543-16.793-5.543-8.551 0-13.119 3.074-16.791 5.543-3.02 2.033-5.203 3.5-10.094 3.5-4.889 0-7.07-1.467-10.09-3.5-3.672-2.469-8.24-5.543-16.791-5.543-3.797 0-6.806.607-9.302 1.498l-8.854-8.25 47.71-41.852 48.412 45.104v12.365c-3.128-.447-5.005-1.705-7.407-3.322zM68.104 307.668v-17.109c3.813.289 5.832 1.643 8.501 3.439 3.67 2.471 8.237 5.545 16.787 5.545 8.551 0 13.118-3.074 16.789-5.545 3.019-2.031 5.199-3.5 10.087-3.5 4.889 0 7.069 1.469 10.089 3.5 3.67 2.471 8.238 5.545 16.788 5.545 8.551 0 13.119-3.074 16.789-5.545 3.02-2.031 5.201-3.5 10.09-3.5 4.89 0 7.071 1.469 10.091 3.5 3.671 2.471 8.239 5.545 16.79 5.545s13.118-3.074 16.789-5.545c3.02-2.031 5.201-3.5 10.091-3.5s7.072 1.469 10.091 3.5c3.67 2.471 8.238 5.545 16.789 5.545 8.553 0 13.121-3.074 16.793-5.545 3.02-2.031 5.201-3.5 10.092-3.5s7.074 1.469 10.094 3.5c3.266 2.197 7.25 4.867 14.107 5.432v8.238H68.104z" style="" fill="#1b2a2b" data-original="#1b2a2b" class=""></path><path d="m452.68 112.287-51.504-32.404a32.306 32.306 0 0 0-11.369-4.435V52.032h-72.053v-15.83h-62.059l-2.088-9.433c-1.227-5.535-6.041-9.4-11.711-9.4H116.403a11.981 11.981 0 0 0-11.629 9.061L92.555 74.875H58.076c-17.706 0-32.111 14.077-32.111 31.379v209.575c0 17.301 14.405 31.379 32.111 31.379H162.3v29.441h21.908l-37.821 66.383 10.426 5.941 41.205-72.324h97.325l41.207 72.324 10.426-5.941-37.822-66.383h21.908v-29.441h104.223c17.707 0 32.113-14.078 32.113-31.379V138.663c-.001-10.714-5.503-20.574-14.718-26.376zm-86.621-48.255h11.748v10.842h-11.748V64.032zm-23.74 0h11.74v10.842h-11.74V64.032zm-24.564 0h12.564v10.842h-12.564V64.032zm-12-15.83v3.83h-.004v22.662h-41.529l-5.867-26.492h47.4zM116.403 29.368l125.489-.005 10.078 45.511h-13.434l-2.107-15.347c-1.166-8.478-8.497-14.871-17.054-14.871h-81.108c-8.602 0-15.938 6.43-17.065 14.957l-2.019 15.26h-14.252l11.472-45.505zm113.301 82.513a5.145 5.145 0 0 1-3.93 1.787h-93.671a5.145 5.145 0 0 1-3.921-1.777 5.143 5.143 0 0 1-1.248-4.121l6.162-46.583a5.228 5.228 0 0 1 5.169-4.53h81.108a5.234 5.234 0 0 1 5.165 4.504l6.4 46.583a5.137 5.137 0 0 1-1.234 4.137zm89.357 252.767H174.3v-17.441h144.761v17.441zm136.336-48.82c0 10.686-9.023 19.379-20.113 19.379H58.076c-11.09 0-20.111-8.693-20.111-19.379V106.253c0-10.686 9.021-19.379 20.111-19.379h59.517l-2.556 19.322a17.215 17.215 0 0 0 17.065 19.472h93.671a17.216 17.216 0 0 0 17.054-19.557l-2.643-19.236H383.78c3.922 0 7.721 1.09 10.994 3.16l51.512 32.409c5.703 3.59 9.109 9.654 9.109 16.22v177.164h.002z" style="" fill="#1b2a2b" data-original="#1b2a2b" class=""></path></g></svg>