<svg xmlns="http://www.w3.org/2000/svg" version="1.1" xmlns:xlink="http://www.w3.org/1999/xlink" xmlns:svgjs="http://svgjs.com/svgjs" width="512" height="512" x="0" y="0" viewBox="0 0 64 64" style="enable-background:new 0 0 512 512" xml:space="preserve" class=""><g><path fill="#c9c9c9" d="m38.34 48.73 3.04 4.87c-2.94.91-6.1 1.4-9.38 1.4v-6.12a26.668 26.668 0 0 0 6.33-.15z" data-original="#8360f4" class="" opacity="1"></path><path fill="#c9c9c9" d="M61 29c0 8.9-4.99 16.76-12.6 21.44l-1.49-2.38c-.34-.54-.71-1.06-1.11-1.56 6.7-3.2 11.2-9.17 11.2-16C57 20.28 46.93 12 34.5 12S12 20.28 12 30.5c0 7.1 4.86 13.27 12 16.37v7.12C11.87 50.89 3 40.87 3 29 3 14.64 15.98 3 32 3s29 11.64 29 26z" data-original="#8360f4" class="" opacity="1"></path><path fill="#1f89db" d="M48.4 50.44 55 61h-9l-8.82-14.12a4.023 4.023 0 0 0-3.4-1.88H32v15c0 .55-.45 1-1 1h-6c-.55 0-1-.45-1-1V20c0-.55.45-1 1-1h17c6.08 0 11 4.92 11 11v2c0 3.04-1.23 5.79-3.22 7.78S45.04 43 42 43c1.45.97 2.73 2.15 3.8 3.5.4.5.77 1.02 1.11 1.56zM45 32c0-1.38-.56-2.63-1.46-3.54-.91-.9-2.16-1.46-3.54-1.46h-8v10h8c2.76 0 5-2.24 5-5z" data-original="#6599ed" class="" opacity="1"></path><g fill="#1a1a1a"><path d="M46 32c0-3.309-2.691-6-6-6h-8a1 1 0 0 0-1 1v10a1 1 0 0 0 1 1h8c3.309 0 6-2.691 6-6zm-6 4h-7v-8h7c2.206 0 4 1.794 4 4s-1.794 4-4 4z" fill="#1a1a1a" data-original="#1a1a1a" class=""></path><path d="M32 2C15.458 2 2 14.112 2 29c0 11.771 8.601 22.24 21 25.736V60c0 1.103.897 2 2 2h6c1.103 0 2-.897 2-2v-4.037a32.6 32.6 0 0 0 7.919-1.206l4.233 6.773A1 1 0 0 0 46 62h9a1 1 0 0 0 .849-1.531l-6.082-9.731C57.44 45.659 62 37.609 62 29 62 14.112 48.542 2 32 2zm-9 18v25.286c-6.205-3.2-10-8.75-10-14.786C13 20.851 22.645 13 34.5 13S56 20.851 56 30.5c0 5.96-3.795 11.545-9.945 14.745a17.523 17.523 0 0 0-1.49-1.52C49.953 42.546 54 37.736 54 32v-2c0-6.617-5.383-12-12-12H25c-1.103 0-2 .897-2 2zm10 33.963v-4.009c.497.028.998.046 1.5.046 1.127 0 2.234-.08 3.314-.21l1.997 3.195a30.627 30.627 0 0 1-6.811.978zm0-6.019V46h.783a2.98 2.98 0 0 1 2.543 1.41l.315.503a26.02 26.02 0 0 1-3.641.031zM46.554 60l-8.532-13.65A4.97 4.97 0 0 0 33.783 44H32a1 1 0 0 0-1 1v15h-6V20h17c5.514 0 10 4.486 10 10v2c0 5.514-4.486 10-10 10a1 1 0 0 0-.555 1.832 15.636 15.636 0 0 1 4.618 4.756L53.196 60zm2.153-10.956-.948-1.516c-.145-.232-.302-.453-.457-.677C53.928 43.275 58 37.107 58 30.5 58 19.748 47.458 11 34.5 11S11 19.748 11 30.5c0 7.095 4.585 13.552 12 17.004v5.148C11.755 49.25 4 39.701 4 29 4 15.215 16.561 4 32 4s28 11.215 28 25c0 7.915-4.208 15.334-11.293 20.044z" fill="#1a1a1a" data-original="#1a1a1a" class=""></path></g></g></svg>