<svg xmlns="http://www.w3.org/2000/svg" version="1.1" xmlns:xlink="http://www.w3.org/1999/xlink" xmlns:svgjs="http://svgjs.com/svgjs" width="512" height="512" x="0" y="0" viewBox="0 0 512.001 512.001" style="enable-background:new 0 0 512 512" xml:space="preserve" class=""><g><path fill="#00ab84" d="M504.5 64.908c0-9.99-8.1-18.08-18.08-18.08H25.58c-9.98 0-18.08 8.09-18.08 18.08v225.71l23.108 21.435v.005h450.784v-.005l23.108-21.435z" data-original="#2b3890" class=""></path><path fill="#00ab84" d="M486.42 46.828h-18.352c9.98 0 18.08 8.09 18.08 18.08v242.733l18.352-17.023V64.908c0-9.99-8.1-18.08-18.08-18.08z" data-original="#242e7a" class=""></path><path fill="#dae7ef" d="M504.5 290.618v63.01c0 9.99-8.1 18.09-18.08 18.09H25.58c-9.98 0-18.08-8.1-18.08-18.09v-63.01z" data-original="#dae7ef" class=""></path><path fill="#c1d5e4" d="M486.149 290.618v63.01c0 9.99-8.1 18.09-18.08 18.09h18.352c9.98 0 18.08-8.1 18.08-18.09v-63.01z" data-original="#c1d5e4" class=""></path><path fill="#ffe6b9" d="M35.501 290.623V77.965a3.14 3.14 0 0 1 3.14-3.14H473.36a3.14 3.14 0 0 1 3.14 3.14v212.657H35.501z" data-original="#eab14d" class=""></path><path fill="#fdcc74" d="M456.909 74.825v215.797H476.5V77.965a3.14 3.14 0 0 0-3.14-3.14z" data-original="#e7a52e" class=""></path><path fill="#dae7ef" d="M354.794 465.173H157.206c-2.313 0-3.922-2.3-3.129-4.473l4.515-12.372c2.095-5.742 8.575-9.678 15.929-9.678H337.48c7.354 0 13.834 3.937 15.929 9.678l4.515 12.372c.792 2.173-.816 4.473-3.13 4.473z" data-original="#dae7ef" class=""></path><path fill="#c1d5e4" d="M301.185 371.718h-90.369c8.314 26.27.748 49.914-22.697 66.932h135.762c-23.444-17.017-31.01-40.662-22.696-66.932z" data-original="#c1d5e4" class=""></path><path fill="#98b9d3" d="M210.816 371.718c2.085 6.589 3.17 13.012 3.258 19.207h83.854c.087-6.195 1.172-12.618 3.258-19.207z" data-original="#98b9d3" class=""></path><path d="M486.42 39.328H25.58C11.476 39.328 0 50.804 0 64.908v288.72c0 14.11 11.476 25.59 25.58 25.59h179.509c4.713 20.52-1.947 38.352-19.468 51.933h-11.099c-10.554 0-19.786 5.87-22.976 14.607l-4.515 12.371a10.84 10.84 0 0 0 1.3 9.922 10.84 10.84 0 0 0 8.875 4.622h197.588c3.532 0 6.851-1.729 8.876-4.623a10.837 10.837 0 0 0 1.299-9.921l-4.515-12.37c-3.188-8.737-12.42-14.608-22.975-14.608h-11.1c-17.52-13.581-24.18-31.413-19.467-51.933h75.522c4.143 0 7.5-3.357 7.5-7.5s-3.357-7.5-7.5-7.5H25.58c-5.834 0-10.58-4.751-10.58-10.59v-55.51h482.001v55.51c0 5.839-4.747 10.59-10.581 10.59h-73.999c-4.143 0-7.5 3.357-7.5 7.5s3.357 7.5 7.5 7.5h73.999c14.105 0 25.581-11.479 25.581-25.59V64.908c0-14.104-11.476-25.58-25.581-25.58zM346.363 450.9l2.472 6.772H163.166l2.472-6.772c.861-2.36 4.189-4.75 8.884-4.75H337.48c4.694 0 8.022 2.389 8.883 4.75zm-54.781-71.682c-3.583 19.407.991 37.207 13.228 51.933h-97.618c12.236-14.726 16.811-32.525 13.228-51.933zM484 283.118V74.825c0-4.143-3.357-7.5-7.5-7.5H35.501a7.499 7.499 0 0 0-7.5 7.5v136.58c0 4.143 3.357 7.5 7.5 7.5s7.5-3.357 7.5-7.5V82.325H469v200.793H43.001v-41.726c0-4.143-3.357-7.5-7.5-7.5s-7.5 3.357-7.5 7.5v41.726H15V64.908c0-5.834 4.746-10.58 10.58-10.58h460.84c5.834 0 10.581 4.746 10.581 10.58v218.21z" fill="#000000" data-original="#000000" class=""></path><path d="M246.653 323.668c-4.143 0-7.5 3.357-7.5 7.5s3.357 7.5 7.5 7.5h18.694c4.143 0 7.5-3.357 7.5-7.5s-3.357-7.5-7.5-7.5zM99.614 174.846c4.143 0 7.5-3.357 7.5-7.5v-1.094c0-4.143-3.357-7.5-7.5-7.5s-7.5 3.357-7.5 7.5v1.094a7.5 7.5 0 0 0 7.5 7.5zM99.614 206.696c4.143 0 7.5-3.357 7.5-7.5v-1.094c0-4.143-3.357-7.5-7.5-7.5s-7.5 3.357-7.5 7.5v1.094a7.5 7.5 0 0 0 7.5 7.5zM123.937 212.024a7.5 7.5 0 0 0 10.362-2.265l29.487-45.974a7.5 7.5 0 1 0-12.627-8.097l-29.487 45.974a7.5 7.5 0 0 0 2.265 10.362zM156.296 212.024a7.5 7.5 0 0 0 10.362-2.265l29.486-45.974a7.5 7.5 0 0 0-12.627-8.097l-29.486 45.974a7.5 7.5 0 0 0 2.265 10.362zM280.152 175.926h1.056v36.59c0 4.143 3.357 7.5 7.5 7.5s7.5-3.357 7.5-7.5v-36.59h1.134c4.143 0 7.5-3.357 7.5-7.5s-3.357-7.5-7.5-7.5h-1.134v-7.993c0-4.143-3.357-7.5-7.5-7.5s-7.5 3.357-7.5 7.5v7.993h-1.056c-4.143 0-7.5 3.357-7.5 7.5s3.358 7.5 7.5 7.5zM333.031 175.926h1.056v36.59c0 4.143 3.357 7.5 7.5 7.5s7.5-3.357 7.5-7.5v-36.59h1.133c4.143 0 7.5-3.357 7.5-7.5s-3.357-7.5-7.5-7.5h-1.133v-7.993c0-4.143-3.357-7.5-7.5-7.5s-7.5 3.357-7.5 7.5v7.993h-1.056c-4.143 0-7.5 3.357-7.5 7.5s3.358 7.5 7.5 7.5zM221.78 220.016c4.143 0 7.5-3.357 7.5-7.5v-20.453c0-6.909 3.096-11.734 7.527-11.734 1.729 0 2.893.289 3.459.858.507.51 2.156 2.796 2.114 10.903l.075 20.453a7.5 7.5 0 0 0 7.499 7.473h.028a7.5 7.5 0 0 0 7.473-7.527l-.075-20.387c.053-10.167-2.006-16.997-6.48-21.494-3.484-3.503-8.227-5.279-14.093-5.279-2.678 0-5.202.48-7.527 1.366v-13.762c0-4.143-3.357-7.5-7.5-7.5s-7.5 3.357-7.5 7.5v59.583a7.5 7.5 0 0 0 7.5 7.5zM376.621 239.321c4.143 0 7.5-3.357 7.5-7.5v-17.16a25.229 25.229 0 0 0 10.383 2.23c13.996 0 25.383-11.387 25.383-25.382 0-13.996-11.387-25.383-25.383-25.383a25.22 25.22 0 0 0-11.91 2.977 7.478 7.478 0 0 0-5.972-2.977 7.499 7.499 0 0 0-7.5 7.5v58.194a7.498 7.498 0 0 0 7.499 7.501zm17.883-58.194c5.725 0 10.383 4.657 10.383 10.383 0 5.725-4.658 10.382-10.383 10.382s-10.383-4.657-10.383-10.382c0-5.726 4.658-10.383 10.383-10.383z" fill="#000000" data-original="#000000" class=""></path></g></svg>