<?xml version="1.0" encoding="UTF-8"?>
<svg id="Layer_1" xmlns="http://www.w3.org/2000/svg" version="1.1" viewBox="0 0 1132.04 1331.64">
  <!-- Generator: Adobe Illustrator 29.6.0, SVG Export Plug-In . SVG Version: 2.1.1 Build 180)  -->
  <defs>
    <style>
      .st0 {
        fill: #000001;
      }

      .st1 {
        fill: #0c0c46;
      }

      .st2 {
        fill: none;
      }

      .st3 {
        fill: #0c0c48;
      }

      .st4 {
        fill: #0c0c47;
      }
    </style>
  </defs>
  <path class="st2" d="M2458.55,1474.88H-183.92c0-547.02,0-1094.04,0-1641.05,1152.29,0,2304.58,0,3456.87,0,0,547.02,0,1094.03,0,1641.05-271.18,0-542.36,0-814.41,0M907.17,993.97c36.74-44,68.04-91.63,94.1-142.63,27.82-54.43,48.63-111.5,62.49-171.08,8.14-34.98,13.74-70.38,13.8-106.31.26-164.85.12-329.69.11-494.54,0-14.69-.18-14.87-14.48-14.87-333.48,0-666.96,0-1000.44,0-2.04,0-4.08-.05-6.11.1-6.26.46-7.68,1.76-8.17,7.82-.26,3.19-.16,6.4-.16,9.61,0,168.05-.07,336.1.12,504.15.01,13.05,1.13,26.2,2.91,39.14,9.27,67.43,29.13,131.78,57.13,193.71,45.3,100.19,109.33,186.57,191.57,259.46,75.5,66.92,161.03,117.7,253.6,157.13,6.49,2.76,12.03,2.68,18.26-.29,22.07-10.53,44.56-20.22,66.39-31.22,103.18-51.97,193.57-120.45,268.87-210.17M1441.61,733c0,35.82.11,71.63-.11,107.45-.04,6.64-.65,13.46-2.28,19.86-4.07,16.02-14.14,26.41-30.72,29.84-9.53,1.97-19.11,2.15-28.64.31-17.53-3.4-28.53-14.05-32.47-31.31-1.66-7.3-2.17-14.99-2.21-22.51-.21-40.76-.1-81.53-.1-122.3,0-2.91.09-5.83-.12-8.73-.46-6.53-1.96-8.1-8.59-8.33-6.98-.24-13.97-.13-20.96-.1-13.09.05-13.59.52-13.61,13.99-.04,37.56-.14,75.13.06,112.69.06,11.33.35,22.73,1.64,33.98,3.31,28.98,16.67,51.71,44.59,62.84,30.13,12.01,60.97,11.84,91.19-.09,20.74-8.19,34.71-23.59,40.4-45.18,3.01-11.42,4.83-23.47,4.99-35.26.58-42.8.23-85.61.23-128.41,0-2.04.05-4.08-.1-6.11-.51-6.53-1.97-8.15-8.59-8.33-8.44-.23-16.89-.22-25.33-.02-7.52.18-8.96,1.69-9.17,9.53-.21,8.15-.08,16.3-.09,26.2M1730.64,1200.56q4.87-14,19.67-14.03c20.09-.02,40.18-.01,60.27,0q14.99.01,19.64,13.84c3.35,9.93,6.66,19.87,10.16,29.75,2.9,8.16,3.57,8.64,11.85,8.77,9.02.14,18.05.16,27.08,0,8.19-.15,9.21-1.64,6.45-9.55-4.23-12.09-8.68-24.1-13.04-36.14-20.7-57.21-41.38-114.42-62.09-171.62-3.8-10.5-4.42-10.94-15.79-11.04-9.61-.08-19.22-.08-28.82,0-11.2.1-11.7.35-15.64,11.22-24.92,68.68-49.78,137.39-74.6,206.1-1.04,2.88-1.51,5.96-2.28,9.11,1.89.8,2.91,1.61,3.94,1.62,11.64.12,23.28.16,34.92.15,4.69,0,6.39-3.4,7.67-7.14,3.4-9.91,6.77-19.83,10.62-31.05M3042.05,1021.79c-.63-10.19-1.41-11.04-11.13-11.24-5.82-.12-11.64-.12-17.46,0-10.3.2-11.52,1.36-11.57,11.69-.09,19.78-.01,39.57-.07,59.35,0,3.05-.36,6.1-.65,10.72-2.81-2.48-4.24-3.74-5.66-5.01-3.26-2.89-6.23-6.19-9.82-8.59-29.03-19.47-76.92-15.74-97.74,23.95-9.32,17.77-12.26,36.85-11.79,56.61.41,17.07,3.75,33.46,11.77,48.75,23.5,44.8,82.74,42.31,107.35,15.26,1.42-1.56,3.25-2.75,5.99-5.02.31,5.53.56,9.52.74,13.52.21,4.58,2.58,6.95,7.14,7.02,6.11.1,12.22.15,18.33.14,14.34-.02,14.57-.23,14.58-14.75.02-66.92,0-133.84,0-202.41M1425.97,135.66l9.6-33.08c.7.02,1.4.03,2.09.05.98,2.92,2.09,5.81,2.93,8.77,15.53,54.31,31.02,108.62,46.53,162.93,1.2,4.2,2.18,8.51,3.92,12.48.95,2.16,2.97,4.57,5.08,5.38,10.16,3.88,17.52.03,20.47-10.39,19.3-68.06,38.56-136.13,57.82-204.21.63-2.24,1.25-4.49,1.68-6.78.64-3.42-.58-5.46-4.3-6.14-11-2-14.87.16-17.91,10.88-16.6,58.54-33.13,117.1-49.73,175.63-.41,1.43-1.39,2.69-2.8,5.33-1.38-3.82-2.38-6.18-3.08-8.62-14.44-50.37-28.84-100.76-43.27-151.14-2.41-8.4-4.73-16.83-7.56-25.08-.85-2.49-2.85-5.47-5.09-6.43-8.12-3.49-14.79.02-17.46,8.48-.44,1.39-.77,2.81-1.18,4.21-16.51,57.35-33.02,114.71-49.56,172.05-.53,1.84-1.45,3.56-3.01,7.3-1.51-4.42-2.52-6.98-3.26-9.61-15.86-56.03-31.68-112.06-47.54-168.09-.95-3.36-1.64-6.91-3.26-9.92-1.09-2.02-3.46-4.29-5.56-4.63-4.74-.77-9.77-1.54-15.26,1.44.83,3.89,1.43,7.83,2.51,11.64,18.28,64.42,36.62,128.82,54.93,193.22,1.43,5.04,2.44,10.25,4.4,15.07.97,2.37,3.32,5.07,5.64,5.86,10.69,3.62,16.99-.01,20.15-10.93,13.89-48.11,27.78-96.22,42.06-145.69M2423.5,1238.7c.8-.97,2.49-2.33,2.26-2.83-.94-2.07-2.31-4.01-3.79-5.78-19.25-22.99-38.53-45.96-57.84-68.89-8.49-10.07-8.63-10.65-.21-20.4,17.31-20.05,34.75-40,52.08-60.03,1.98-2.29,3.63-4.87,6.5-8.76-4.62-.38-7.38-.76-10.15-.79-7.57-.09-15.2.56-22.7-.18-9.83-.98-16.23,3.07-22.23,10.53-14.77,18.38-30.22,36.2-45.44,54.21-1.94,2.3-4.15,4.37-6.23,6.55-.62-.26-1.24-.52-1.87-.78-.19-3.35-.55-6.71-.56-10.06-.04-33.49-.02-66.97-.03-100.46,0-4.08.12-8.16-.12-12.23-.37-6.11-1.85-7.73-7.94-8.09-5.81-.34-11.64-.2-17.47-.18-14.31.05-14.67.39-14.67,14.78-.02,66.1,0,132.2,0,198.3,0,2.62.08,5.24.15,7.86.12,4.46,2.18,7.25,6.85,7.3,8.73.1,17.47.09,26.2.02,4.17-.04,6.43-2.38,6.75-6.48.2-2.61.23-5.23.24-7.85.02-17.47-.02-34.94.06-52.42.01-3.03.48-6.05.74-9.08.64-.2,1.28-.41,1.92-.61,2.3,2.43,4.72,4.75,6.87,7.3,17.44,20.71,34.95,41.36,52.16,62.27,4.07,4.94,8.49,7.34,14.93,7.12,10.76-.37,21.54-.16,33.54-.34M2664.57,1141.99c-.03-5.24.11-10.48-.11-15.71-1.31-31.09-16.65-49.96-47.07-56.39-9.55-2.02-19.62-1.84-29.47-2.13-14.39-.42-27.61,3.98-39.65,11.58-13.53,8.54-21.31,21.22-24.45,36.72-1.32,6.48.54,8.86,6.94,9.12,7.84.32,15.71.02,23.56.12,4.36.06,6.97-1.92,8.64-5.9,1.22-2.91,2.86-5.73,4.74-8.27,11.03-14.95,40.35-12.69,49.22-3.35,1.98,2.09,3.99,4.33,5.29,6.86,5.53,10.77,1.57,18.96-10.31,21.19-8.29,1.55-16.73,2.28-24.99,3.93-12.23,2.44-24.67,4.44-36.47,8.3-19.65,6.42-30.8,20.52-31.51,41.52-.56,16.7,3.79,31.7,18.05,42.3,20.54,15.27,61.49,13.64,79.15-6.26,2.04-2.3,4.32-4.37,8.1-8.16.28,5.62.42,8.97.62,12.32.45,7.35,1.73,8.87,8.73,9.08,7.56.23,15.14.23,22.69-.02,6.21-.21,7.63-1.74,8.17-7.81.23-2.6.15-5.23.15-7.85,0-26.48,0-52.96,0-81.18M2093.89,892.49c1.58-4.06,3.51-8.02,4.67-12.2,1.71-6.12.3-7.97-6.25-8.21-7.56-.28-15.14.11-22.7-.18-5.57-.21-9.22,1.73-11.88,6.84-5.29,10.18-14.52,14.82-25.5,16.02-4.88.53-9.91.38-14.8-.12-22.17-2.25-31.87-20.25-34.27-34.43-.94-5.56.22-6.88,5.69-7.36,2.6-.23,5.24-.13,7.85-.13,29.98,0,59.96,0,89.94-.01,2.62,0,5.24-.07,7.86-.14,4.62-.12,6.97-2.67,7.11-7.12.18-5.81.48-11.66.07-17.45-3.06-43.49-29.46-72.52-72.58-74.7-39.28-1.99-72.95,18.03-83.33,59.5-4.95,19.76-4.98,39.9.75,59.58,7.92,27.16,25.4,45.45,52.85,53.25,17.77,5.05,35.68,4.47,53.39-.89,17.43-5.27,31.3-15.15,41.12-32.26M1366.05,1067.9c-39.56,6.33-64.67,30.48-70.53,69.14-1.6,10.54-1.73,21.62-.5,32.21,3.54,30.5,18.32,53.74,47.17,66.39,19.38,8.49,39.79,9.46,59.94,4.16,26.78-7.04,45.75-23.67,54.87-50.35,7.17-21,7.59-42.4,1.59-63.66-10.13-35.89-39.68-57.95-76.95-58.09-4.66-.02-9.32.06-15.59.21M1521.58,878.06c.02,12.81-.1,25.62.12,38.42.12,7.11,1.74,8.65,8.84,9.03,5.23.28,10.48.14,15.71.13,15.43-.03,15.53-.12,15.54-15.63.02-26.78.05-53.56,0-80.34-.02-9.91,2.41-18.99,8.34-27.03,9.39-12.72,24.42-15.4,39.33-12.26,11.87,2.5,20.21,13.41,21.98,27.54.54,4.32.61,8.71.62,13.07.05,26.49.03,52.98.04,79.46,0,2.62.07,5.24.14,7.86.12,4.08,2.09,6.87,6.24,6.98,9.01.23,18.03.22,27.05.02,4.01-.09,6.43-2.43,6.59-6.66.08-2.04.17-4.07.17-6.11,0-31.73.13-63.45-.1-95.18-.05-6.94-.73-14.01-2.28-20.76-3.51-15.31-11.11-28.1-25.34-36-20.17-11.2-56.52-11.74-76.31,11.58-1.35,1.59-3.19,2.77-6.03,5.18-.22-4.86-.34-8-.5-11.14-.43-8.13-1.67-9.37-10.05-9.59-5.24-.13-10.48-.06-15.72-.04-14.07.05-14.38.3-14.39,14.06-.04,35.22-.02,70.44-.02,107.41M2371.12,837.85c-13.68-8.43-29.13-11.46-44.51-14.77-7.96-1.72-15.98-3.34-23.75-5.71-8.43-2.57-12.93-8.13-13.06-14.63-.14-6.67,4.8-12.67,13.15-15.63,7.56-2.68,15.35-3.28,23.24-1.74,9.77,1.9,17.47,6.49,20.58,16.6,1.29,4.18,3.94,6.36,8.26,6.38,8.15.06,16.32.32,24.45-.06,6.09-.29,7.68-2.51,6.65-8.6-3.08-18.24-12.66-31.95-29.83-39.21-22.3-9.44-45.45-9.84-68.46-3.07-24.21,7.12-36.52,23.2-37.89,47.63-1.1,19.62,6.1,32.22,23.86,40.61,6.01,2.84,12.42,5.01,18.85,6.76,8.41,2.29,17.1,3.59,25.53,5.83,6.72,1.78,13.46,3.83,19.77,6.68,5.6,2.53,8.9,7.34,8.73,13.96-.18,6.83-3.53,11.78-9.53,14.47-3.9,1.75-8.29,2.65-12.56,3.28-3.71.55-7.56.31-11.34.2-14.13-.41-24.84-5.93-29.14-20.32-1.43-4.78-4.47-6.36-9.09-6.29-7.57.11-15.15-.15-22.71.08-7.68.23-9.23,2.2-7.87,9.81,3.16,17.74,12.52,31,28.54,39.56,10.51,5.61,21.84,8.01,33.51,8.97,19.76,1.61,38.98-.22,56.72-10.16,29.57-16.57,34.32-59.03,7.9-80.62M2738.52,1089.38c-.2-2.89-.42-5.79-.59-8.68-.46-7.83-1.68-9.19-9.3-9.45-5.53-.19-11.06-.09-16.59-.07-13.9.05-14.26.36-14.27,14.18-.03,46.58-.01,93.17,0,139.75,0,1.75-.03,3.5.09,5.24.49,6.75,1.76,8.24,8.41,8.47,7.56.26,15.14.24,22.7.03,7.12-.2,8.47-1.71,8.9-8.92.14-2.32.08-4.66.08-6.99,0-25.04-.12-50.08.11-75.11.05-6.06.55-12.3,2.08-18.13,5.24-20.02,25.02-31.15,44.81-25.77,11.09,3.01,18.35,10.06,21.18,21.07,1.43,5.57,2,11.48,2.04,17.25.21,27.07.09,54.15.11,81.23,0,2.91.03,5.83.23,8.73.28,4.07,2.46,6.53,6.66,6.57,8.73.09,17.46.09,26.2,0,4.63-.04,6.81-2.7,6.96-7.2.06-1.75.15-3.49.15-5.24,0-32.61.37-65.22-.24-97.82-.17-9.13-2.39-18.45-5.1-27.25-4.25-13.82-13.79-23.6-27.28-28.85-18.76-7.3-37.66-7.44-55.79,1.85-5.79,2.97-10.46,8.1-15.69,12.19-1.69,1.32-3.53,2.46-5.86,2.92M1944.83,1174.49c-.1-29.11-.19-58.21-.31-87.32-.01-3.2-.03-6.41-.29-9.59-.3-3.65-2.28-6.1-6.09-6.15-9.31-.11-18.62-.1-27.92.1-3.36.07-5.22,2.33-5.56,5.64-.21,2.02-.31,4.06-.31,6.1-.01,32.31-.02,64.62.01,96.93.01,9.7,1.62,19.12,5.19,28.17,7.92,20.07,22.93,30.97,44.04,33.66,5.16.66,10.48.59,15.69.31,15.81-.86,29.37-6.64,39.78-18.96,1.21-1.43,2.67-2.64,3.95-3.89.71.66,1.08.83,1.1,1.04.3,3.46.51,6.92.83,10.37.57,6.1,1.96,7.64,8.09,7.91,6.1.27,12.22.15,18.34.12,13.17-.06,13.64-.49,13.65-13.91.03-46.57.01-93.15,0-139.72,0-2.04.05-4.08-.13-6.11-.54-6.11-1.89-7.59-8.08-7.88-6.1-.28-12.22-.16-18.34-.14-13.13.05-13.62.51-13.64,13.95-.04,26.78.17,53.56-.17,80.34-.08,6.29-1.01,12.87-3.1,18.76-5.67,15.94-20.96,24.78-38.08,22.99-15.71-1.65-24.84-10.88-28.25-28.55-.16-.85-.2-1.73-.44-4.18M2641.22,765.24c-1.58-6.29-5.46-9.02-12.07-8.7-7.55.36-15.13,0-22.69.12-2.48.04-4.94.61-8.68,1.11,1.57,5.06,2.59,9.19,4.11,13.13,18.56,48.35,37.22,96.66,55.77,145.02,1.23,3.22,2.72,6.71,2.57,10.01-.57,13.11-12.71,25.33-25.97,26.57-4.34.41-8.73.16-13.08.46-6.64.45-8.22,1.94-8.51,8.45-.24,5.52-.24,11.06-.01,16.58.29,6.93,1.88,8.76,9.13,8.64,8.7-.14,17.49-.52,26.04-1.96,19.46-3.27,33.38-14.29,41.72-32.2,1.72-3.69,3.17-7.5,4.61-11.31,21.21-56.06,42.4-112.12,63.59-168.18.72-1.91,1.48-3.8,2.14-5.72,3.06-8.93,2.12-10.41-7.06-10.6-6.69-.14-13.39-.1-20.08-.02-10.13.11-10.64.19-13.8,9.71-11.57,34.78-22.92,69.64-34.36,104.46-.95,2.89-1.95,5.77-2.93,8.65-.53-.05-1.07-.11-1.6-.16-12.77-37.59-25.54-75.18-38.84-114.04M2185.39,1068.81c-8.99-.35-18.06-1.58-26.97-.89-27.71,2.13-49.97,14.54-62.84,39.51-15.73,30.5-15.65,62.19-1.59,93.48,5.46,12.16,14.28,21.94,25.81,28.9,24.14,14.56,50.13,16.72,76.54,8.78,25.85-7.77,41.14-26.33,47.29-52.46,1.94-8.23.65-9.84-7.96-10.03-6.98-.16-13.97.1-20.95-.07-5.26-.12-9.09,1.41-10.4,7.04-.39,1.68-1.19,3.28-1.95,4.85-6.39,13.25-16.97,20.4-31.63,21.17-15.73.82-29.12-4.31-36.93-18.44-12.56-22.73-12.81-46.41-.9-69.4,10.33-19.95,35.84-26.44,55.02-15.27,8.6,5.01,13.39,12.84,16.31,21.87,1.73,5.35,4.95,7.49,10.27,7.44,6.69-.06,13.39.15,20.08.02,9.6-.19,10.99-1.8,8.7-10.96-7.46-29.93-26.02-48.65-57.89-55.54M2707.02,474.53c10.27-17.26,11.38-35.86,7.01-54.84-3.72-16.14-13.35-28.15-28.16-35.93-10.83-5.69-22.4-8.08-34.5-8.12-24.45-.08-48.91-.05-73.36-.02-14.55.01-14.81.25-14.82,14.51-.02,66.66-.01,133.33,0,199.99,0,2.33.09,4.66.17,6.98.15,4.22,2.55,6.38,6.57,6.69,2.6.2,5.24.21,7.84,0,4.01-.31,6.47-2.41,6.62-6.65.1-2.91.18-5.82.18-8.73.02-24.74-.05-49.49.07-74.23.05-9.85,1.47-11.24,11.06-11.4,9.02-.15,18.06.26,27.07-.13,7.54-.33,12.3,2.52,16.24,9.13,16.54,27.75,33.58,55.21,50.43,82.77,6.26,10.24,15.97,12.77,28.08,6.75-1.46-2.74-2.78-5.58-4.41-8.22-16.5-26.76-33.06-53.47-49.55-80.24-1.76-2.85-3.12-5.96-4.8-9.23,9.71-3.41,18.62-5.93,27-9.66,8.62-3.84,15.6-10.11,21.25-19.41M2025.36,514.55c-.75-12.47-.31-25.15-2.5-37.36-3.91-21.84-19.04-36.14-39.91-39.92-3.43-.62-6.93-1.2-10.4-1.2-20.69-.02-38.38,6.17-50.02,24.63-1.19,1.89-2.7,3.58-3.86,5.09-6.72-7.32-12.51-14.92-19.6-21.01-7.75-6.66-17.88-8.26-27.9-8.66-9.7-.39-19.1,1.27-28.03,5.38-9.12,4.19-16.05,11.03-23.01,18.67-1.13-3.96-1.05-7.62-1.59-11.18-.37-2.46-1.18-6.55-2.5-6.86-4.63-1.09-9.72-1.67-14.37-.88-4.15.7-3.87,5.29-3.9,8.77-.09,10.77-.07,21.55-.07,32.33,0,36.69-.03,73.39.04,110.08.02,9.99,2.15,11.96,11.64,11.6,7.36-.28,8.94-1.87,9.27-9.55.11-2.62.05-5.24.06-7.86,0-27.08.08-54.17-.02-81.25-.04-9.82,2.01-19.01,6.56-27.74,10.58-20.34,31.8-26.02,51.46-19.75,9.73,3.11,16.87,9.72,19.9,19.4,2.31,7.39,3.9,15.31,4.02,23.02.46,29.41.19,58.82.2,88.24,0,2.91-.18,5.87.29,8.71.31,1.85,1.43,4.86,2.55,5.04,4.74.75,9.77,1.45,14.38.57,4.11-.78,3.7-5.39,3.72-8.86.06-11.94.04-23.88.05-35.82.02-18.06-.04-36.11.1-54.17.08-10.04,2.14-19.7,7.13-28.52,8.82-15.58,25.14-22.54,45.04-19.39,14.79,2.34,25.77,13.9,28.9,31.11,1.03,5.69,1.25,11.58,1.28,17.38.13,28.25.05,56.5.08,84.75,0,2.91-.41,6.01.46,8.67.69,2.14,2.68,4.72,4.69,5.42,10.02,3.51,15.65-.62,15.83-11.11.03-1.75.02-3.49.02-5.24,0-23.59,0-47.18,0-72.51M1506.78,1055.29c-.18,2.32-.34,4.64-.55,6.96-.67,7.35-1.77,8.49-9,8.84-3.78.18-7.57,0-11.35.15-7.57.32-8.89,1.7-9.26,9.49-.12,2.61-.07,5.24-.07,7.86q.02,15.71,15.28,15.82c14.3.1,14.4.16,14.41,14.92.03,34.63,0,69.26.02,103.9,0,2.91.02,5.82.19,8.73.26,4.53,2.73,6.89,7.29,6.9,9.02.01,18.04.04,27.06-.05,4.17-.04,6.44-2.38,6.74-6.48.21-2.9.24-5.81.24-8.72.02-35.51-.02-71.01.04-106.52.02-11.76.86-12.52,12.28-12.66,5.53-.07,11.07.12,16.58-.18,5.6-.3,7.26-1.86,7.59-7.43.34-5.8.33-11.65.05-17.45-.3-6.15-1.91-7.69-7.92-8.06-4.06-.25-8.15-.12-12.22-.13-16.47-.04-17.3-.91-16.3-17.31.69-11.33,7.25-18.19,18.68-19.21,3.75-.33,7.56-.23,11.34-.13,4.37.11,6.5-1.88,6.49-6.23,0-5.53.2-11.07-.05-16.58-.31-6.68-1.54-8.17-8.06-9.27-13.13-2.22-26.16-1.71-38.71,3.07-13.21,5.02-22.98,13.9-27.09,27.67-1.97,6.61-2.37,13.69-3.73,22.11M1842.96,855.77c-5.59-16.55-11.16-33.11-16.78-49.65-4.69-13.78-9.58-27.49-14.13-41.32-1.91-5.82-5.3-8.54-11.56-8.26-6.97.32-13.97,0-20.96.07-11.08.12-11.85,1.21-7.85,11.66,8.1,21.21,16.3,42.39,24.46,63.58,10.79,27.98,21.77,55.88,32.25,83.98,2.66,7.13,6.73,10.28,14.23,9.85,6.09-.35,12.24-.33,18.34,0,7.14.38,11.06-2.54,13.62-9.38,18.51-49.65,37.37-99.17,56.03-148.76,1.07-2.84,1.45-5.94,2.36-9.83-3.58-.46-6.07-.99-8.58-1.06-5.24-.15-10.48-.1-15.72-.06-16.59.14-15.44-1.41-20.76,14.69-10.97,33.17-21.83,66.37-32.83,99.52-.82,2.47-.7,5.84-5.03,7.2-2.3-7.21-4.49-14.06-7.09-22.23M1967.12,207.35c-.53-4.92-.92-9.86-1.6-14.75-5.42-38.84-31.82-69.68-75.12-66.92-18.41,1.17-33.68,8.34-45.42,22.72-2.13,2.61-4.21,5.25-6.32,7.87-.58-.15-1.16-.3-1.74-.45-.24-2.73-.58-5.45-.7-8.18-.16-3.78.29-7.64-.37-11.32-.41-2.28-1.86-5.29-3.72-6.25-8.98-4.61-16.7.35-16.93,10.46-.05,2.04-.03,4.08-.03,6.11,0,63.47,0,126.95,0,190.42,0,2.62-.06,5.25.07,7.86.37,7.17,1.88,8.7,8.79,9.14,9.68.62,11.91-1.4,12.12-11.07.06-2.62.02-5.24.02-7.86,0-20.38-.04-40.76.06-61.14.01-2.89-.94-6.2,1.93-8.87,4.34,4.95,7.95,9.94,12.4,14.01,33.15,30.35,86.33,19.7,106.28-21.04,7.62-15.55,9.82-32.15,10.26-50.74M2584.59,909.43c.16-17.3-.57-16.44-16.24-16.65-13.3-.18-19.91-6.4-20.17-19.96-.48-24.72-.29-49.46-.13-74.19.05-7.08,1.78-8.5,9.04-8.73,6.98-.22,13.97.05,20.94-.25,5.64-.24,7.33-1.83,7.68-7.34.35-5.51.32-11.06.07-16.57-.29-6.49-1.9-8.09-8.52-8.47-5.51-.32-11.05-.12-16.58-.2-11.53-.16-12.61-1.18-12.75-12.4-.09-7.27.09-14.55-.12-21.82-.22-7.6-1.66-9.03-9.44-9.33-6.39-.24-12.8-.19-19.2-.06-10.11.21-11.3,1.47-11.44,11.89-.11,7.56.11,15.14-.18,22.69-.27,7.04-1.86,8.46-9.02,8.93-3.77.25-7.56.16-11.34.36-4.38.23-7.18,2.34-7.25,7-.1,6.11-.15,12.22,0,18.32.11,4.49,2.54,6.95,7.15,7.03,3.2.05,6.4.08,9.6.16,9.76.24,10.75,1.27,10.98,11.31.04,1.75.02,3.49.02,5.24,0,23.28-.22,46.56.15,69.83.11,7.19,1.24,14.5,2.95,21.51,3.39,13.9,12.8,22.54,26.18,26.81,10.97,3.5,22.27,4.09,33.67,2.54,12.76-1.74,13.71-2.86,13.96-17.64M2184.06,267.29c.54.69,1.12,1.35,1.61,2.06,25.75,37.53,88.55,37.03,112.18-6.71,17.94-33.22,17.92-68.03,1.19-101.5-23.25-46.52-89.09-46.53-113.99-7.83-1.02,1.59-2.53,2.87-3.81,4.3-.57-.1-1.13-.21-1.7-.31-.15-6.23-.21-12.47-.48-18.7-.33-7.79-1.85-9.23-9.32-9.35-8.02-.13-9.77,1.48-10.19,9.38-.08,1.45-.06,2.91-.06,4.36,0,65.76,0,131.51,0,197.27,0,2.61-.3,5.37.42,7.8.58,1.97,2.12,4.35,3.88,5.16,8.42,3.88,15.01-.37,15.31-9.52.05-1.45.03-2.91.03-4.36,0-20.95,0-41.9.02-62.85,0-2.61-.11-5.31.5-7.8.23-.94,2.36-1.42,4.39-1.4M1587.44,239.77c-.21,4.06-.89,8.15-.56,12.16,1.29,15.64,7.37,28.57,21.57,36.75,22.26,12.82,61.78,10.2,79.94-14.91,1.79-2.47,3.78-4.8,5.68-7.19.6.18,1.2.35,1.8.53.17,5.38.1,10.78.61,16.12.26,2.72,1.04,7.23,2.52,7.64,4.53,1.28,9.64,1.78,14.28,1.05,4.17-.65,3.98-5.16,4.02-8.67.06-5.82.05-11.64.05-17.46,0-27.94.23-55.88-.1-83.81-.37-31.32-17.29-50.72-48.27-55.46-11.54-1.76-23.27-1.82-34.69,1.13-21.52,5.57-35.59,18.86-41.24,40.66-2.49,9.63-1.36,13.43,11.5,12.68,5.49-.32,7.21-3.78,8.35-8.42,3.25-13.22,11.5-22.1,24.44-26.15,14.49-4.53,28.69-3.58,42.26,3.68,7.6,4.07,12.46,10.4,15,18.49,5.14,16.4.16,24.35-16.72,26.87-12.37,1.84-24.81,3.31-37.14,5.44-8,1.38-16.1,2.93-23.71,5.65-15.11,5.39-26.04,15.2-29.6,33.22M2341.31,224.54c-2.08,6.91-5.53,13.74-5.97,20.75-1.12,17.98,4.75,33.29,21.04,43.07,21.39,12.84,63.27,12.67,83.14-18.5,1-1.57,2.36-2.9,3.55-4.34.58.14,1.16.28,1.74.41,0,6.03-.18,12.06.05,18.07.27,7.24,2.19,8.83,9.85,8.93,8.12.1,10.25-1.64,10.55-9.12.21-5.24.09-10.48.09-15.73,0-29.71.22-59.42-.1-89.13-.24-22.96-10.76-39.85-32.47-48.12-20.93-7.98-42.34-8.14-62.91,1.46-16.78,7.83-25.95,21.93-29.31,39.94-.62,3.31-.67,6.45,3.13,8.11,7.68,3.36,15.29-.03,17.46-7.96,3.3-12.05,10.44-20.63,22.26-25.08,14.37-5.4,28.67-4.86,42.45,1.61,9.42,4.43,15.46,12.15,17.85,22.48,3.27,14.15-1.19,21.05-15.35,23.7-1.72.32-3.46.48-5.19.74-14.68,2.22-29.43,4.09-44.03,6.76-14.64,2.67-27.94,8.26-37.83,21.95M1524.83,509.03c-2.88.42-5.76.82-8.64,1.27-12.64,1.96-25.42,3.24-37.4,8.3-18.77,7.93-27.06,20.21-27.12,40.53,0,1.75-.03,3.5.05,5.24.74,16.96,8.7,29.63,23.96,36.68,7.23,3.34,15.53,5.52,23.47,5.98,22.11,1.27,41.43-5.07,54.95-24.05,1.26-1.77,2.88-3.3,5.61-6.38.32,4.58.59,7.33.7,10.1.13,3.49.09,6.99.21,10.48.12,3.25,1.65,5.42,4.88,6.42,10.15,3.12,15.73-.79,15.92-11.26.02-.87.01-1.75.01-2.62,0-31.15.03-62.31-.03-93.46,0-4.65-.02-9.36-.71-13.94-2.87-19.06-12.91-32.84-30.97-40.12-17.34-6.99-35.31-7.57-53.14-2.68-20.36,5.59-33.8,18.73-39.09,39.56-2.86,11.25-.02,14.28,11.58,13.07,5.53-.58,7.05-4.05,8.26-8.58,4.4-16.51,15.69-25.06,32.15-27.99,8.27-1.47,16.3-.72,24.22,1.21,16,3.92,26.59,17.16,26.64,32.59.03,9.73-3.01,14.03-12.45,16.08-7.09,1.54-14.36,2.25-23.07,3.58M2092.43,274.44c2.05-2.53,4.09-5.06,6.14-7.6.66.26,1.33.52,1.99.78,0,5.77-.02,11.54,0,17.31.02,3.06.75,5.77,3.87,7.22,9.19,4.26,16.81-.48,17.02-10.62.03-1.46.02-2.91.02-4.37,0-30.87.01-61.74-.02-92.62,0-3.78-.01-7.59-.38-11.34-1.66-17.1-9.65-30.31-24.6-39.03-19.65-11.46-57.94-13.13-79.8,3.91-11.64,9.07-17.78,21.25-20.1,35.61-.54,3.32.16,5.7,3.59,6.89,8.29,2.88,14.71-.28,17.34-8.66,4.82-15.37,15.21-24.2,31-27.26,8.23-1.6,16.27-.99,24.25.78,18.01,4,28.96,18.63,27.61,36.03-.49,6.35-3.67,10.26-9.49,12.18-2.47.81-5.06,1.38-7.65,1.75-12.96,1.9-25.94,3.69-38.91,5.53-11.92,1.69-23.37,4.75-33.79,11.09-6.92,4.21-12.49,9.6-15.4,17.27-4.94,13.05-4.95,26.22.06,39.24,3.36,8.73,9.41,15.31,17.47,20.03,22.87,13.39,61.61,9.47,79.76-14.12M2755.64,460.46c-5.25,7.24-7.95,15.48-9.49,24.18-.58,3.28.25,5.72,3.6,6.96,8.17,3.04,15.03-.15,17.43-8.49,3.46-12.04,10.82-20.56,22.5-24.96,13.07-4.92,26.34-4.57,39.27.49,10.36,4.06,17.71,11.57,20.13,22.56,4.28,19.44-3.23,23.72-16.98,25.37-.87.1-1.75.13-2.61.27-17.51,2.92-35.42,4.39-52.44,9.09-31.53,8.71-37.16,26.44-35.5,49.15,1.23,16.84,9.19,29.46,24.61,36.34,6.78,3.02,14.44,5.04,21.84,5.53,22.46,1.51,42.06-4.7,55.87-23.93,1.28-1.78,2.88-3.33,5.62-6.46.33,4.56.61,7.31.72,10.07.14,3.49.09,6.99.21,10.48.11,3.24,1.6,5.44,4.84,6.46,10.11,3.16,15.77-.78,15.97-11.2.01-.58.01-1.16.01-1.75,0-32.04.02-64.08-.03-96.11,0-4.07-.06-8.19-.68-12.2-3-19.41-13.34-33.2-31.81-40.47-15.67-6.17-31.87-6.66-48.13-3.39-13.82,2.79-25.65,9.33-34.94,22M2453.31,597.54c.05-35.8.11-71.6.13-107.41,0-2.32-.19-4.66-.49-6.96-2.62-19.92-13.12-33.86-31.87-41.29-17.13-6.79-34.79-7.1-52.31-2.4-20.46,5.49-33.76,18.81-39.09,39.54-2.95,11.47.59,14.93,12.37,13.02,5.12-.83,6.27-4.4,7.37-8.48,3.07-11.34,9.81-19.9,20.6-24.54,14.35-6.17,29.02-5.79,43.22.56,13,5.81,20.12,18.61,19.16,32.46-.46,6.61-3.63,10.9-9.9,12.84-2.21.69-4.5,1.23-6.8,1.56-12.96,1.89-26.02,3.23-38.86,5.68-9.65,1.84-19.34,4.31-28.47,7.88-10.32,4.03-18.46,11.33-22.08,22.25-3.86,11.64-3.79,23.52.02,35.19,3.21,9.81,9.62,17.22,18.53,22.34,23.35,13.43,63.96,9.61,80.99-16.28,1.33-2.02,3.13-3.72,4.71-5.57,1.73,6.01,1.59,11.47,2.14,16.86.27,2.68,1.1,6.65,2.9,7.52,3.15,1.53,7.24,1.42,10.95,1.46,3.08.04,5.63-1.4,6.77-6.23M2140.24,437.6c-8.14-.22-16.33-1.13-24.4-.54-25.8,1.88-45.47,18.08-51.33,41.55-3.05,12.22.36,15.68,12.64,13.37,5.18-.98,6.04-4.78,7.1-8.76,3.32-12.48,11.09-21.1,23.19-25.32,13.12-4.57,26.44-4.37,39.25,1.15,13.29,5.73,19.99,16.46,21.05,30.71.57,7.67-3.08,12.69-10.54,15.07-2.48.79-5.08,1.31-7.66,1.68-12.97,1.89-26.06,3.13-38.88,5.7-9.91,1.99-19.89,4.67-29.14,8.68-33.51,14.55-27.6,63.6-4.83,77.14,9.6,5.71,19.75,8.99,30.58,9.21,23.17.48,43.05-6.5,55.89-27.47.81-1.33,2.12-2.36,4.41-4.85.29,4.47.56,7.27.64,10.06.12,3.78-.19,7.61.26,11.34.26,2.12,1.3,5.57,2.61,5.89,4.07.99,8.57,1.52,12.66.8,4.25-.75,4.11-5.11,4.11-8.62.02-36.12.35-72.24-.18-108.35-.24-16.38-7.79-29.61-21.61-38.92-7.38-4.97-15.56-7.84-25.8-9.54M2218.32,755.75c-9.06.71-18.36,1.49-25.79,7.04-7.03,5.25-13.08,11.81-20.32,18.49-.2-5.77-.24-11.18-.61-16.56-.42-6.14-1.94-7.79-7.99-7.99-8.14-.27-16.31-.25-24.46-.04-7.1.19-8.44,1.72-8.89,8.94-.11,1.74-.08,3.49-.08,5.24,0,46.88,0,93.77,0,140.65,0,2.33.07,4.66.16,6.98.15,4.13,2.32,6.73,6.43,6.82,9.31.22,18.63.22,27.94.07,4.53-.08,6.82-2.78,6.9-7.32.05-2.91.12-5.82.13-8.73.03-23.88-.24-47.76.14-71.63.35-21.93,15.09-38.79,36.64-42.65,4.27-.77,8.65-1.12,12.99-1.33,6.49-.31,7.56-1.03,7.79-7.6.24-6.69.21-13.4.03-20.09-.21-8.23-.82-8.76-11.01-10.29M2490.22,1101.76c0-16.29,0-32.58,0-48.87,0-9.02.03-18.04-.01-27.05-.06-14.04-.54-14.49-14.96-14.57-3.2-.02-6.4-.01-9.6,0-15.87.05-16.04.19-16.04,16.1-.01,65.45,0,130.91,0,196.36,0,1.75-.03,3.49.05,5.24.35,8.4,1.5,9.66,9.68,9.92,5.52.17,11.05.09,16.58.06,13.93-.05,14.28-.35,14.29-14.13.04-40.44.02-80.87.02-123.06M2908.3,444.11c-.26,2.01-.75,4.02-.75,6.03-.04,32.3-.41,64.61.23,96.9.18,9.12,2.52,18.46,5.37,27.2,4.35,13.35,13.74,22.77,26.69,28.39,19.68,8.54,55.35,8.64,75.52-18.99,1.08-1.48,2.57-2.66,3.9-4.01.69.73,1.04.93,1.05,1.14.3,4.91.5,9.82.84,14.73.45,6.51,1.99,7.99,8.55,8.47,9.72.71,12.1-1.37,12.34-10.83.02-.87.02-1.75.02-2.62,0-45.4,0-90.79,0-136.19,0-2.33-.04-4.66-.18-6.98-.27-4.5-2.61-6.93-7.21-6.98-1.75-.02-3.5-.13-5.23-.03-6.22.39-7.69,1.73-8.2,7.77-.25,2.89-.16,5.82-.16,8.72-.03,26.48.28,52.97-.15,79.44-.48,29.04-18.67,49.58-46.17,52.02-19.05,1.69-38.31-6.42-44.01-29.92-1.49-6.15-2.1-12.64-2.16-18.99-.23-28.23-.09-56.45-.12-84.68,0-2.91.38-6.01-.52-8.65-.72-2.11-2.89-4.88-4.79-5.22-4.71-.82-9.87-1.92-14.85,3.25M1747.37,603.86c4.62-.47,6.53-3.27,6.58-7.67.02-1.75.09-3.49.09-5.24,0-45.69.01-91.38,0-137.07,0-2.61.27-5.38-.48-7.8-.61-1.96-2.21-4.35-3.99-5.1-9.45-3.99-15.87.4-16.09,10.65-.06,2.62-.03,5.24-.03,7.86,0,23.28.16,46.57-.11,69.85-.08,6.93-.64,14.02-2.22,20.75-6.61,28.08-32.66,43.69-60.68,36.82-10.48-2.57-18.28-8.51-23.44-18.05-5-9.24-6.56-19.16-6.54-29.49.04-28.23.02-56.46-.02-84.69,0-2.91-.03-5.83-.39-8.71-.41-3.26-2.42-5.28-5.8-5.45-2.9-.14-5.82-.14-8.71.04-3.34.22-5.33,2.14-5.73,5.49-.24,2.02-.34,4.06-.34,6.09-.01,30.27-.03,60.53.02,90.8.02,11.16,1.77,22.03,6.05,32.4,4.35,10.56,11.32,18.9,21.2,24.72,21.06,12.39,62.06,11.8,81.91-18.05.88-1.32,2.04-2.45,3.07-3.67.6.13,1.19.26,1.79.39,0,5.42-.17,10.85.04,16.27.27,7.1,1.61,8.34,8.89,8.98,1.15.1,2.33,0,4.93-.13M1367.78,409.89c0,59.36,0,118.72.01,178.08,0,3.2-.28,6.48.36,9.57.42,2,1.85,4.5,3.56,5.4,8.99,4.73,16.84-.08,17.05-10.14.05-2.33.02-4.66.02-6.98,0-57.61,0-115.23,0-172.84,0-3.2-.09-6.41.12-9.6.44-6.7,1.77-8.13,8.48-8.4,6.39-.26,12.8-.11,19.2-.12,12.22-.03,24.44-.03,36.66-.07,3.28,0,6.48-.28,8.12-3.81,3.82-8.2-.46-15.06-9.57-15.34-1.16-.04-2.33-.03-3.49-.03-46.56,0-93.11,0-139.67,0-2.62,0-5.3-.18-7.83.33-1.83.37-4.07,1.33-5.05,2.77-4.74,6.91-.24,15.67,8.06,16.07,2.03.1,4.07.06,6.11.06,15.42,0,30.84-.05,46.27.04,10.52.06,11.16.81,11.58,11.61.02.58.01,1.16.02,3.41M1733.83,925.63c12.7-.37,13.12-.8,13.21-13.57,0-.29,0-.58,0-.87,0-46.55,0-93.09,0-139.64,0-2.33.07-4.67-.14-6.98-.54-6.08-1.96-7.59-8.13-7.86-6.1-.26-12.22-.14-18.32-.11-13.11.06-13.59.5-13.6,13.95-.03,47.13-.01,94.25-.01,141.38,0,1.16-.01,2.33.03,3.49.32,8.58,1.58,9.87,10.47,10.15,4.94.16,9.89.05,16.49.06M2457.02,883.3c0-36.65,0-73.29,0-109.94,0-2.91.08-5.83-.15-8.72-.49-6.12-1.87-7.61-8.04-7.9-6.1-.29-12.21-.16-18.32-.14-13.16.05-13.68.53-13.69,13.87-.03,47.12-.01,94.23-.01,141.35,0,1.74-.04,3.5.08,5.23.46,6.5,1.92,8.18,8.53,8.43,7.55.28,15.13.29,22.68,0,7.08-.27,8.66-1.91,8.81-9.03.23-10.47.09-20.94.11-33.16M2261.31,559.57c0-29.71-.06-59.41.05-89.11.04-9.82,1.47-11.14,11.12-11.37,6.99-.16,13.99.13,20.96-.29,6.08-.36,7.63-2.63,7.55-9.33-.08-6.69-1.65-8.76-7.82-9.05-6.68-.31-13.39-.1-20.09-.18-10.49-.13-11.58-1.17-11.74-11.47-.12-7.86.18-15.74-.27-23.58-.15-2.58-1.36-6.16-3.29-7.38-8.18-5.19-17.24-.08-17.43,9.5-.16,8.15.09,16.31-.21,24.46-.25,6.66-1.78,8.03-8.5,8.39-4.65.25-9.34-.07-13.97.32-5.46.45-6.9,2.55-7,8.96-.09,6.42,1.32,8.7,6.63,9.3,4.32.49,8.73.19,13.09.4,8.14.4,9.45,1.77,9.83,9.99.09,2.03.06,4.08.06,6.11,0,27.08,0,54.17.01,81.25,0,4.66-.13,9.34.21,13.97,1.31,17.71,10.13,28.76,26.23,32.96,8.85,2.31,17.83,2.64,26.83.96,6.04-1.13,7.79-3.77,7.4-10.7-.32-5.77-1.86-7.32-8.23-7.76-4.64-.32-9.33-.11-13.95-.6-8.84-.94-14.3-6.09-16.39-14.61-.75-3.07-.73-6.33-1.08-11.13M1775.03,222.69c0-27.64.05-55.28-.07-82.92-.04-9.13-1.9-10.71-10.81-10.55-7.73.14-9.18,1.49-9.64,9.1-.1,1.74-.07,3.49-.07,5.24,0,45.1,0,90.19,0,135.29,0,2.62-.3,5.36.37,7.81.55,2.01,1.94,4.49,3.67,5.36,8.75,4.43,16.43-.26,16.49-9.97.12-19.2.05-38.4.05-59.35M2460.44,713.55c-.06-1.74.02-3.51-.21-5.23-1.46-10.99-9.85-18.71-21.22-19.64-11.53-.95-21.62,5.88-24.63,16.66-3.22,11.53,1.03,22.91,10.44,27.96,16.16,8.69,32.71.2,35.63-19.75M1720.18,735.77c2.59.26,5.19.86,7.75.71,11.57-.69,20.19-8.52,22.12-19.83,1.86-10.89-3.64-21.63-13.27-25.88-10.28-4.54-22.24-1.72-29.13,6.85-10.05,12.51-4.6,30.9,12.52,38.15M1769.32,71.11c-2-.17-4.03-.64-6.01-.47-8.64.72-14.78,8.43-13.56,16.83,1.25,8.67,8.69,14.13,17.52,12.85,8.4-1.21,13.96-9.33,12.23-17.87-1.06-5.2-4.01-8.86-10.17-11.33Z"/>
  <path class="st3" d="M906.76,994.43c-74.9,89.25-165.28,157.73-268.46,209.7-21.83,11-44.32,20.69-66.39,31.22-6.23,2.97-11.77,3.05-18.26.29-92.57-39.43-178.1-90.21-253.6-157.13-82.24-72.89-146.27-159.26-191.57-259.46-28-61.93-47.86-126.29-57.13-193.71-1.78-12.94-2.9-26.09-2.91-39.14-.19-168.05-.13-336.1-.12-504.15,0-3.2-.1-6.42.16-9.61.49-6.06,1.91-7.35,8.17-7.82,2.03-.15,4.08-.1,6.11-.1,333.48,0,666.96,0,1000.44,0,14.3,0,14.48.18,14.48,14.87.01,164.85.15,329.69-.11,494.54-.06,35.94-5.67,71.33-13.8,106.31-13.86,59.58-34.67,116.64-62.49,171.08-26.07,51-57.36,98.63-94.51,143.1M611.31,1137.62s-.1.02-.08-1.38c-1.43-5.33-2.68-10.71-4.32-15.98-2.95-9.44-6.29-18.76-9.17-28.23-3.51-11.56-3.32-11.9,6.19-18.91,9.84-7.24,19.78-14.36,29.62-21.61,2.43-1.79,4.63-3.89,6.94-5.84-.23-.63-.45-1.26-.68-1.88-3.05-.19-6.1-.54-9.15-.55-13.1-.07-26.19.04-39.29-.09-8.85-.08-9.69-.65-12.52-9.07-4.36-12.96-8.43-26.02-12.72-39.01-.76-2.3-1.98-4.44-3.79-8.44-1.8,4.52-2.98,7.08-3.86,9.73-4.14,12.42-8.12,24.9-12.33,37.3-3.02,8.88-3.78,9.41-13.13,9.49-13.1.11-26.19,0-39.29.08-2.99.02-5.98.45-8.98.69,1.86,3.6,3.98,5.49,6.25,7.16,10.79,7.92,21.68,15.71,32.43,23.68,7.46,5.53,7.52,5.86,4.77,14.51-3.97,12.48-8.05,24.92-12.02,37.4-.84,2.63-1.37,5.36-2.11,8.31,4.68,1.17,6.82-1.67,9.25-3.41,10.89-7.78,21.76-15.6,32.48-23.62,4.65-3.48,8.77-3.6,13.41.01,5.97,4.65,12.17,9,18.37,13.33,7.85,5.48,15.81,10.82,23.72,16.3M719.01,577.94c2.45-1.56,4.97-3.02,7.32-4.71,10.87-7.81,21.68-15.72,32.56-23.52,7.05-5.06,7.17-5.08,14.47.12,10.9,7.77,21.7,15.69,32.59,23.47,2.43,1.73,5.08,3.15,7.63,4.71.64-3.99.03-6.73-.82-9.4-3.88-12.2-7.85-24.37-11.76-36.57q-3.35-10.47,5.83-17.19c10.1-7.39,20.25-14.71,30.33-22.13,2.22-1.63,4.19-3.6,6.27-5.41-.18-.64-.35-1.28-.53-1.92-3-.31-6-.85-9-.88-12.52-.11-25.03.01-37.55-.09-10.39-.09-11.31-.83-14.37-10.29-4.03-12.46-8.01-24.94-12.08-37.39-.84-2.57-1.99-5.04-3.77-9.5-1.72,4.24-2.68,6.28-3.38,8.4-4.19,12.71-8.3,25.46-12.49,38.17-3.21,9.74-4.15,10.51-14.21,10.61-12.81.12-25.62-.02-38.42.12-2.96.03-6.38-.88-9.09,2.7,1.88,1.67,3.44,3.31,5.23,4.63,11.03,8.09,22.15,16.06,33.16,24.17,7.02,5.17,7.39,6.3,4.72,14.71-3.7,11.65-7.71,23.2-11.29,34.89-1.26,4.11-1.66,8.49-2.55,12.71,0,0,.05-.01,1.19-.39M311.94,578.07c13.26-9.47,26.51-18.95,39.78-28.39,7-4.98,7.48-5.03,14.55.04,10.88,7.8,21.63,15.78,32.49,23.6,2.43,1.75,5.1,3.17,9.43,5.84-1.13-4.73-1.57-7.22-2.32-9.61-3.79-11.93-7.63-23.83-11.51-35.73q-3.97-12.2,6.64-19.96c9.64-7.02,19.33-13.99,28.95-21.05,2.22-1.63,4.25-3.52,6.36-5.29-.17-.67-.33-1.34-.5-2.02-2.97-.34-5.95-.95-8.92-.98-12.81-.12-25.61.02-38.42-.12-9.29-.1-10.19-.76-13.14-9.52-4.45-13.24-8.71-26.55-13.15-39.79-.65-1.94-1.85-3.69-3.57-7.03-1.7,4.41-2.83,7.04-3.73,9.74-4.03,12.15-7.91,24.36-12,36.49-3.14,9.32-4.07,10.01-13.68,10.11-12.81.14-25.61,0-38.42.11-2.99.03-5.98.56-8.97.87-.18.67-.37,1.34-.55,2.01,2.37,1.95,4.66,4.03,7.14,5.84,7.99,5.84,16.13,11.47,24.05,17.39,15.73,11.75,15.91,8.32,9.32,28.99-4.06,12.73-7.67,25.61-11.53,38.64,0,0,.57.27,1.68-.18M594.53,412.52c19.91-3.26,37.42-12.53,54.92-21.85,45.5-24.24,92.23-26.18,139.84-6.97,9.14,3.69,17.83,8.61,26.44,13.46,23.5,13.24,49.04,18.39,75.57,18.4,27.52,0,53.62-6.37,77.78-20.12,21.75-12.38,44.78-21.27,70.09-22.44,14.88-.68,14.46-2.44,14.46-16.33,0-83.89,0-167.77,0-251.66q0-16.46-16.56-16.5c-316.32,0-632.64,0-948.96,0q-16.61,0-16.65,16.42c-.01,83.89,0,167.77,0,251.66,0,1.75-.02,3.5.04,5.24.31,8.93,1.39,10.3,10,10.76,24.27,1.3,46.98,7.79,68.2,19.69,23.41,13.14,48.07,21.78,75.33,22.8,26.66,1,52.28-2.22,76.4-14.13,10.44-5.16,20.67-10.75,31.12-15.89,23.33-11.48,48.28-14.81,73.92-13.9,27.06.96,52.09,9,75.33,22.73,34.69,20.51,72.04,25.16,112.75,18.62M807.78,642.52c-3.55-3.67-7.75-1.56-11.57-1.02-24.65,3.49-48.76,1.62-72.28-6.71-6.3-2.23-12.57-4.59-18.76-7.13-17.45-7.17-35.6-11.35-54.43-10.58-25.82,1.06-49.5,9.4-71.62,22.74-6.75,4.07-9.73,8.82-9.71,16.82.23,65.18.12,130.37.16,195.56,0,2.74.52,5.49.95,9.7,4-2.44,6.67-4.01,9.28-5.67,43.62-27.67,88.64-30.82,135.18-7.78,4.69,2.32,9.37,4.71,14.18,6.77,21.31,9.12,43.01,12.09,65.39,3.94,14.08-5.13,14.39-5.42,14.39-20.72.01-61.4.02-122.8-.02-184.21,0-3.48-.38-6.96-1.15-11.71M511.44,839.81c7.23,3.04,14.66,5.7,21.65,9.22,7.09,3.57,13.75,7.99,21.75,12.72.31-4.53.68-7.37.68-10.21.03-64.91.02-129.81.02-194.72,0-.87-.09-1.75-.02-2.62.49-5.89-1.88-10.19-7.21-12.73-12.57-6.01-24.88-12.71-37.85-17.72-14.2-5.48-29.36-7.5-44.61-6.61-17.56,1.03-34.34,5.5-50.61,12.4-27.29,11.58-55.63,16.62-85.31,12.02-14.12-2.18-14.2-1.99-14.21,12.2-.02,61.99,0,123.99,0,185.98,0,1.75.15,3.5.04,5.24-.34,5.72,2.38,8.94,7.56,11.32,17.66,8.11,35.99,10.01,54.5,4.83,11.4-3.19,22.58-7.8,33.18-13.11,32.01-16.06,64.92-19.07,100.44-8.22M816.18,892.73c-28.73,12.84-58.07,14.12-87.66,3.68-12.32-4.35-24.27-9.82-36.16-15.27-14.89-6.82-30.25-10.17-46.65-8.6-28.36,2.72-49.72,18.4-69.41,37.21-.53.51-.6,1.52-1.3,3.45,3.5.26,6.53.5,9.57.7,3.19.21,6.44.07,9.56.68,3.41.66,5.84,2.86,5.7,6.67-.14,3.76-2.5,5.72-6.11,6.24-1.15.17-2.32.27-3.48.27-18.35.02-36.7.03-55.05,0-1.45,0-2.92-.12-4.34-.37-3.24-.55-5.31-2.52-5.65-5.77-.39-3.79,1.82-6.28,5.27-6.94,3.68-.7,7.52-.49,11.29-.82,2.95-.26,6.28.86,9.51-2.34-5.9-5-11.34-9.73-16.9-14.31-33.48-27.61-69.46-33.3-108.71-12.8-8.49,4.43-17.42,8.19-26.47,11.34-18.92,6.6-38.32,9.39-58.45,6.36-18.49-2.79-35.05-10.44-51.43-18.82-13.71-7.02-13.33-5.31-13.34-21.9-.02-62.62,0-125.25-.02-187.87,0-3.2.06-6.44-.43-9.58-.51-3.22-3.26-4.45-5.77-2.4-1.83,1.5-3.43,3.98-3.91,6.28-.71,3.36-.39,6.95-.4,10.44-.02,50.1-.01,100.2,0,150.3,0,15.44.14,30.88-.01,46.31-.06,5.6,1.99,9.29,7.16,11.73,10.26,4.86,20.24,10.32,30.53,15.12,33.45,15.62,67.54,16.23,101.87,3.3,10.33-3.89,20.31-8.76,30.32-13.44,22.99-10.76,46.2-10.85,69.4-1.17,7.1,2.96,14.15,6.56,19.28,13.36-2.01,2.22-3.82,4.06-5.45,6.05-8.44,10.22-4.59,23.96,8.08,28.08,3.53,1.15,7.43,1.58,11.17,1.62,16.31.17,32.62.17,48.93,0,3.74-.04,7.63-.43,11.19-1.51,13.34-4.06,17.39-19.02,7.96-29.23-1.51-1.63-3.97-2.39-6.33-3.75,2.88-3.07,3.85-4.55,5.2-5.47,26-17.78,53.6-21.41,82.83-8.93,8.83,3.77,17.29,8.42,26.18,12.04,34.66,14.11,69.54,16.17,104.41.76,9.58-4.24,18.62-9.74,28.33-13.63,9.78-3.92,13.11-10.04,13.03-20.66-.47-64.08-.23-128.16-.24-192.24,0-2.91.12-5.85-.23-8.73-.24-1.94-.73-4.25-1.98-5.55-1.19-1.23-3.61-1.96-5.33-1.73-1.07.15-2.41,2.41-2.63,3.88-.47,3.14-.35,6.39-.35,9.59-.01,61.46-.01,122.92-.01,184.37,0,3.2-.2,6.42-.01,9.61.37,6.05-2.38,9.76-7.81,12.24-7.94,3.64-15.68,7.71-24.72,12.12M801.58,883.15c8.95-4.17,17.88-8.38,26.86-12.49,4.54-2.08,6.46-5.58,6.29-10.45-.06-1.74.05-3.49.05-5.24,0-63.75,0-127.5-.01-191.25,0-2.91.08-5.86-.38-8.71-.78-4.85-2.19-5.67-9.38-5.86-.25,3.92-.73,7.89-.73,11.85-.05,61.13-.03,122.26-.04,183.39,0,3.49-.1,6.98-.11,10.48-.01,4.17-1.85,7.01-5.56,9.11-27.39,15.47-55.91,19.06-85.65,7.89-9.78-3.68-19.27-8.2-28.73-12.69-26.93-12.79-54.65-15.47-83.24-6.68-17.18,5.28-32.71,13.71-46.13,25.78-5.77,5.19-6.15,7.36-2.57,15.2,4.43-3.5,8.61-6.9,12.89-10.16,35.77-27.25,74.15-33.07,115.52-13.98,5.81,2.68,11.46,5.73,17.33,8.28,26.7,11.64,53.95,16.47,83.58,5.54M301.75,839.57c0-59.37,0-118.75-.01-178.12,0-3.2.1-6.44-.4-9.58-.58-3.64-3.56-4.89-6.37-2.58-1.61,1.33-2.93,3.61-3.34,5.67-.62,3.09-.4,6.37-.4,9.57-.02,63.16-.01,126.32,0,189.48,0,2.62.13,5.24.11,7.86-.04,4.22,1.78,7.2,5.59,9.07,4.96,2.44,9.84,5.05,14.81,7.47,24.35,11.82,49.61,14.66,75.48,6.22,11.56-3.77,22.84-8.65,33.81-13.94,28.37-13.68,57.24-16.84,87.09-5.54,13.47,5.1,25.6,12.44,36.46,21.93,2.65,2.31,5.87,3.97,9.09,6.1,3.79-7.92.02-12.07-4.64-16.06-34.22-29.3-84.26-40.32-129.64-17.23-7.77,3.95-15.72,7.63-23.82,10.84-13.09,5.19-26.81,8.15-40.9,7.78-15.97-.42-30.76-5.66-45.02-12.71-5.73-2.83-8.23-6.89-7.89-13.14.21-3.77.01-7.56,0-13.07Z"/>
  <path class="st4" d="M1441.61,732.13c.02-9.03-.12-17.18.09-25.33.2-7.85,1.64-9.36,9.17-9.53,8.44-.2,16.89-.21,25.33.02,6.62.18,8.09,1.79,8.59,8.33.16,2.03.1,4.07.1,6.11,0,42.8.35,85.61-.23,128.41-.16,11.79-1.98,23.85-4.99,35.26-5.69,21.59-19.66,36.99-40.4,45.18-30.23,11.94-61.07,12.11-91.19.09-27.92-11.13-41.27-33.86-44.59-62.84-1.29-11.24-1.58-22.64-1.64-33.98-.19-37.56-.09-75.13-.06-112.69.01-13.47.51-13.94,13.61-13.99,6.99-.03,13.98-.14,20.96.1,6.63.22,8.13,1.8,8.59,8.33.21,2.9.12,5.82.12,8.73,0,40.77-.1,81.53.1,122.3.04,7.52.55,15.21,2.21,22.51,3.94,17.26,14.94,27.91,32.47,31.31,9.53,1.85,19.11,1.66,28.64-.31,16.58-3.43,26.64-13.81,30.72-29.84,1.63-6.41,2.24-13.23,2.28-19.86.21-35.81.11-71.63.11-108.32Z"/>
  <path class="st3" d="M1730.41,1201.21c-3.62,10.57-6.99,20.49-10.39,30.4-1.28,3.74-2.98,7.13-7.67,7.14-11.64,0-23.28-.02-34.92-.15-1.03-.01-2.06-.82-3.94-1.62.77-3.15,1.24-6.23,2.28-9.11,24.82-68.72,49.68-137.42,74.6-206.1,3.95-10.87,4.44-11.13,15.64-11.22,9.61-.08,19.22-.08,28.82,0,11.37.09,11.99.53,15.79,11.04,20.71,57.2,41.4,114.41,62.09,171.62,4.36,12.04,8.81,24.05,13.04,36.14,2.76,7.91,1.75,9.4-6.45,9.55-9.02.17-18.05.14-27.08,0-8.28-.13-8.95-.61-11.85-8.77-3.51-9.87-6.81-19.82-10.16-29.75q-4.66-13.82-19.64-13.84c-20.09-.01-40.18-.01-60.27,0q-14.8.01-19.9,14.68M1757.73,1119.27c-2.72,7.98-5.54,15.92-8.13,23.94-2.68,8.33-1.61,9.92,7.12,10.03,13.95.17,27.91.08,41.86.07,15.83-.01,15.93-.15,11.04-14.82-8.82-26.47-17.65-52.93-26.52-79.38-.5-1.5-1.44-2.86-2.94-5.8-7.69,22.59-14.86,43.62-22.43,65.96Z"/>
  <path class="st4" d="M3042.05,1022.61c0,67.74.02,134.66,0,201.58,0,14.52-.24,14.73-14.58,14.75-6.11,0-12.22-.05-18.33-.14-4.56-.07-6.93-2.44-7.14-7.02-.18-4-.43-7.99-.74-13.52-2.74,2.28-4.57,3.46-5.99,5.02-24.61,27.05-83.86,29.54-107.35-15.26-8.02-15.29-11.36-31.68-11.77-48.75-.47-19.76,2.47-38.84,11.79-56.61,20.82-39.69,68.71-43.42,97.74-23.95,3.58,2.4,6.56,5.71,9.82,8.59,1.43,1.26,2.86,2.53,5.66,5.01.29-4.62.64-7.67.65-10.72.06-19.78-.02-39.57.07-59.35.05-10.33,1.26-11.5,11.57-11.69,5.82-.11,11.64-.12,17.46,0,9.72.2,10.5,1.05,11.14,12.06M2931.93,1113.74c-18.1,17.55-19,54.71-6.18,74.87,8.6,13.51,20.93,19.7,36.8,18.78,15.28-.89,26.63-8.36,32.9-22.18,9.42-20.76,9.24-41.71-1.32-62.15-5.71-11.05-15.02-17.52-27.24-19.62-12.79-2.2-24.17.97-34.95,10.3Z"/>
  <path class="st1" d="M1425.78,136.34c-14.08,48.79-27.97,96.9-41.86,145.01-3.15,10.92-9.45,14.55-20.15,10.93-2.32-.79-4.67-3.48-5.64-5.86-1.96-4.82-2.97-10.03-4.4-15.07-18.32-64.41-36.66-128.81-54.93-193.22-1.08-3.81-1.68-7.75-2.51-11.64,5.48-2.98,10.52-2.21,15.26-1.44,2.09.34,4.47,2.61,5.56,4.63,1.63,3.02,2.31,6.56,3.26,9.92,15.85,56.03,31.68,112.06,47.54,168.09.75,2.63,1.75,5.19,3.26,9.61,1.56-3.74,2.48-5.47,3.01-7.3,16.55-57.34,33.05-114.7,49.56-172.05.4-1.4.74-2.82,1.18-4.21,2.66-8.46,9.33-11.97,17.46-8.48,2.24.96,4.24,3.95,5.09,6.43,2.83,8.25,5.16,16.68,7.56,25.08,14.43,50.38,28.83,100.76,43.27,151.14.7,2.44,1.7,4.8,3.08,8.62,1.41-2.64,2.39-3.9,2.8-5.33,16.6-58.54,33.13-117.09,49.73-175.63,3.04-10.73,6.91-12.89,17.91-10.88,3.71.68,4.93,2.72,4.3,6.14-.43,2.28-1.04,4.54-1.68,6.78-19.26,68.07-38.53,136.14-57.82,204.21-2.95,10.42-10.31,14.27-20.47,10.39-2.11-.81-4.13-3.22-5.08-5.38-1.75-3.97-2.72-8.28-3.92-12.48-15.51-54.31-31-108.62-46.53-162.93-.85-2.96-1.95-5.85-2.93-8.77-.7-.02-1.4-.03-2.09-.05-3.2,11.03-6.4,22.05-9.8,33.76Z"/>
  <path class="st4" d="M2422.88,1238.77c-11.39.11-22.17-.1-32.93.27-6.44.22-10.86-2.18-14.93-7.12-17.2-20.9-34.71-41.56-52.16-62.27-2.15-2.55-4.57-4.87-6.87-7.3-.64.2-1.28.41-1.92.61-.26,3.03-.73,6.05-.74,9.08-.08,17.47-.03,34.94-.06,52.42,0,2.62-.03,5.25-.24,7.85-.32,4.1-2.58,6.44-6.75,6.48-8.73.08-17.47.09-26.2-.02-4.67-.05-6.73-2.85-6.85-7.3-.07-2.62-.15-5.24-.15-7.86,0-66.1-.02-132.2,0-198.3,0-14.39.36-14.73,14.67-14.78,5.82-.02,11.66-.16,17.47.18,6.09.36,7.57,1.98,7.94,8.09.25,4.06.12,8.15.12,12.23,0,33.49-.01,66.97.03,100.46,0,3.35.36,6.71.56,10.06.62.26,1.24.52,1.87.78,2.08-2.18,4.29-4.25,6.23-6.55,15.22-18.01,30.68-35.84,45.44-54.21,5.99-7.46,12.39-11.51,22.23-10.53,7.5.75,15.13.09,22.7.18,2.77.03,5.53.42,10.15.79-2.87,3.89-4.52,6.47-6.5,8.76-17.33,20.03-34.76,39.98-52.08,60.03-8.42,9.76-8.28,10.33.21,20.4,19.32,22.93,38.59,45.9,57.84,68.89,1.48,1.77,2.85,3.7,3.79,5.78.23.5-1.46,1.86-2.87,2.9Z"/>
  <path class="st4" d="M2664.57,1142.86c0,27.35,0,53.83,0,80.31,0,2.62.08,5.25-.15,7.85-.53,6.07-1.96,7.6-8.17,7.81-7.56.25-15.13.25-22.69.02-7-.21-8.28-1.74-8.73-9.08-.2-3.35-.34-6.7-.62-12.32-3.78,3.79-6.06,5.86-8.1,8.16-17.65,19.9-58.61,21.53-79.15,6.26-14.26-10.61-18.62-25.61-18.05-42.3.71-21.01,11.86-35.1,31.51-41.52,11.8-3.86,24.24-5.86,36.47-8.3,8.26-1.65,16.71-2.38,24.99-3.93,11.88-2.23,15.84-10.42,10.31-21.19-1.3-2.53-3.31-4.77-5.29-6.86-8.87-9.35-38.19-11.6-49.22,3.35-1.88,2.55-3.52,5.36-4.74,8.27-1.67,3.99-4.29,5.96-8.64,5.9-7.85-.1-15.72.2-23.56-.12-6.4-.26-8.26-2.64-6.94-9.12,3.15-15.5,10.93-28.18,24.45-36.72,12.05-7.6,25.26-12,39.65-11.58,9.85.29,19.92.11,29.47,2.13,30.42,6.43,45.75,25.3,47.07,56.39.22,5.23.09,10.47.11,16.58M2558.95,1185.03c-.86,14.1,5.16,22.46,18.72,24.62,24.63,3.91,46.53-13.34,46.87-42.2.05-4.54-1.53-5.85-5.97-5.13-14.03,2.26-28.08,4.46-42,7.29-7.92,1.61-14.77,5.42-17.61,15.43Z"/>
  <path class="st4" d="M2093.58,893.05c-9.5,16.55-23.37,26.43-40.8,31.7-17.72,5.36-35.63,5.94-53.39.89-27.45-7.8-44.93-26.1-52.85-53.25-5.74-19.67-5.7-39.81-.75-59.58,10.37-41.46,44.04-61.48,83.33-59.5,43.11,2.18,69.51,31.21,72.58,74.7.41,5.79.11,11.64-.07,17.45-.14,4.45-2.49,7-7.11,7.12-2.62.07-5.24.14-7.86.14-29.98.01-59.96,0-89.94.01-2.62,0-5.25-.1-7.85.13-5.46.48-6.63,1.79-5.69,7.36,2.4,14.18,12.1,32.18,34.27,34.43,4.89.5,9.93.65,14.8.12,10.98-1.19,20.21-5.84,25.5-16.02,2.66-5.11,6.31-7.05,11.88-6.84,7.56.28,15.14-.1,22.7.18,6.55.24,7.95,2.09,6.25,8.21-1.16,4.18-3.09,8.14-4.99,12.76M2044.04,789.08c-2.1-1-4.13-2.16-6.3-2.98-23.49-8.87-49.46,5.66-54.15,30.26-1.11,5.84-.06,7.29,5.96,7.81,2.31.2,4.65.12,6.97.12,16.28,0,32.55.02,48.83,0,3.2,0,6.42.12,9.58-.26,5.64-.67,7.2-2.62,6.04-8.2-2.18-10.51-6.37-19.94-16.93-26.75Z"/>
  <path class="st4" d="M1366.85,1067.84c5.47-.09,10.13-.17,14.79-.15,37.27.14,66.82,22.2,76.95,58.09,6,21.26,5.58,42.66-1.59,63.66-9.11,26.68-28.09,43.31-54.87,50.35-20.15,5.3-40.57,4.33-59.94-4.16-28.86-12.65-43.63-35.89-47.17-66.39-1.23-10.59-1.1-21.67.5-32.21,5.86-38.65,30.97-62.81,71.34-69.19M1413.97,1122.49c-8.4-14.96-21.54-21.93-38.31-21.06-17.4.91-29.41,10.48-35.79,26.46-7.57,18.98-7.39,38.22,1.12,56.87,5.16,11.31,13.71,19.44,26.18,22.64,19.92,5.12,38.48-2.89,47.57-21.39,10.15-20.65,9.26-41.6-.77-63.52Z"/>
  <path class="st4" d="M1521.58,877.18c0-36.09-.02-71.31.02-106.53.02-13.75.32-14,14.39-14.06,5.24-.02,10.48-.09,15.72.04,8.38.22,9.62,1.46,10.05,9.59.17,3.14.29,6.28.5,11.14,2.83-2.41,4.67-3.58,6.03-5.18,19.78-23.32,56.14-22.78,76.31-11.58,14.23,7.9,21.83,20.68,25.34,36,1.55,6.75,2.22,13.83,2.28,20.76.23,31.73.11,63.45.1,95.18,0,2.04-.09,4.07-.17,6.11-.16,4.23-2.58,6.57-6.59,6.66-9.01.2-18.04.21-27.05-.02-4.15-.11-6.13-2.9-6.24-6.98-.07-2.62-.14-5.24-.14-7.86-.01-26.49.02-52.98-.04-79.46,0-4.36-.08-8.75-.62-13.07-1.76-14.12-10.11-25.04-21.98-27.54-14.91-3.14-29.94-.45-39.33,12.26-5.94,8.04-8.36,17.12-8.34,27.03.05,26.78.02,53.56,0,80.34-.01,15.5-.11,15.59-15.54,15.63-5.24.01-10.49.14-15.71-.13-7.1-.37-8.72-1.92-8.84-9.03-.22-12.8-.1-25.61-.12-39.29Z"/>
  <path class="st4" d="M2371.63,838.21c25.91,21.23,21.16,63.69-8.41,80.26-17.74,9.94-36.96,11.77-56.72,10.16-11.67-.95-23-3.35-33.51-8.97-16.03-8.56-25.39-21.82-28.54-39.56-1.36-7.62.19-9.58,7.87-9.81,7.56-.23,15.14.03,22.71-.08,4.62-.06,7.66,1.51,9.09,6.29,4.31,14.39,15.01,19.91,29.14,20.32,3.78.11,7.63.35,11.34-.2,4.27-.63,8.66-1.53,12.56-3.28,5.99-2.69,9.35-7.64,9.53-14.47.17-6.62-3.13-11.43-8.73-13.96-6.32-2.85-13.06-4.9-19.77-6.68-8.43-2.24-17.11-3.54-25.53-5.83-6.43-1.75-12.84-3.92-18.85-6.76-17.76-8.39-24.96-20.99-23.86-40.61,1.37-24.43,13.68-40.51,37.89-47.63,23.01-6.77,46.16-6.36,68.46,3.07,17.16,7.26,26.75,20.97,29.83,39.21,1.03,6.09-.57,8.31-6.65,8.6-8.13.38-16.3.12-24.45.06-4.32-.03-6.97-2.2-8.26-6.38-3.11-10.11-10.82-14.7-20.58-16.6-7.89-1.54-15.68-.93-23.24,1.74-8.34,2.95-13.28,8.96-13.15,15.63.13,6.5,4.63,12.06,13.06,14.63,7.78,2.37,15.79,3.99,23.75,5.71,15.38,3.32,30.84,6.35,45.03,15.14Z"/>
  <path class="st4" d="M2738.8,1089.76c2.05-.84,3.88-1.98,5.58-3.3,5.23-4.09,9.9-9.22,15.69-12.19,18.13-9.3,37.03-9.15,55.79-1.85,13.49,5.25,23.02,15.02,27.28,28.85,2.71,8.8,4.93,18.12,5.1,27.25.61,32.6.24,65.21.24,97.82,0,1.75-.09,3.49-.15,5.24-.14,4.5-2.32,7.16-6.96,7.2-8.73.08-17.46.09-26.2,0-4.2-.05-6.37-2.5-6.66-6.57-.2-2.9-.23-5.82-.23-8.73-.02-27.08.1-54.15-.11-81.23-.04-5.77-.61-11.68-2.04-17.25-2.83-11.01-10.09-18.05-21.18-21.07-19.78-5.37-39.56,5.76-44.81,25.77-1.53,5.83-2.03,12.07-2.08,18.13-.23,25.04-.1,50.08-.11,75.11,0,2.33.06,4.66-.08,6.99-.43,7.21-1.79,8.72-8.9,8.92-7.56.21-15.14.23-22.7-.03-6.65-.23-7.92-1.72-8.41-8.47-.13-1.74-.09-3.49-.09-5.24,0-46.58-.02-93.17,0-139.75,0-13.83.37-14.13,14.27-14.18,5.53-.02,11.07-.11,16.59.07,7.62.26,8.84,1.62,9.3,9.45.17,2.9.39,5.79.87,9.07Z"/>
  <path class="st4" d="M1944.9,1175.28c.17,1.66.2,2.54.37,3.39,3.4,17.68,12.54,26.91,28.25,28.55,17.12,1.79,32.4-7.05,38.08-22.99,2.1-5.89,3.03-12.48,3.1-18.76.33-26.78.12-53.56.17-80.34.02-13.44.5-13.9,13.64-13.95,6.11-.02,12.23-.15,18.34.14,6.19.29,7.54,1.77,8.08,7.88.18,2.02.13,4.07.13,6.11,0,46.57.02,93.15,0,139.72,0,13.42-.48,13.85-13.65,13.91-6.11.03-12.23.15-18.34-.12-6.13-.27-7.53-1.81-8.09-7.91-.32-3.45-.53-6.92-.83-10.37-.02-.21-.39-.38-1.1-1.04-1.28,1.25-2.75,2.46-3.95,3.89-10.41,12.32-23.97,18.1-39.78,18.96-5.22.28-10.53.35-15.69-.31-21.11-2.69-36.13-13.6-44.04-33.66-3.57-9.05-5.18-18.48-5.19-28.17-.03-32.31-.03-64.62-.01-96.93,0-2.03.1-4.08.31-6.1.35-3.32,2.2-5.57,5.56-5.64,9.31-.2,18.62-.21,27.92-.1,3.81.05,5.79,2.5,6.09,6.15.26,3.19.27,6.39.29,9.59.12,29.11.21,58.21.38,88.11Z"/>
  <path class="st4" d="M2641.48,765.87c13.04,38.22,25.81,75.81,38.58,113.41.53.05,1.07.11,1.6.16.98-2.88,1.98-5.76,2.93-8.65,11.44-34.83,22.79-69.68,34.36-104.46,3.17-9.52,3.67-9.6,13.8-9.71,6.69-.07,13.39-.12,20.08.02,9.18.2,10.12,1.68,7.06,10.6-.66,1.93-1.42,3.82-2.14,5.72-21.19,56.06-42.38,112.13-63.59,168.18-1.44,3.81-2.9,7.62-4.61,11.31-8.35,17.91-22.26,28.93-41.72,32.2-8.55,1.44-17.35,1.82-26.04,1.96-7.26.12-8.85-1.71-9.13-8.64-.23-5.52-.23-11.06.01-16.58.29-6.51,1.87-8,8.51-8.45,4.35-.29,8.74-.05,13.08-.46,13.26-1.24,25.4-13.46,25.97-26.57.14-3.3-1.34-6.8-2.57-10.01-18.55-48.35-37.2-96.67-55.77-145.02-1.51-3.94-2.54-8.07-4.11-13.13,3.74-.5,6.21-1.07,8.68-1.11,7.56-.12,15.14.24,22.69-.12,6.6-.31,10.49,2.41,12.33,9.33Z"/>
  <path class="st4" d="M2186.13,1068.97c31.13,6.73,49.69,25.45,57.15,55.38,2.28,9.16.9,10.76-8.7,10.96-6.69.13-13.38-.07-20.08-.02-5.31.04-8.54-2.09-10.27-7.44-2.92-9.03-7.71-16.87-16.31-21.87-19.18-11.17-44.69-4.68-55.02,15.27-11.91,22.99-11.66,46.67.9,69.4,7.81,14.14,21.21,19.27,36.93,18.44,14.66-.77,25.24-7.92,31.63-21.17.76-1.57,1.56-3.17,1.95-4.85,1.31-5.64,5.14-7.17,10.4-7.04,6.98.16,13.97-.09,20.95.07,8.61.2,9.89,1.8,7.96,10.03-6.15,26.13-21.44,44.69-47.29,52.46-26.42,7.94-52.4,5.78-76.54-8.78-11.53-6.96-20.35-16.74-25.81-28.9-14.06-31.29-14.13-62.97,1.59-93.48,12.88-24.98,35.14-37.38,62.84-39.51,8.91-.69,17.98.54,27.71,1.05Z"/>
  <path class="st4" d="M2706.67,475.06c-5.3,8.77-12.27,15.04-20.9,18.88-8.38,3.73-17.29,6.25-27,9.66,1.69,3.27,3.05,6.37,4.8,9.23,16.48,26.76,33.05,53.48,49.55,80.24,1.63,2.64,2.95,5.48,4.41,8.22-12.1,6.03-21.81,3.49-28.08-6.75-16.86-27.56-33.89-55.02-50.43-82.77-3.94-6.61-8.69-9.46-16.24-9.13-9.01.39-18.05-.02-27.07.13-9.59.16-11.01,1.55-11.06,11.4-.12,24.74-.05,49.49-.07,74.23,0,2.91-.08,5.82-.18,8.73-.15,4.24-2.6,6.34-6.62,6.65-2.6.2-5.24.2-7.84,0-4.03-.32-6.42-2.47-6.57-6.69-.08-2.33-.17-4.65-.17-6.98,0-66.66-.02-133.33,0-199.99,0-14.26.27-14.49,14.82-14.51,24.45-.02,48.91-.06,73.36.02,12.1.04,23.67,2.43,34.5,8.12,14.8,7.78,24.44,19.79,28.16,35.93,4.37,18.98,3.25,37.58-7.36,55.37M2584.78,401.82c-.05,23.86-.11,47.72-.15,71.58,0,1.16.06,2.33.15,3.49.32,4.51,2.69,6.95,7.27,6.94,22.38-.08,44.87,1.65,67.09-1.98,17.22-2.82,29.25-12.3,33.79-29.87,7.67-29.68-9.33-54.66-39.89-56.67-19.99-1.31-40.14-.34-60.21-.38-3.85,0-6.86,1.2-8.03,6.9Z"/>
  <path class="st1" d="M2025.36,515.42c0,24.46,0,48.05,0,71.64,0,1.75.01,3.5-.02,5.24-.19,10.49-5.81,14.63-15.83,11.11-2-.7-3.99-3.28-4.69-5.42-.86-2.66-.45-5.76-.46-8.67-.02-28.25.05-56.5-.08-84.75-.03-5.8-.25-11.69-1.28-17.38-3.13-17.21-14.1-28.77-28.9-31.11-19.9-3.15-36.22,3.81-45.04,19.39-4.99,8.82-7.05,18.48-7.13,28.52-.15,18.05-.08,36.11-.1,54.17-.01,11.94,0,23.88-.05,35.82-.02,3.48.39,8.08-3.72,8.86-4.62.88-9.65.17-14.38-.57-1.12-.18-2.24-3.2-2.55-5.04-.47-2.84-.29-5.8-.29-8.71-.02-29.41.25-58.83-.2-88.24-.12-7.71-1.71-15.63-4.02-23.02-3.03-9.68-10.16-16.29-19.9-19.4-19.66-6.27-40.88-.59-51.46,19.75-4.54,8.73-6.59,17.92-6.56,27.74.1,27.08.03,54.17.02,81.25,0,2.62.06,5.25-.06,7.86-.33,7.67-1.91,9.27-9.27,9.55-9.49.36-11.62-1.61-11.64-11.6-.07-36.69-.04-73.39-.04-110.08,0-10.78-.01-21.55.07-32.33.03-3.48-.25-8.06,3.9-8.77,4.65-.79,9.73-.21,14.37.88,1.33.31,2.13,4.4,2.5,6.86.54,3.56.46,7.22,1.59,11.18,6.96-7.64,13.88-14.48,23.01-18.67,8.93-4.11,18.33-5.77,28.03-5.38,10.02.4,20.15,2,27.9,8.66,7.08,6.09,12.88,13.69,19.6,21.01,1.16-1.51,2.67-3.2,3.86-5.09,11.64-18.46,29.33-24.65,50.02-24.63,3.47,0,6.97.58,10.4,1.2,20.86,3.79,36,18.08,39.91,39.92,2.19,12.21,1.75,24.89,2.5,38.23Z"/>
  <path class="st4" d="M1506.91,1054.51c1.24-7.64,1.63-14.72,3.6-21.34,4.11-13.77,13.87-22.65,27.09-27.67,12.55-4.77,25.58-5.28,38.71-3.07,6.52,1.1,7.76,2.58,8.06,9.27.25,5.52.04,11.05.05,16.58,0,4.35-2.13,6.34-6.49,6.23-3.78-.1-7.58-.2-11.34.13-11.43,1.02-17.99,7.88-18.68,19.21-1,16.4-.17,17.27,16.3,17.31,4.07,0,8.16-.12,12.22.13,6,.37,7.62,1.9,7.92,8.06.28,5.8.29,11.65-.05,17.45-.33,5.57-2,7.13-7.59,7.43-5.52.3-11.06.11-16.58.18-11.42.14-12.26.9-12.28,12.66-.06,35.51-.02,71.01-.04,106.52,0,2.91-.03,5.82-.24,8.72-.3,4.1-2.57,6.44-6.74,6.48-9.02.09-18.04.06-27.06.05-4.56,0-7.03-2.37-7.29-6.9-.17-2.9-.19-5.82-.19-8.73-.01-34.63,0-69.26-.02-103.9-.01-14.75-.11-14.82-14.41-14.92q-15.26-.11-15.28-15.82c0-2.62-.06-5.24.07-7.86.37-7.79,1.69-9.17,9.26-9.49,3.78-.16,7.57.03,11.35-.15,7.23-.35,8.33-1.49,9-8.84.21-2.32.37-4.64.68-7.73Z"/>
  <path class="st4" d="M1843.16,856.43c2.39,7.51,4.58,14.36,6.89,21.57,4.32-1.35,4.21-4.73,5.03-7.2,11.01-33.15,21.86-66.36,32.83-99.52,5.32-16.09,4.17-14.55,20.76-14.69,5.24-.04,10.49-.09,15.72.06,2.5.07,4.99.6,8.58,1.06-.91,3.89-1.29,6.99-2.36,9.83-18.67,49.59-37.52,99.11-56.03,148.76-2.55,6.84-6.47,9.76-13.62,9.38-6.1-.33-12.24-.35-18.34,0-7.5.43-11.57-2.72-14.23-9.85-10.48-28.1-21.46-56-32.25-83.98-8.17-21.19-16.36-42.37-24.46-63.58-3.99-10.45-3.22-11.54,7.85-11.66,6.99-.07,13.99.25,20.96-.07,6.25-.28,9.65,2.44,11.56,8.26,4.54,13.83,9.44,27.54,14.13,41.32,5.63,16.54,11.19,33.1,16.99,50.31Z"/>
  <path class="st1" d="M1967.15,208.15c-.47,17.8-2.67,34.4-10.29,49.95-19.95,40.74-73.13,51.39-106.28,21.04-4.45-4.07-8.06-9.06-12.4-14.01-2.87,2.66-1.92,5.98-1.93,8.87-.1,20.38-.05,40.76-.06,61.14,0,2.62.03,5.24-.02,7.86-.21,9.67-2.43,11.7-12.12,11.07-6.91-.44-8.42-1.98-8.79-9.14-.13-2.61-.07-5.24-.07-7.86,0-63.47,0-126.95,0-190.42,0-2.04-.02-4.08.03-6.11.23-10.11,7.95-15.07,16.93-10.46,1.87.96,3.32,3.97,3.72,6.25.65,3.68.21,7.54.37,11.32.11,2.73.46,5.45.7,8.18.58.15,1.16.3,1.74.45,2.11-2.62,4.19-5.26,6.32-7.87,11.73-14.38,27.01-21.54,45.42-22.72,43.29-2.76,69.7,28.07,75.12,66.92.68,4.9,1.07,9.83,1.63,15.55M1836.25,218.84c.4,11.27,3.46,21.86,9.02,31.59,5.59,9.79,13.23,17.69,23.71,22.38,25.04,11.22,53.94,1.8,66.86-22.44,13.17-24.71,13.32-50.24,2.02-75.65-5.37-12.08-14.29-21.4-26.77-26.27-27.07-10.58-56.71-.7-69.44,30.16-5.12,12.42-5.96,25.39-5.41,40.23Z"/>
  <path class="st4" d="M2584.59,910.25c-.25,13.97-1.2,15.08-13.96,16.83-11.4,1.56-22.7.97-33.67-2.54-13.38-4.27-22.8-12.91-26.18-26.81-1.71-7-2.83-14.31-2.95-21.51-.37-23.27-.14-46.55-.15-69.83,0-1.75.02-3.49-.02-5.24-.23-10.04-1.23-11.07-10.98-11.31-3.2-.08-6.4-.1-9.6-.16-4.61-.08-7.04-2.54-7.15-7.03-.14-6.1-.1-12.22,0-18.32.08-4.66,2.87-6.77,7.25-7,3.78-.2,7.57-.11,11.34-.36,7.16-.47,8.75-1.89,9.02-8.93.29-7.56.07-15.13.18-22.69.15-10.42,1.33-11.68,11.44-11.89,6.4-.13,12.81-.18,19.2.06,7.78.3,9.22,1.73,9.44,9.33.21,7.27.03,14.55.12,21.82.14,11.22,1.22,12.25,12.75,12.4,5.53.08,11.07-.12,16.58.2,6.63.38,8.23,1.97,8.52,8.47.25,5.51.28,11.07-.07,16.57-.35,5.5-2.03,7.09-7.68,7.34-6.97.3-13.97.02-20.94.25-7.26.23-8.99,1.65-9.04,8.73-.16,24.73-.34,49.47.13,74.19.26,13.57,6.87,19.79,20.17,19.96,15.67.21,16.4-.65,16.24,17.46Z"/>
  <path class="st4" d="M2183.67,266.94c-1.65.33-3.78.81-4.01,1.75-.61,2.49-.5,5.18-.5,7.8-.03,20.95-.02,41.9-.02,62.85,0,1.45.01,2.91-.03,4.36-.3,9.15-6.89,13.4-15.31,9.52-1.76-.81-3.3-3.19-3.88-5.16-.72-2.43-.42-5.19-.42-7.8-.02-65.76-.01-131.51,0-197.27,0-1.45-.02-2.91.06-4.36.42-7.9,2.17-9.51,10.19-9.38,7.48.12,8.99,1.56,9.32,9.35.27,6.23.33,12.47.48,18.7.57.1,1.13.21,1.7.31,1.28-1.43,2.78-2.71,3.81-4.3,24.9-38.7,90.74-38.68,113.99,7.83,16.73,33.47,16.75,68.28-1.19,101.5-23.62,43.74-86.43,44.24-112.18,6.71-.49-.72-1.07-1.38-2-2.42M2179.79,202.74c-1.58,12.99.28,25.68,4.67,37.8,6.53,17.99,18.3,31.04,37.72,35.43,26.47,5.99,50.81-6.88,61.14-32.89,8.89-22.38,8.68-45.16-1.19-67.15-9-20.05-24.83-31.19-47.3-31.38-22.5-.19-38.41,10.69-47.52,30.78-3.66,8.07-4.91,17.24-7.53,27.41Z"/>
  <path class="st1" d="M1587.59,239.05c3.41-17.31,14.33-27.11,29.45-32.5,7.61-2.72,15.71-4.27,23.71-5.65,12.32-2.12,24.76-3.59,37.14-5.44,16.88-2.52,21.86-10.47,16.72-26.87-2.53-8.09-7.4-14.42-15-18.49-13.57-7.26-27.77-8.21-42.26-3.68-12.94,4.05-21.18,12.93-24.44,26.15-1.14,4.64-2.86,8.09-8.35,8.42-12.86.75-13.99-3.05-11.5-12.68,5.64-21.81,19.72-35.1,41.24-40.66,11.42-2.95,23.15-2.9,34.69-1.13,30.98,4.74,47.9,24.14,48.27,55.46.33,27.93.09,55.87.1,83.81,0,5.82.01,11.64-.05,17.46-.04,3.52.15,8.02-4.02,8.67-4.64.72-9.75.23-14.28-1.05-1.47-.42-2.26-4.92-2.52-7.64-.51-5.34-.44-10.75-.61-16.12-.6-.18-1.2-.35-1.8-.53-1.9,2.39-3.89,4.72-5.68,7.19-18.17,25.11-57.68,27.73-79.94,14.91-14.2-8.18-20.28-21.11-21.57-36.75-.33-4.01.35-8.11.72-12.88M1657.67,215.05c-4.33.59-8.71.89-12.96,1.83-6.8,1.49-13.84,2.59-20.17,5.3-11.15,4.77-17.1,13.69-16.87,26.14.23,12.32,6.25,20.94,17.32,26.02,16.1,7.4,38.47,3.65,51.51-8.3,14.82-13.58,20.15-30.82,19.69-50.31-.05-2.11-1.09-4.19-1.64-6.17-12.4,1.87-23.87,3.59-36.88,5.49Z"/>
  <path class="st1" d="M2341.65,223.99c9.55-13.14,22.85-18.73,37.49-21.41,14.6-2.66,29.35-4.54,44.03-6.76,1.73-.26,3.47-.42,5.19-.74,14.16-2.64,18.62-9.55,15.35-23.7-2.38-10.33-8.43-18.05-17.85-22.48-13.77-6.47-28.07-7.02-42.45-1.61-11.83,4.45-18.96,13.03-22.26,25.08-2.17,7.93-9.78,11.33-17.46,7.96-3.8-1.66-3.75-4.79-3.13-8.11,3.36-18.01,12.53-32.11,29.31-39.94,20.57-9.6,41.98-9.44,62.91-1.46,21.7,8.27,32.22,25.16,32.47,48.12.32,29.71.09,59.42.1,89.13,0,5.24.12,10.49-.09,15.73-.3,7.48-2.43,9.22-10.55,9.12-7.66-.09-9.58-1.69-9.85-8.93-.23-6.02-.05-12.05-.05-18.07-.58-.14-1.16-.28-1.74-.41-1.19,1.44-2.55,2.78-3.55,4.34-19.87,31.16-61.75,31.34-83.14,18.5-16.29-9.78-22.16-25.09-21.04-43.07.44-7.01,3.89-13.84,6.31-21.3M2436.11,252.45c8.24-16.75,10.67-32.54,6.46-42.58-.75-.11-1.62-.46-2.42-.33-16.36,2.48-32.75,4.78-49.04,7.66-6.51,1.15-13.09,2.94-19.1,5.64-11.56,5.18-16.88,14.72-16.04,27.38.8,12.01,8.64,21.65,20.66,25.4,17.63,5.49,44.19,2.94,59.48-23.15Z"/>
  <path class="st1" d="M1525.59,508.91c7.95-1.2,15.22-1.91,22.31-3.45,9.45-2.05,12.48-6.34,12.45-16.08-.04-15.43-10.64-28.67-26.64-32.59-7.92-1.94-15.95-2.68-24.22-1.21-16.47,2.92-27.75,11.48-32.15,27.99-1.21,4.53-2.73,8.01-8.26,8.58-11.6,1.21-14.44-1.82-11.58-13.07,5.29-20.84,18.73-33.97,39.09-39.56,17.83-4.9,35.8-4.31,53.14,2.68,18.06,7.28,28.1,21.06,30.97,40.12.69,4.58.7,9.29.71,13.94.06,31.15.03,62.31.03,93.46,0,.87,0,1.75-.01,2.62-.19,10.47-5.77,14.38-15.92,11.26-3.23-.99-4.77-3.17-4.88-6.42-.13-3.49-.08-6.99-.21-10.48-.11-2.76-.37-5.52-.7-10.1-2.73,3.08-4.34,4.61-5.61,6.38-13.53,18.99-32.85,25.32-54.95,24.05-7.94-.46-16.24-2.64-23.47-5.98-15.26-7.05-23.22-19.73-23.96-36.68-.08-1.74-.05-3.49-.05-5.24.05-20.32,8.35-32.59,27.12-40.53,11.98-5.06,24.75-6.34,37.4-8.3,2.88-.45,5.76-.85,9.39-1.39M1533.65,582.62c20.63-13.2,27.26-33.08,26.61-56.28-.15-5.54-1.67-6.2-7.41-5.21-10.03,1.73-20.09,3.22-30.11,4.97-10.02,1.75-20.25,2.84-29.94,5.74-13.93,4.17-21.21,13.22-20.86,28.6.31,13.9,9.52,24.01,24.06,27.24,12.59,2.8,24.88,1.56,37.65-5.07Z"/>
  <path class="st1" d="M2092.06,274.92c-17.78,23.12-56.52,27.04-79.39,13.65-8.06-4.72-14.11-11.3-17.47-20.03-5.01-13.02-5.01-26.19-.06-39.24,2.9-7.67,8.47-13.06,15.4-17.27,10.42-6.34,21.87-9.4,33.79-11.09,12.97-1.84,25.95-3.63,38.91-5.53,2.58-.38,5.17-.94,7.65-1.75,5.82-1.91,9-5.83,9.49-12.18,1.35-17.4-9.6-32.03-27.61-36.03-7.97-1.77-16.01-2.38-24.25-.78-15.79,3.06-26.18,11.89-31,27.26-2.63,8.38-9.05,11.54-17.34,8.66-3.42-1.19-4.12-3.57-3.59-6.89,2.32-14.36,8.46-26.54,20.1-35.61,21.86-17.04,60.16-15.36,79.8-3.91,14.94,8.71,22.93,21.93,24.6,39.03.37,3.76.37,7.56.38,11.34.03,30.87.02,61.74.02,92.62,0,1.46.01,2.91-.02,4.37-.21,10.14-7.83,14.88-17.02,10.62-3.12-1.45-3.85-4.15-3.87-7.22-.03-5.77,0-11.54,0-17.31-.66-.26-1.33-.52-1.99-.78-2.05,2.53-4.09,5.06-6.51,8.07M2079.8,212.75c-12.08,1.66-24.23,2.98-36.22,5.14-5.91,1.07-11.8,3.16-17.23,5.77-9.93,4.77-14.15,13.6-14.13,24.2.02,10.93,4.67,19.59,14.53,25.06,15.31,8.49,38.79,6.38,52.6-5.18,16.49-13.81,22.06-32.16,20.92-52.98-.26-4.73-1.62-5.6-6.17-4.82-4.29.73-8.54,1.72-14.29,2.82Z"/>
  <path class="st1" d="M2756.01,459.95c8.91-12.16,20.75-18.7,34.57-21.49,16.26-3.28,32.46-2.78,48.13,3.39,18.47,7.27,28.81,21.06,31.81,40.47.62,4.01.67,8.13.68,12.2.05,32.04.03,64.08.03,96.11,0,.58,0,1.17-.01,1.75-.2,10.43-5.86,14.37-15.97,11.2-3.24-1.01-4.73-3.22-4.84-6.46-.12-3.49-.07-6.99-.21-10.48-.11-2.76-.38-5.5-.72-10.07-2.74,3.13-4.34,4.68-5.62,6.46-13.81,19.23-33.4,25.44-55.87,23.93-7.39-.5-15.06-2.51-21.84-5.53-15.42-6.88-23.38-19.5-24.61-36.34-1.65-22.72,3.98-40.45,35.5-49.15,17.02-4.7,34.93-6.17,52.44-9.09.86-.14,1.74-.17,2.61-.27,13.74-1.65,21.26-5.93,16.98-25.37-2.42-11-9.77-18.5-20.13-22.56-12.93-5.06-26.2-5.41-39.27-.49-11.68,4.4-19.04,12.92-22.5,24.96-2.4,8.34-9.26,11.53-17.43,8.49-3.35-1.25-4.18-3.68-3.6-6.96,1.54-8.7,4.24-16.94,9.86-24.69M2821.96,524.76c-3.46.45-6.93.81-10.37,1.37-11.44,1.87-23.19,2.32-33.91,7.53-10.87,5.28-15.96,14.23-16.06,25.9-.1,11.79,7.23,22.36,18.3,26.29,15.32,5.43,30.39,4.38,44.53-3.91,18.07-10.6,27.64-34.84,25.56-56.75-.42-4.41-3.07-4.98-6.8-4.25-6.55,1.29-13.14,2.38-21.24,3.81Z"/>
  <path class="st1" d="M2453.19,598.29c-1.02,4.09-3.57,5.52-6.65,5.48-3.71-.05-7.8.07-10.95-1.46-1.8-.88-2.63-4.84-2.9-7.52-.55-5.39-.41-10.85-2.14-16.86-1.58,1.85-3.38,3.55-4.71,5.57-17.03,25.89-57.64,29.71-80.99,16.28-8.91-5.13-15.32-12.53-18.53-22.34-3.82-11.68-3.88-23.56-.02-35.19,3.62-10.92,11.76-18.22,22.08-22.25,9.13-3.57,18.82-6.04,28.47-7.88,12.85-2.45,25.91-3.79,38.86-5.68,2.29-.33,4.58-.87,6.8-1.56,6.27-1.95,9.44-6.24,9.9-12.84.96-13.85-6.16-26.65-19.16-32.46-14.2-6.35-28.86-6.73-43.22-.56-10.79,4.64-17.54,13.2-20.6,24.54-1.1,4.08-2.25,7.65-7.37,8.48-11.78,1.92-15.32-1.55-12.37-13.02,5.33-20.73,18.63-34.05,39.09-39.54,17.52-4.7,35.18-4.39,52.31,2.4,18.75,7.43,29.24,21.36,31.87,41.29.3,2.3.5,4.64.49,6.96-.02,35.8-.08,71.6-.25,108.15M2429.51,520.84c-18.96,2.85-37.95,5.53-56.86,8.66-4.51.75-8.96,2.58-13.13,4.56-10.54,5.02-15.72,13.97-15.52,25.3.21,11.99,5.8,21.67,17.31,26.03,17.77,6.73,35.32,5.39,50.27-6.9,16.82-13.83,22.26-32.78,20.56-54.03-.08-1.04-1-2.01-2.62-3.6Z"/>
  <path class="st1" d="M2140.99,437.74c9.49,1.56,17.67,4.43,25.05,9.4,13.82,9.3,21.37,22.53,21.61,38.92.53,36.11.19,72.23.18,108.35,0,3.52.14,7.88-4.11,8.62-4.08.72-8.58.18-12.66-.8-1.3-.32-2.35-3.76-2.61-5.89-.45-3.74-.14-7.56-.26-11.34-.09-2.8-.35-5.59-.64-10.06-2.29,2.49-3.6,3.52-4.41,4.85-12.84,20.97-32.72,27.95-55.89,27.47-10.83-.22-20.98-3.51-30.58-9.21-22.77-13.54-28.68-62.59,4.83-77.14,9.24-4.01,19.23-6.7,29.14-8.68,12.82-2.58,25.92-3.81,38.88-5.7,2.58-.38,5.18-.89,7.66-1.68,7.46-2.39,11.11-7.4,10.54-15.07-1.05-14.24-7.76-24.98-21.05-30.71-12.81-5.52-26.13-5.72-39.25-1.15-12.1,4.22-19.87,12.85-23.19,25.32-1.06,3.98-1.91,7.79-7.1,8.76-12.28,2.32-15.69-1.14-12.64-13.37,5.86-23.47,25.53-39.67,51.33-41.55,8.08-.59,16.27.32,25.16.68M2158.91,521.41c-4.85.92-9.68,1.99-14.56,2.72-12.07,1.81-24.22,3.17-36.24,5.32-5.06.9-10.06,2.89-14.7,5.16-9.86,4.83-14.17,13.21-14.25,24.07-.09,11.13,4.04,20.01,14.08,25.16,4.56,2.34,9.75,4.04,14.83,4.66,25.64,3.15,45.64-9.16,54.77-33.39,4.23-11.24,5.78-22.85,4.83-35.62-3.16.64-5.35,1.09-8.75,1.92Z"/>
  <path class="st1" d="M2219.03,755.74c9.48,1.54,10.09,2.07,10.3,10.3.17,6.69.2,13.4-.03,20.09-.23,6.57-1.3,7.29-7.79,7.6-4.34.21-8.72.56-12.99,1.33-21.55,3.87-36.29,20.73-36.64,42.65-.38,23.87-.11,47.76-.14,71.63,0,2.91-.08,5.82-.13,8.73-.08,4.53-2.38,7.24-6.9,7.32-9.31.16-18.63.15-27.94-.07-4.11-.1-6.27-2.69-6.43-6.82-.09-2.33-.16-4.66-.16-6.98,0-46.88,0-93.77,0-140.65,0-1.75-.03-3.5.08-5.24.45-7.22,1.8-8.76,8.89-8.94,8.15-.21,16.31-.23,24.46.04,6.05.2,7.57,1.86,7.99,7.99.37,5.38.41,10.79.61,16.56,7.23-6.68,13.29-13.23,20.32-18.49,7.43-5.56,16.74-6.33,26.51-7.06Z"/>
  <path class="st3" d="M2490.22,1102.63c0,41.31.02,81.75-.02,122.18-.01,13.78-.37,14.08-14.29,14.13-5.53.02-11.06.11-16.58-.06-8.18-.25-9.33-1.52-9.68-9.92-.07-1.74-.05-3.49-.05-5.24,0-65.45-.01-130.91,0-196.36,0-15.92.17-16.05,16.04-16.1,3.2-.01,6.4-.02,9.6,0,14.42.08,14.9.53,14.96,14.57.04,9.02.01,18.04.01,27.05,0,16.29,0,32.58,0,49.75Z"/>
  <path class="st1" d="M2908.68,443.46c4.6-4.52,9.76-3.43,14.47-2.6,1.9.33,4.07,3.1,4.79,5.22.9,2.64.52,5.75.52,8.65.03,28.23-.11,56.45.12,84.68.05,6.34.66,12.84,2.16,18.99,5.7,23.5,24.96,31.61,44.01,29.92,27.51-2.44,45.7-22.99,46.17-52.02.44-26.47.12-52.96.15-79.44,0-2.91-.09-5.83.16-8.72.51-6.04,1.98-7.38,8.2-7.77,1.74-.11,3.49,0,5.23.03,4.61.05,6.95,2.48,7.21,6.98.14,2.32.18,4.65.18,6.98,0,45.4,0,90.79,0,136.19,0,.87,0,1.75-.02,2.62-.25,9.46-2.62,11.54-12.34,10.83-6.56-.48-8.1-1.96-8.55-8.47-.34-4.91-.54-9.82-.84-14.73-.01-.22-.36-.41-1.05-1.14-1.34,1.36-2.82,2.53-3.9,4.01-20.17,27.64-55.84,27.54-75.52,18.99-12.96-5.63-22.34-15.04-26.69-28.39-2.85-8.75-5.19-18.08-5.37-27.2-.64-32.29-.27-64.6-.23-96.9,0-2.01.49-4.02,1.13-6.68Z"/>
  <path class="st1" d="M1746.65,603.91c-1.89.07-3.06.17-4.21.07-7.28-.64-8.62-1.87-8.89-8.98-.21-5.41-.04-10.84-.04-16.27-.6-.13-1.19-.26-1.79-.39-1.03,1.22-2.19,2.35-3.07,3.67-19.84,29.85-60.84,30.44-81.91,18.05-9.89-5.82-16.85-14.16-21.2-24.72-4.28-10.37-6.03-21.24-6.05-32.4-.05-30.27-.03-60.53-.02-90.8,0-2.03.11-4.08.34-6.09.39-3.35,2.38-5.28,5.73-5.49,2.89-.19,5.81-.18,8.71-.04,3.38.17,5.39,2.18,5.8,5.45.36,2.87.39,5.8.39,8.71.03,28.23.05,56.46.02,84.69-.01,10.34,1.55,20.25,6.54,29.49,5.16,9.54,12.96,15.48,23.44,18.05,28.02,6.87,54.07-8.74,60.68-36.82,1.58-6.73,2.14-13.82,2.22-20.75.27-23.28.11-46.56.11-69.85,0-2.62-.03-5.24.03-7.86.22-10.25,6.64-14.64,16.09-10.65,1.77.75,3.38,3.13,3.99,5.1.75,2.42.48,5.18.48,7.8.02,45.69.02,91.38,0,137.07,0,1.75-.08,3.49-.09,5.24-.05,4.4-1.95,7.2-7.3,7.73Z"/>
  <path class="st4" d="M1367.78,409.06c0-1.41,0-2-.02-2.58-.42-10.8-1.06-11.54-11.58-11.61-15.42-.09-30.84-.03-46.27-.04-2.04,0-4.08.04-6.11-.06-8.29-.4-12.79-9.16-8.06-16.07.98-1.43,3.23-2.39,5.05-2.77,2.53-.51,5.21-.33,7.83-.33,46.56-.01,93.11-.01,139.67,0,1.16,0,2.33-.01,3.49.03,9.11.28,13.39,7.14,9.57,15.34-1.65,3.54-4.84,3.8-8.12,3.81-12.22.03-24.44.04-36.66.07-6.4.01-12.81-.14-19.2.12-6.71.27-8.04,1.7-8.48,8.4-.21,3.19-.12,6.4-.12,9.6,0,57.61,0,115.23,0,172.84,0,2.33.03,4.66-.02,6.98-.21,10.07-8.06,14.88-17.05,10.14-1.71-.9-3.14-3.4-3.56-5.4-.64-3.08-.36-6.37-.36-9.57-.01-59.36-.01-118.72-.02-178.91Z"/>
  <path class="st4" d="M1733.01,925.64c-5.77,0-10.72.1-15.66-.06-8.89-.28-10.15-1.57-10.47-10.15-.04-1.16-.03-2.33-.03-3.49,0-47.13-.02-94.25.01-141.38,0-13.46.48-13.89,13.6-13.95,6.11-.03,12.23-.15,18.32.11,6.17.27,7.59,1.78,8.13,7.86.21,2.31.14,4.65.14,6.98,0,46.55,0,93.09,0,139.64,0,.29,0,.58,0,.87-.09,12.77-.51,13.2-14.04,13.57Z"/>
  <path class="st4" d="M2457.02,884.18c-.02,11.34.11,21.82-.12,32.28-.15,7.12-1.74,8.76-8.81,9.03-7.55.29-15.13.28-22.68,0-6.61-.25-8.07-1.93-8.53-8.43-.12-1.74-.08-3.49-.08-5.23,0-47.12-.02-94.23.01-141.35,0-13.35.53-13.83,13.69-13.87,6.11-.02,12.22-.15,18.32.14,6.17.29,7.55,1.78,8.04,7.9.23,2.89.15,5.81.15,8.72,0,36.65,0,73.29,0,110.81Z"/>
  <path class="st1" d="M2261.32,560.38c.34,3.99.32,7.25,1.07,10.32,2.09,8.53,7.55,13.67,16.39,14.61,4.62.49,9.31.28,13.95.6,6.37.43,7.91,1.98,8.23,7.76.38,6.93-1.37,9.57-7.4,10.7-9,1.68-17.98,1.35-26.83-.96-16.1-4.2-24.92-15.25-26.23-32.96-.34-4.64-.21-9.31-.21-13.97-.02-27.08,0-54.17-.01-81.25,0-2.04.03-4.08-.06-6.11-.38-8.22-1.7-9.59-9.83-9.99-4.36-.22-8.76.08-13.09-.4-5.31-.6-6.72-2.88-6.63-9.3.09-6.41,1.54-8.51,7-8.96,4.63-.38,9.32-.07,13.97-.32,6.72-.36,8.26-1.73,8.5-8.39.3-8.14.04-16.31.21-24.46.19-9.58,9.25-14.7,17.43-9.5,1.93,1.23,3.14,4.81,3.29,7.38.45,7.84.15,15.72.27,23.58.16,10.3,1.25,11.33,11.74,11.47,6.7.09,13.41-.13,20.09.18,6.17.29,7.74,2.36,7.82,9.05.08,6.7-1.46,8.97-7.55,9.33-6.97.42-13.97.13-20.96.29-9.65.22-11.09,1.55-11.12,11.37-.11,29.7-.04,59.41-.04,89.93Z"/>
  <path class="st1" d="M1775.03,223.56c0,20.08.07,39.28-.05,58.48-.06,9.72-7.74,14.41-16.49,9.97-1.73-.87-3.12-3.35-3.67-5.36-.68-2.45-.37-5.19-.37-7.81-.01-45.1-.01-90.19,0-135.29,0-1.75-.03-3.5.07-5.24.46-7.61,1.9-8.96,9.64-9.1,8.91-.16,10.77,1.43,10.81,10.55.13,27.64.06,55.28.07,83.79Z"/>
  <path class="st4" d="M2460.42,714.3c-2.89,19.2-19.44,27.69-35.61,19-9.41-5.06-13.65-16.44-10.44-27.96,3.01-10.78,13.1-17.6,24.63-16.66,11.38.93,19.76,8.66,21.22,19.64.23,1.72.15,3.49.19,5.98Z"/>
  <path class="st4" d="M1719.52,735.61c-16.47-7.09-21.91-25.48-11.86-37.99,6.89-8.58,18.85-11.39,29.13-6.85,9.63,4.25,15.13,14.98,13.27,25.88-1.93,11.31-10.55,19.14-22.12,19.83-2.56.15-5.17-.45-8.41-.87Z"/>
  <path class="st1" d="M1769.95,71.32c5.54,2.26,8.49,5.92,9.55,11.12,1.74,8.53-3.82,16.65-12.23,17.87-8.83,1.28-16.27-4.18-17.52-12.85-1.21-8.4,4.92-16.1,13.56-16.83,1.98-.17,4.01.3,6.63.69Z"/>
  <path class="st2" d="M593.79,412.67c-39.97,6.39-77.32,1.74-112.01-18.77-23.24-13.74-48.27-21.77-75.33-22.73-25.64-.91-50.59,2.42-73.92,13.9-10.45,5.14-20.68,10.73-31.12,15.89-24.11,11.92-49.74,15.14-76.4,14.13-27.26-1.03-51.92-9.67-75.33-22.8-21.22-11.91-43.92-18.4-68.2-19.69-8.6-.46-9.69-1.83-10-10.76-.06-1.75-.04-3.49-.04-5.24,0-83.89,0-167.77,0-251.66q0-16.39,16.65-16.42c316.32,0,632.64,0,948.96,0q16.53,0,16.56,16.5c.01,83.89,0,167.77,0,251.66,0,13.88.42,15.64-14.46,16.33-25.31,1.16-48.34,10.05-70.09,22.44-24.16,13.75-50.26,20.13-77.78,20.12-26.54,0-52.08-5.15-75.57-18.4-8.61-4.85-17.3-9.78-26.44-13.46-47.61-19.21-94.33-17.27-139.84,6.97-17.51,9.33-35.01,18.59-55.67,22.01M954.32,270.56c5.64-6.65,11.13-13.43,16.93-19.94,16.84-18.89,21.17-46.66,9.87-69.33-11.92-23.91-33.4-35.7-59.6-35.38-20.95.26-40.25,6.74-57.41,18.47-14.01,9.58-28.77,14.23-45.83,13.99-20.3-.3-30.47,10.49-30.63,30.85-.06,7.78-1.53,14.99-5.31,21.77-2.41,4.32-4.76,8.68-6.92,13.13-4.45,9.16-8.87,18.34-13.03,27.63-1.17,2.62-3.22,5.87,1.6,8.96,1.91-2.58,3.77-5.02,5.55-7.52,4.56-6.39,8.77-13.07,13.69-19.16,11.96-14.79,27.2-22.26,46.66-20.36,14.51,1.41,27.94,6,40.21,13.51,15.34,9.39,20.56,23.68,16.18,41.43-4.51,18.29-8.61,21.92-27.09,24.04-1.73.2-3.63.09-5.13.8-1.62.76-2.86,2.32-4.49,3.72,3.4,4.61,7.73,3.72,11.6,3.73,25.91.09,51.83.05,77.74.04,2.04,0,4.16.21,6.08-.3,1.78-.47,3.35-1.75,5.01-2.68-.96-1.63-1.53-3.98-2.96-4.75-4.51-2.43-4.76-5.97-4.12-10.37,1.6-11.09,5.08-21.49,11.37-32.27M141.75,279.86c2.14-2.7,4.32-5.37,6.42-8.11,5.64-7.39,10.82-15.18,16.96-22.12,10.72-12.14,24.55-17.08,40.71-16,14.54.98,28.08,5.3,40.5,12.6,16.6,9.75,22.35,24.69,17.56,43.23-4.55,17.61-8.75,21.22-26.9,23.18-1.73.19-3.63.05-5.14.75-1.63.75-2.89,2.31-4.41,3.6,2.88,4.66,6.96,3.89,10.57,3.9,26.79.08,53.57.05,80.36.03,1.45,0,3.02.2,4.34-.25,1.77-.6,3.36-1.75,5.03-2.67-.92-1.65-1.44-4.06-2.84-4.8-4.98-2.64-4.71-6.63-4.09-11.22,2.39-17.67,10.07-32.64,22.39-45.41,3.43-3.55,6.96-7.13,9.73-11.18,14.62-21.34,16.72-44.13,4.43-66.83-12.35-22.8-33.06-32.96-58.64-32.63-20.28.26-39.11,6.47-55.84,17.82-14.47,9.82-29.65,15.15-47.41,14.61-19.88-.61-31.4,12.92-30.09,30.45.6,8.09-1.49,15.57-5.43,22.6-1.71,3.04-3.42,6.1-4.96,9.23-4.89,9.92-9.89,19.79-14.41,29.88-1.25,2.78-3.95,6.34,1.17,9.34M546.28,312.78c-3.22.37-6.4.78-7.27,4.99,2.94,4.15,7.33,3.09,11.18,3.11,25.9.11,51.8.06,77.69.04,2.32,0,4.72.12,6.95-.41,1.47-.35,3.51-1.56,3.79-2.74.29-1.21-.89-3.62-2.07-4.19-5.86-2.83-5.34-7.48-4.5-12.64,1.79-11.07,5.19-21.6,11.59-30.79,4.46-6.41,9.9-12.15,15.07-18.03,16.06-18.24,21.65-39.18,14.41-62.44-7.03-22.61-22.88-36.74-46.02-42.05-14.18-3.26-28.34-1.75-42.26,2.08-12.46,3.43-23.99,8.94-34.57,16.32-12.1,8.44-25.28,12.86-40.15,12.17-4.02-.19-8.17.24-12.12,1.08-12.93,2.74-21.55,11.96-21.18,25.1.4,13.87-4.63,25.41-11.02,37.02-5.18,9.41-9.64,19.24-14.08,29.04-1.3,2.87-3.57,6.26.6,10.46,2.27-2.9,4.36-5.46,6.32-8.12,5.17-7.01,9.8-14.49,15.52-21.01,9.28-10.58,20.52-17.71,35.38-18.21,17.5-.59,33.48,4.25,48.23,12.92,16.05,9.43,22.01,24.02,17.47,41.67-5.39,20.96-9.93,22.55-28.97,24.63Z"/>
  <path class="st2" d="M808.07,643.16c.49,4.12.87,7.59.87,11.07.04,61.4.03,122.8.02,184.21,0,15.3-.31,15.59-14.39,20.72-22.39,8.15-44.08,5.18-65.39-3.94-4.81-2.06-9.48-4.44-14.18-6.77-46.54-23.04-91.56-19.89-135.18,7.78-2.61,1.66-5.28,3.23-9.28,5.67-.43-4.22-.95-6.96-.95-9.7-.04-65.19.07-130.37-.16-195.56-.03-8,2.96-12.75,9.71-16.82,22.12-13.34,45.8-21.68,71.62-22.74,18.83-.77,36.98,3.41,54.43,10.58,6.19,2.54,12.45,4.9,18.76,7.13,23.52,8.33,47.63,10.2,72.28,6.71,3.81-.54,8.02-2.66,11.85,1.66Z"/>
  <path class="st2" d="M510.79,839.57c-34.86-10.61-67.77-7.6-99.78,8.46-10.6,5.32-21.78,9.93-33.18,13.11-18.51,5.17-36.84,3.28-54.5-4.83-5.18-2.38-7.9-5.6-7.56-11.32.1-1.74-.04-3.49-.04-5.24,0-61.99-.02-123.99,0-185.98,0-14.19.09-14.38,14.21-12.2,29.68,4.59,58.02-.44,85.31-12.02,16.27-6.9,33.05-11.38,50.61-12.4,15.25-.89,30.41,1.12,44.61,6.61,12.96,5.01,25.27,11.71,37.85,17.72,5.33,2.54,7.7,6.84,7.21,12.73-.07.87.02,1.75.02,2.62,0,64.91.01,129.81-.02,194.72,0,2.84-.37,5.68-.68,10.21-8-4.73-14.66-9.15-21.75-12.72-6.99-3.52-14.41-6.18-22.3-9.46Z"/>
  <path class="st2" d="M816.79,892.47c8.43-4.15,16.17-8.22,24.11-11.86,5.43-2.49,8.17-6.2,7.81-12.24-.19-3.19.01-6.41.01-9.61,0-61.46,0-122.92.01-184.37,0-3.2-.11-6.44.35-9.59.22-1.46,1.55-3.73,2.63-3.88,1.72-.24,4.13.5,5.33,1.73,1.26,1.29,1.75,3.61,1.98,5.55.35,2.88.23,5.81.23,8.73,0,64.08-.23,128.16.24,192.24.08,10.62-3.25,16.74-13.03,20.66-9.7,3.89-18.75,9.4-28.33,13.63-34.87,15.41-69.75,13.35-104.41-.76-8.89-3.62-17.35-8.27-26.18-12.04-29.23-12.47-56.83-8.85-82.83,8.93-1.35.92-2.32,2.4-5.2,5.47,2.36,1.36,4.82,2.12,6.33,3.75,9.43,10.21,5.39,25.17-7.96,29.23-3.56,1.08-7.45,1.47-11.19,1.51-16.31.16-32.62.16-48.93,0-3.74-.04-7.64-.47-11.17-1.62-12.67-4.12-16.52-17.87-8.08-28.08,1.64-1.98,3.45-3.83,5.45-6.05-5.13-6.8-12.18-10.4-19.28-13.36-23.21-9.68-46.41-9.58-69.4,1.17-10.01,4.69-19.99,9.55-30.32,13.44-34.33,12.93-68.42,12.31-101.87-3.3-10.29-4.8-20.27-10.26-30.53-15.12-5.16-2.45-7.21-6.13-7.16-11.73.15-15.44.02-30.87.01-46.31,0-50.1,0-100.2,0-150.3,0-3.49-.31-7.08.4-10.44.48-2.3,2.08-4.78,3.91-6.28,2.51-2.05,5.26-.82,5.77,2.4.5,3.14.43,6.38.43,9.58.02,62.62,0,125.25.02,187.87,0,16.59-.37,14.88,13.34,21.9,16.37,8.38,32.93,16.03,51.43,18.82,20.12,3.04,39.52.24,58.45-6.36,9.05-3.15,17.98-6.91,26.47-11.34,39.25-20.5,75.23-14.81,108.71,12.8,5.56,4.59,11,9.31,16.9,14.31-3.23,3.2-6.56,2.08-9.51,2.34-3.76.33-7.61.12-11.29.82-3.45.66-5.66,3.15-5.27,6.94.34,3.25,2.41,5.22,5.65,5.77,1.43.24,2.9.36,4.34.37,18.35.02,36.7.01,55.05,0,1.16,0,2.33-.1,3.48-.27,3.61-.53,5.96-2.48,6.11-6.24.15-3.81-2.28-6.01-5.7-6.67-3.11-.6-6.37-.46-9.56-.68-3.04-.2-6.07-.45-9.57-.7.7-1.94.77-2.94,1.3-3.45,19.69-18.81,41.05-34.49,69.41-37.21,16.4-1.57,31.77,1.77,46.65,8.6,11.89,5.45,23.85,10.92,36.16,15.27,29.59,10.45,58.92,9.16,88.27-3.94Z"/>
  <path class="st2" d="M310.31,578.03c3.81-12.81,7.42-25.69,11.48-38.42,6.59-20.66,6.41-17.24-9.32-28.99-7.93-5.92-16.07-11.55-24.05-17.39-2.48-1.81-4.76-3.88-7.14-5.84.18-.67.37-1.34.55-2.01,2.99-.3,5.98-.84,8.97-.87,12.81-.11,25.61.03,38.42-.11,9.61-.1,10.53-.8,13.68-10.11,4.09-12.13,7.97-24.34,12-36.49.9-2.7,2.03-5.33,3.73-9.74,1.72,3.34,2.92,5.1,3.57,7.03,4.44,13.24,8.69,26.55,13.15,39.79,2.95,8.76,3.85,9.42,13.14,9.52,12.81.13,25.61,0,38.42.12,2.98.03,5.95.64,8.92.98.17.67.33,1.34.5,2.02-2.12,1.77-4.14,3.66-6.36,5.29-9.62,7.06-19.3,14.03-28.95,21.05q-10.65,7.76-6.64,19.96c3.88,11.9,7.72,23.81,11.51,35.73.76,2.39,1.19,4.88,2.32,9.61-4.34-2.67-7-4.09-9.43-5.84-10.86-7.82-21.62-15.8-32.49-23.6-7.07-5.07-7.55-5.01-14.55-.04-13.28,9.44-26.52,18.92-40.47,28.49-.68.11-.94-.14-.94-.14Z"/>
  <path class="st2" d="M717.91,578.37c.79-4.26,1.2-8.63,2.46-12.75,3.59-11.68,7.6-23.24,11.29-34.89,2.67-8.41,2.3-9.54-4.72-14.71-11.01-8.11-22.13-16.08-33.16-24.17-1.79-1.32-3.36-2.95-5.23-4.63,2.71-3.58,6.13-2.66,9.09-2.7,12.81-.14,25.62,0,38.42-.12,10.06-.1,10.99-.87,14.21-10.61,4.19-12.71,8.3-25.46,12.49-38.17.7-2.12,1.66-4.15,3.38-8.4,1.78,4.45,2.93,6.93,3.77,9.5,4.07,12.45,8.05,24.93,12.08,37.39,3.06,9.47,3.98,10.21,14.37,10.29,12.52.1,25.03-.02,37.55.09,3,.03,6,.57,9,.88.18.64.35,1.28.53,1.92-2.09,1.81-4.06,3.78-6.27,5.41-10.07,7.43-20.22,14.75-30.33,22.13q-9.17,6.7-5.83,17.19c3.9,12.2,7.87,24.37,11.76,36.57.85,2.67,1.46,5.41.82,9.4-2.55-1.56-5.2-2.98-7.63-4.71-10.89-7.78-21.69-15.7-32.59-23.47-7.3-5.2-7.41-5.18-14.47-.12-10.88,7.8-21.68,15.71-32.56,23.52-2.35,1.69-4.88,3.14-7.89,4.91-.56.2-.54.23-.54.23Z"/>
  <path class="st2" d="M611.31,1137.54c-7.91-5.4-15.87-10.73-23.72-16.22-6.2-4.33-12.4-8.69-18.37-13.33-4.64-3.61-8.76-3.49-13.41-.01-10.72,8.01-21.59,15.83-32.48,23.62-2.43,1.74-4.57,4.58-9.25,3.41.74-2.95,1.27-5.68,2.11-8.31,3.96-12.48,8.05-24.92,12.02-37.4,2.75-8.65,2.7-8.99-4.77-14.51-10.76-7.96-21.64-15.76-32.43-23.68-2.27-1.67-4.39-3.55-6.25-7.16,2.99-.24,5.98-.68,8.98-.69,13.1-.08,26.19.03,39.29-.08,9.35-.08,10.11-.61,13.13-9.49,4.21-12.4,8.19-24.88,12.33-37.3.89-2.66,2.06-5.22,3.86-9.73,1.81,4,3.03,6.14,3.79,8.44,4.29,12.99,8.36,26.05,12.72,39.01,2.83,8.42,3.68,8.99,12.52,9.07,13.1.12,26.19.01,39.29.09,3.05.02,6.1.36,9.15.55.23.63.45,1.26.68,1.88-2.31,1.96-4.51,4.05-6.94,5.84-9.84,7.25-19.78,14.36-29.62,21.61-9.51,7-9.7,7.35-6.19,18.91,2.87,9.46,6.22,18.78,9.17,28.23,1.64,5.26,2.9,10.65,4.34,16.65.01.67.07.63.07.63Z"/>
  <path class="st2" d="M800.94,883.39c-28.98,10.68-56.23,5.86-82.93-5.78-5.86-2.56-11.52-5.6-17.33-8.28-41.37-19.1-79.76-13.28-115.52,13.98-4.28,3.26-8.46,6.67-12.89,10.16-3.59-7.84-3.2-10.02,2.57-15.2,13.42-12.07,28.95-20.49,46.13-25.78,28.59-8.79,56.31-6.11,83.24,6.68,9.45,4.49,18.94,9.01,28.73,12.69,29.73,11.18,58.25,7.58,85.65-7.89,3.71-2.1,5.55-4.93,5.56-9.11,0-3.49.11-6.98.11-10.48,0-61.13,0-122.26.04-183.39,0-3.96.48-7.93.73-11.85,7.19.19,8.6,1.01,9.38,5.86.46,2.85.38,5.8.38,8.71.02,63.75.01,127.5.01,191.25,0,1.75-.12,3.5-.05,5.24.18,4.87-1.74,8.37-6.29,10.45-8.98,4.11-17.91,8.32-27.51,12.74Z"/>
  <path class="st2" d="M301.75,840.43c.01,4.65.21,8.44,0,12.21-.34,6.25,2.16,10.31,7.89,13.14,14.25,7.05,29.05,12.29,45.02,12.71,14.09.37,27.81-2.6,40.9-7.78,8.1-3.21,16.05-6.88,23.82-10.84,45.38-23.09,95.42-12.08,129.64,17.23,4.66,3.99,8.43,8.14,4.64,16.06-3.22-2.13-6.44-3.78-9.09-6.1-10.87-9.49-22.99-16.84-36.46-21.93-29.85-11.29-58.71-8.14-87.09,5.54-10.97,5.29-22.25,10.17-33.81,13.94-25.87,8.43-51.13,5.59-75.48-6.22-4.97-2.41-9.85-5.03-14.81-7.47-3.8-1.87-5.63-4.85-5.59-9.07.02-2.62-.11-5.24-.11-7.86,0-63.16,0-126.32,0-189.48,0-3.2-.22-6.47.4-9.57.41-2.06,1.73-4.34,3.34-5.67,2.81-2.31,5.78-1.06,6.37,2.58.5,3.13.4,6.38.4,9.58.02,59.37.01,118.75.01,178.99Z"/>
  <path class="st0" d="M717.87,578.33s-.06,0-.01.02c.05.02.02,0,.01-.02Z"/>
  <path class="st0" d="M611.24,1137.61s.07,0,.07-.03c0-.04-.05,0-.07.03Z"/>
  <path class="st0" d="M310.7,578.4c.13.12-.44-.15-.42-.26.03-.11.29.14.42.26Z"/>
  <path class="st2" d="M1757.93,1118.62c7.37-21.69,14.53-42.72,22.22-65.31,1.51,2.94,2.44,4.3,2.94,5.8,8.87,26.45,17.7,52.92,26.52,79.38,4.89,14.66,4.79,14.8-11.04,14.82-13.95.01-27.91.1-41.86-.07-8.73-.11-9.8-1.7-7.12-10.03,2.58-8.02,5.41-15.97,8.33-24.6Z"/>
  <path class="st2" d="M2932.38,1113.31c10.33-8.9,21.71-12.07,34.5-9.87,12.22,2.11,21.53,8.57,27.24,19.62,10.56,20.45,10.74,41.4,1.32,62.15-6.27,13.82-17.62,21.3-32.9,22.18-15.86.92-28.2-5.27-36.8-18.78-12.83-20.16-11.92-57.33,6.63-75.31Z"/>
  <path class="st2" d="M2559.13,1184.37c2.66-9.35,9.51-13.15,17.44-14.77,13.92-2.83,27.97-5.04,42-7.29,4.44-.71,6.02.59,5.97,5.13-.34,28.86-22.24,46.11-46.87,42.2-13.56-2.15-19.58-10.52-18.54-25.28Z"/>
  <path class="st2" d="M2044.59,789.41c10.01,6.49,14.2,15.92,16.38,26.43,1.16,5.58-.41,7.53-6.04,8.2-3.16.38-6.38.25-9.58.26-16.28.02-32.55.01-48.83,0-2.32,0-4.66.08-6.97-.12-6.02-.52-7.07-1.98-5.96-7.81,4.7-24.6,30.66-39.13,54.15-30.26,2.17.82,4.2,1.98,6.85,3.3Z"/>
  <path class="st2" d="M1414.29,1123.07c9.71,21.35,10.6,42.3.46,62.95-9.09,18.5-27.65,26.51-47.57,21.39-12.47-3.21-21.03-11.33-26.18-22.64-8.5-18.65-8.69-37.89-1.12-56.87,6.37-15.98,18.39-25.55,35.79-26.46,16.77-.88,29.9,6.1,38.63,21.63Z"/>
  <path class="st2" d="M2584.89,401.06c1.06-4.95,4.08-6.16,7.93-6.15,20.08.05,40.22-.93,60.21.38,30.57,2,47.56,26.99,39.89,56.67-4.54,17.57-16.57,27.06-33.79,29.87-22.22,3.63-44.7,1.9-67.09,1.98-4.58.02-6.95-2.43-7.27-6.94-.08-1.16-.15-2.33-.15-3.49.04-23.86.1-47.72.26-72.33Z"/>
  <path class="st2" d="M1836.23,218.01c-.54-14.02.3-26.99,5.42-39.4,12.73-30.86,42.37-40.74,69.44-30.16,12.48,4.88,21.4,14.19,26.77,26.27,11.3,25.42,11.15,50.94-2.02,75.65-12.92,24.24-41.82,33.66-66.86,22.44-10.48-4.69-18.12-12.59-23.71-22.38-5.56-9.73-8.62-20.32-9.04-32.42Z"/>
  <path class="st2" d="M2179.93,201.98c2.48-9.42,3.73-18.59,7.39-26.66,9.11-20.09,25.02-30.97,47.52-30.78,22.47.19,38.3,11.33,47.3,31.38,9.87,21.99,10.08,44.76,1.19,67.15-10.33,26.01-34.67,38.88-61.14,32.89-19.42-4.4-31.19-17.44-37.72-35.43-4.4-12.12-6.26-24.81-4.53-38.55Z"/>
  <path class="st2" d="M1658.44,214.97c12.24-1.81,23.72-3.54,36.11-5.41.55,1.98,1.59,4.07,1.64,6.17.46,19.49-4.87,36.73-19.69,50.31-13.05,11.96-35.41,15.71-51.51,8.3-11.07-5.09-17.09-13.7-17.32-26.02-.23-12.45,5.73-21.37,16.87-26.14,6.32-2.71,13.37-3.81,20.17-5.3,4.25-.93,8.64-1.24,13.73-1.91Z"/>
  <path class="st2" d="M2435.81,253.01c-14.98,25.53-41.54,28.08-59.17,22.59-12.02-3.74-19.86-13.38-20.66-25.4-.84-12.66,4.48-22.19,16.04-27.38,6.01-2.7,12.59-4.49,19.1-5.64,16.29-2.88,32.68-5.18,49.04-7.66.8-.12,1.67.22,2.42.33,4.21,10.04,1.78,25.84-6.77,43.15Z"/>
  <path class="st2" d="M1533.08,582.96c-12.2,6.28-24.5,7.53-37.08,4.73-14.54-3.24-23.75-13.35-24.06-27.24-.35-15.38,6.93-24.43,20.86-28.6,9.68-2.9,19.92-3.99,29.94-5.74,10.02-1.75,20.09-3.24,30.11-4.97,5.75-.99,7.26-.33,7.41,5.21.64,23.2-5.99,43.08-27.18,56.62Z"/>
  <path class="st2" d="M2080.54,212.64c5.01-.99,9.26-1.97,13.55-2.7,4.55-.78,5.92.09,6.17,4.82,1.14,20.82-4.43,39.17-20.92,52.98-13.81,11.56-37.29,13.67-52.6,5.18-9.86-5.47-14.51-14.13-14.53-25.06-.02-10.61,4.2-19.44,14.13-24.2,5.43-2.61,11.32-4.7,17.23-5.77,11.99-2.17,24.14-3.48,36.97-5.25Z"/>
  <path class="st2" d="M2822.73,524.64c7.34-1.3,13.93-2.39,20.48-3.68,3.73-.73,6.38-.16,6.8,4.25,2.08,21.91-7.49,46.15-25.56,56.75-14.14,8.29-29.21,9.34-44.53,3.91-11.07-3.93-18.4-14.5-18.3-26.29.1-11.68,5.2-20.63,16.06-25.9,10.73-5.21,22.47-5.67,33.91-7.53,3.44-.56,6.92-.92,11.14-1.5Z"/>
  <path class="st2" d="M2430.06,521.13c1.08,1.3,1.99,2.27,2.08,3.31,1.7,21.25-3.75,40.2-20.56,54.03-14.95,12.3-32.5,13.64-50.27,6.9-11.51-4.36-17.1-14.03-17.31-26.03-.19-11.33,4.98-20.28,15.52-25.3,4.17-1.98,8.62-3.82,13.13-4.56,18.91-3.12,37.9-5.81,57.41-8.36Z"/>
  <path class="st2" d="M2159.51,521.21c2.79-.64,4.98-1.08,8.14-1.73.95,12.77-.6,24.39-4.83,35.62-9.13,24.23-29.13,36.55-54.77,33.39-5.07-.62-10.27-2.32-14.83-4.66-10.04-5.15-14.16-14.03-14.08-25.16.09-10.86,4.39-19.25,14.25-24.07,4.64-2.27,9.65-4.26,14.7-5.16,12.01-2.15,24.16-3.51,36.24-5.32,4.88-.73,9.71-1.8,15.17-2.92Z"/>
  <path class="st4" d="M953.98,271.1c-5.95,10.24-9.43,20.64-11.03,31.73-.64,4.4-.39,7.94,4.12,10.37,1.43.77,2,3.12,2.96,4.75-1.66.93-3.23,2.21-5.01,2.68-1.92.5-4.05.3-6.08.3-25.91.01-51.83.05-77.74-.04-3.87-.01-8.2.89-11.6-3.73,1.63-1.4,2.88-2.96,4.49-3.72,1.5-.71,3.4-.6,5.13-.8,18.47-2.11,22.57-5.75,27.09-24.04,4.38-17.75-.85-32.03-16.18-41.43-12.27-7.51-25.7-12.1-40.21-13.51-19.46-1.9-34.7,5.57-46.66,20.36-4.93,6.09-9.13,12.77-13.69,19.16-1.78,2.5-3.64,4.94-5.55,7.52-4.82-3.09-2.77-6.35-1.6-8.96,4.16-9.29,8.58-18.47,13.03-27.63,2.16-4.45,4.51-8.81,6.92-13.13,3.78-6.79,5.25-13.99,5.31-21.77.16-20.35,10.33-31.14,30.63-30.85,17.06.25,31.82-4.41,45.83-13.99,17.16-11.73,36.46-18.21,57.41-18.47,26.2-.32,47.69,11.47,59.6,35.38,11.3,22.67,6.98,50.44-9.87,69.33-5.8,6.51-11.3,13.29-17.28,20.48M932.49,290.07c-1.65-7.11-5.49-12.75-11.63-16.65-5.6-3.55-9.04-3.37-12.41,2.39-5.68,9.69-10.41,19.94-15.37,30.03-.55,1.13-.07,2.76-.07,4.87,2.23.5,4.38,1.33,6.54,1.39,6.08.17,12.17.26,18.24-.04,9.7-.48,13.48-4.05,14.83-13.63.32-2.27.09-4.61-.11-8.36Z"/>
  <path class="st4" d="M141.24,279.87c-4.61-3.01-1.91-6.57-.66-9.35,4.52-10.09,9.52-19.96,14.41-29.88,1.54-3.13,3.25-6.18,4.96-9.23,3.95-7.03,6.04-14.51,5.43-22.6-1.31-17.53,10.21-31.06,30.09-30.45,17.75.55,32.94-4.79,47.41-14.61,16.72-11.35,35.55-17.56,55.84-17.82,25.58-.33,46.29,9.83,58.64,32.63,12.29,22.7,10.19,45.48-4.43,66.83-2.77,4.05-6.3,7.62-9.73,11.18-12.31,12.77-20,27.74-22.39,45.41-.62,4.6-.88,8.59,4.09,11.22,1.4.74,1.92,3.15,2.84,4.8-1.67.91-3.25,2.06-5.03,2.67-1.32.45-2.88.25-4.34.25-26.79.01-53.57.05-80.36-.03-3.6-.01-7.68.76-10.57-3.9,1.53-1.3,2.79-2.85,4.41-3.6,1.51-.7,3.41-.56,5.14-.75,18.16-1.96,22.35-5.57,26.9-23.18,4.79-18.54-.96-33.48-17.56-43.23-12.42-7.3-25.96-11.62-40.5-12.6-16.16-1.08-30,3.86-40.71,16-6.13,6.95-11.31,14.74-16.96,22.12-2.09,2.74-4.27,5.41-6.92,8.11M270.74,306.11c-.86,3.66.77,5.79,4.34,5.84,8.1.1,16.21.17,24.29-.34,5.05-.32,8.22-3.69,9.94-8.51,3.42-9.6-.05-21.34-8.49-28.15-6.8-5.49-11.14-5.32-15.61,2.21-5.3,8.91-9.49,18.47-14.47,28.96Z"/>
  <path class="st4" d="M546.99,312.73c18.34-2.03,22.87-3.62,28.27-24.58,4.54-17.65-1.42-32.23-17.47-41.67-14.75-8.67-30.73-13.51-48.23-12.92-14.86.5-26.09,7.63-35.38,18.21-5.72,6.52-10.35,14-15.52,21.01-1.96,2.66-4.05,5.21-6.32,8.12-4.16-4.2-1.9-7.59-.6-10.46,4.44-9.8,8.9-19.62,14.08-29.04,6.39-11.61,11.42-23.15,11.02-37.02-.38-13.14,8.24-22.35,21.18-25.1,3.95-.84,8.1-1.26,12.12-1.08,14.88.69,28.05-3.73,40.15-12.17,10.58-7.38,22.11-12.89,34.57-16.32,13.92-3.83,28.08-5.34,42.26-2.08,23.14,5.31,38.98,19.43,46.02,42.05,7.24,23.26,1.65,44.2-14.41,62.44-5.18,5.88-10.62,11.63-15.07,18.03-6.39,9.19-9.8,19.72-11.59,30.79-.84,5.16-1.36,9.81,4.5,12.64,1.17.57,2.35,2.97,2.07,4.19-.28,1.18-2.32,2.39-3.79,2.74-2.22.53-4.62.41-6.95.41-25.9.02-51.8.06-77.69-.04-3.85-.02-8.24,1.04-11.18-3.11.86-4.22,4.05-4.63,7.97-5.05M583.52,311.27c8.65.2,17.3.69,25.95.51,6.32-.13,9.81-4.19,11.43-10.14,2.7-9.9-1.6-21.71-10.21-27.64-6.16-4.24-9.98-4.11-13.78,2.29-5.44,9.17-9.97,18.9-14.59,28.53-.73,1.51.14,3.79,1.21,6.45Z"/>
  <path class="st2" d="M932.6,290.79c.09,3.03.32,5.37,0,7.64-1.35,9.59-5.13,13.15-14.83,13.63-6.07.3-12.16.22-18.24.04-2.17-.06-4.32-.89-6.54-1.39,0-2.11-.48-3.75.07-4.87,4.97-10.09,9.69-20.34,15.37-30.03,3.37-5.76,6.81-5.94,12.41-2.39,6.15,3.9,9.98,9.54,11.75,17.36Z"/>
  <path class="st2" d="M270.89,305.51c4.83-9.88,9.02-19.45,14.32-28.36,4.47-7.52,8.81-7.69,15.61-2.21,8.44,6.81,11.91,18.55,8.49,28.15-1.72,4.82-4.89,8.2-9.94,8.51-8.07.51-16.19.43-24.29.34-3.57-.04-5.2-2.17-4.19-6.44Z"/>
  <path class="st2" d="M583.06,310.91c-.6-2.29-1.47-4.57-.74-6.08,4.62-9.63,9.15-19.36,14.59-28.53,3.8-6.4,7.62-6.53,13.78-2.29,8.62,5.93,12.91,17.74,10.21,27.64-1.62,5.95-5.11,10-11.43,10.14-8.64.18-17.3-.31-26.41-.87Z"/>
</svg>